<?xml version="1.0" encoding="utf-8"?>
<!-- Generator: Adobe Illustrator 22.1.0, SVG Export Plug-In . SVG Version: 6.00 Build 0)  -->
<svg version="1.1" id="Layer_1" xmlns="http://www.w3.org/2000/svg" xmlns:xlink="http://www.w3.org/1999/xlink" x="0px" y="0px"
	 viewBox="0 0 337 100.4" style="enable-background:new 0 0 337 100.4;" xml:space="preserve">
<style type="text/css">
	.st0{fill:url(#SVGID_1_);}
	.st1{clip-path:url(#SVGID_3_);}
	.st2{fill:#25A9E0;}
	.st3{fill:url(#SVGID_4_);}
	.st4{fill:url(#SVGID_5_);}
	.st5{fill:url(#SVGID_6_);}
	.st6{fill:url(#SVGID_7_);}
	.st7{fill:url(#SVGID_8_);}
	.st8{fill:url(#SVGID_9_);}
	.st9{opacity:0.5;}
	.st10{clip-path:url(#SVGID_11_);}
	.st11{fill:url(#SVGID_12_);}
	.st12{fill:url(#SVGID_13_);}
	.st13{fill:url(#SVGID_14_);}
	.st14{fill:url(#SVGID_15_);}
	.st15{fill:url(#SVGID_16_);}
	.st16{fill:url(#SVGID_17_);}
	.st17{fill:none;stroke:#FFFFFF;stroke-width:0.25;stroke-miterlimit:10;}
	.st18{opacity:0.15;fill:none;stroke:#FFFFFF;stroke-width:0.25;stroke-miterlimit:10;enable-background:new    ;}
</style>
<title>blockhub-logotype-color-white</title>
<linearGradient id="SVGID_1_" gradientUnits="userSpaceOnUse" x1="171.0676" y1="109.0246" x2="288.9401" y2="-8.8379" gradientTransform="matrix(1 0 0 -1 0 102)">
	<stop  offset="0" style="stop-color:#FBFBFB"/>
	<stop  offset="1" style="stop-color:#C7DDF7"/>
</linearGradient>
<path class="st0" d="M159.5,58c0,6.4-1.6,10.4-9.2,10.4H136c-3.5,0-5.7-1.7-5.7-5.8V36.6c0-4,2.2-5.8,5.7-5.8h13.8
	c6.5,0,9,3.3,9,10.4c0,3.9-1.1,7.2-5.2,7.9v0.2C158.4,50,159.5,53.2,159.5,58z M139.4,45.9h6c2.6,0,3.7-1,3.7-4c0-2.7-1-3.9-3.7-3.9
	h-3.6c-1.9,0-2.4,0.5-2.4,2.4L139.4,45.9z M139.4,58.6c0,2.2,0.5,2.7,2.7,2.7h3.4c2.9,0,4.3-1.2,4.3-4.1s-1.4-4.2-4.1-4.2h-6.3V58.6
	z M163.9,30.8h8.4v37.7h-8.4V30.8z M203.6,54.2c0,11.6-3.3,14.6-13.8,14.6s-13.8-3-13.8-14.6s3.3-14.6,13.8-14.6
	S203.6,42.7,203.6,54.2z M189.8,62.6c4.6,0,5.2-2.8,5.2-8.4s-0.6-8.4-5.2-8.4s-5.2,2.7-5.2,8.4S185.2,62.6,189.8,62.6z M221.7,46.2
	c-5.5,0-6.6,3.2-6.6,8.1s1.1,8.1,6.6,8.1h6.3v6.2h-9.5c-9.7,0-12-5.7-12-14.3s2.3-14.2,12-14.2h8.8v6.2L221.7,46.2z M231.2,68.5
	V30.8h8.4v37.7H231.2z M248.3,68.5l-5.6-10.1c-0.9-1.4-1.3-3-1.3-4.7c0-1.6,0.5-3.2,1.3-4.6l4.6-9.2h9.2l-6.2,11.2
	c-0.4,0.7-0.6,1.5-0.6,2.3c0.1,1,0.4,2,0.9,2.8l7.4,12.2H248.3z M285.3,68.5h-2.9V50.6h-18.6v17.9h-2.9V30.8h2.9V48h18.5V30.8h2.9
	L285.3,68.5z M311,64c0,2.8-0.9,4.5-3.9,4.5h-7c-5.9,0-8.2-3.2-8.2-8.8V40h2.8v19.7c0,3.4,1.1,6.2,5.4,6.2h6.3c1.1,0,1.7-0.2,1.7-2
	V40h2.8V64z M322.6,68.5c-3.5,0-5.8-0.4-5.8-4.5V30.8h2.8V40h6.3c9.1,0,11.1,4.9,11.1,14.1s-2,14.4-11.1,14.4L322.6,68.5z
	 M319.6,63.8c0,1.4,0.1,2.2,2,2.2h4.3c7.5,0,8.2-4.9,8.2-11.9s-0.7-11.6-8.2-11.6h-6.3V63.8z"/>
<g>
	<defs>
		<path id="SVGID_2_" d="M83.5,33.7L83.5,33.7L51.9,2c-0.8-0.8-2.2-0.8-3,0L2.2,48.7c-0.8,0.8-0.8,2.2,0,3l46.7,46.7
			c0.8,0.8,2.2,0.8,3,0l31.7-31.6l0,0l15.1-15.1c0.8-0.8,0.8-2.2,0-3L83.5,33.7z"/>
	</defs>
	<clipPath id="SVGID_3_">
		<use xlink:href="#SVGID_2_"  style="overflow:visible;"/>
	</clipPath>
	<g class="st1">
		<polygon class="st2" points="83.5,33.7 50.4,0.5 83.5,33.7 		"/>
		
			<linearGradient id="SVGID_4_" gradientUnits="userSpaceOnUse" x1="-40.7586" y1="-82.1449" x2="-26.7122" y2="-43.5747" gradientTransform="matrix(1 0 0 -1 97.07 -35.79)">
			<stop  offset="0" style="stop-color:#FA5FCD"/>
			<stop  offset="1" style="stop-color:#F73F9E"/>
		</linearGradient>
		<polygon class="st3" points="83.5,33.7 67,50.2 50.4,33.7 50.4,0.5 		"/>
		
			<linearGradient id="SVGID_5_" gradientUnits="userSpaceOnUse" x1="-88.6461" y1="-101.9671" x2="-86.3363" y2="-68.9889" gradientTransform="matrix(1 0 0 -1 97.07 -35.79)">
			<stop  offset="0" style="stop-color:#71D7FB"/>
			<stop  offset="1" style="stop-color:#3F93F7"/>
		</linearGradient>
		<polygon class="st4" points="0.7,50.2 17.2,66.8 17.2,33.7 		"/>
		
			<linearGradient id="SVGID_6_" gradientUnits="userSpaceOnUse" x1="-89.9101" y1="-88.4245" x2="-36.5881" y2="-116.7755" gradientTransform="matrix(1 0 0 -1 97.07 -35.79)">
			<stop  offset="0" style="stop-color:#6F40DD"/>
			<stop  offset="1" style="stop-color:#1B1464"/>
		</linearGradient>
		<polygon class="st5" points="50.4,66.8 50.4,100 17.2,66.8 17.2,33.7 33.8,50.2 		"/>
		
			<linearGradient id="SVGID_7_" gradientUnits="userSpaceOnUse" x1="-7.0099" y1="-103.05" x2="-4.7092" y2="-70.0604" gradientTransform="matrix(1 0 0 -1 97.07 -35.79)">
			<stop  offset="0" style="stop-color:#71D7FB"/>
			<stop  offset="1" style="stop-color:#3F93F7"/>
		</linearGradient>
		<polygon class="st6" points="83.5,33.7 83.5,66.8 100.1,50.2 		"/>
		
			<linearGradient id="SVGID_8_" gradientUnits="userSpaceOnUse" x1="-45.2572" y1="-97.9606" x2="-14.941" y2="-107.2294" gradientTransform="matrix(1 0 0 -1 97.07 -35.79)">
			<stop  offset="0" style="stop-color:#1B1464"/>
			<stop  offset="1" style="stop-color:#6F40DD"/>
		</linearGradient>
		<polygon class="st7" points="83.5,33.7 83.5,66.8 50.4,100 50.4,66.8 		"/>
		
			<linearGradient id="SVGID_9_" gradientUnits="userSpaceOnUse" x1="-76.2372" y1="-74.9797" x2="-37.7766" y2="-50.0093" gradientTransform="matrix(1 0 0 -1 97.07 -35.79)">
			<stop  offset="0" style="stop-color:#F73F9E"/>
			<stop  offset="1" style="stop-color:#FA5FCD"/>
		</linearGradient>
		<polygon class="st8" points="50.4,0.5 50.4,33.7 33.8,50.2 17.2,33.7 17.2,33.7 		"/>
	</g>
</g>
<g class="st9">
	<g>
		<defs>
			<path id="SVGID_10_" d="M83.5,33.7L83.5,33.7L51.9,2c-0.8-0.8-2.2-0.8-3,0c0,0,0,0,0,0L2.2,48.7c-0.8,0.8-0.8,2.2,0,3
				c0,0,0,0,0,0l46.7,46.7c0.8,0.8,2.2,0.8,3,0c0,0,0,0,0,0l31.6-31.6l0,0l15.1-15.1c0.8-0.8,0.8-2.2,0-3c0,0,0,0,0,0L83.5,33.7z"/>
		</defs>
		<clipPath id="SVGID_11_">
			<use xlink:href="#SVGID_10_"  style="overflow:visible;"/>
		</clipPath>
		<g class="st10">
			<polygon class="st2" points="83.5,33.6 50.4,0.5 83.5,33.6 			"/>
			
				<linearGradient id="SVGID_12_" gradientUnits="userSpaceOnUse" x1="-40.7514" y1="-82.1329" x2="-26.7168" y2="-43.5702" gradientTransform="matrix(1 0 0 -1 97.07 -35.79)">
				<stop  offset="0" style="stop-color:#FA5FCD"/>
				<stop  offset="1" style="stop-color:#F73F9E"/>
			</linearGradient>
			<polygon class="st11" points="83.5,33.6 67,50.2 50.4,33.7 50.4,0.5 			"/>
			
				<linearGradient id="SVGID_13_" gradientUnits="userSpaceOnUse" x1="-88.6292" y1="-101.9476" x2="-86.3262" y2="-68.9906" gradientTransform="matrix(1 0 0 -1 97.07 -35.79)">
				<stop  offset="0" style="stop-color:#71D7FB"/>
				<stop  offset="1" style="stop-color:#3F93F7"/>
			</linearGradient>
			<polygon class="st12" points="0.7,50.2 17.3,66.8 17.3,33.7 			"/>
			
				<linearGradient id="SVGID_14_" gradientUnits="userSpaceOnUse" x1="-89.8912" y1="-88.4111" x2="-36.5891" y2="-116.747" gradientTransform="matrix(1 0 0 -1 97.07 -35.79)">
				<stop  offset="0" style="stop-color:#804AFF"/>
				<stop  offset="1" style="stop-color:#3426BF"/>
			</linearGradient>
			<polygon class="st13" points="50.4,66.8 50.4,99.9 17.3,66.8 17.3,33.7 33.8,50.2 			"/>
			
				<linearGradient id="SVGID_15_" gradientUnits="userSpaceOnUse" x1="-7.035" y1="-103.0308" x2="-4.7206" y2="-70.0551" gradientTransform="matrix(1 0 0 -1 97.07 -35.79)">
				<stop  offset="0" style="stop-color:#71D7FB"/>
				<stop  offset="1" style="stop-color:#3F93F7"/>
			</linearGradient>
			<polygon class="st14" points="83.5,33.6 83.5,66.8 100.1,50.2 			"/>
			
				<linearGradient id="SVGID_16_" gradientUnits="userSpaceOnUse" x1="-45.2552" y1="-97.9421" x2="-14.9489" y2="-107.206" gradientTransform="matrix(1 0 0 -1 97.07 -35.79)">
				<stop  offset="0" style="stop-color:#3426BF"/>
				<stop  offset="1" style="stop-color:#804AFF"/>
			</linearGradient>
			<polygon class="st15" points="83.5,33.6 83.5,66.8 50.4,99.9 50.4,66.8 			"/>
			
				<linearGradient id="SVGID_17_" gradientUnits="userSpaceOnUse" x1="-76.2211" y1="-74.9698" x2="-37.7781" y2="-49.9985" gradientTransform="matrix(1 0 0 -1 97.07 -35.79)">
				<stop  offset="0" style="stop-color:#F73F9E"/>
				<stop  offset="1" style="stop-color:#FA5FCD"/>
			</linearGradient>
			<polygon class="st16" points="50.4,0.5 50.4,33.7 33.8,50.2 17.3,33.7 17.3,33.6 			"/>
			<line class="st17" x1="16.9" y1="67" x2="16.9" y2="67"/>
			<path class="st18" d="M0.7,50.2l16.6-16.6v33.1L0.7,50.2z M50.4,99.9V66.8L17.3,33.6l0,0v33.1L50.4,99.9z M33.8,50.2l16.6-16.6
				V0.5L17.3,33.6L33.8,50.2z M100.1,50.2L83.5,33.6v33.1L100.1,50.2z M83.5,66.8V33.6L67,50.2L50.4,66.8v33.1L83.5,66.8z
				 M50.4,66.8L67,50.2L50.4,33.7L33.8,50.2L50.4,66.8z M67,50.2l16.6-16.6L50.4,0.5v33.1L67,50.2z"/>
			<line class="st17" x1="33.7" y1="50.2" x2="33.7" y2="50.2"/>
		</g>
	</g>
</g>
</svg>
