<svg xmlns="http://www.w3.org/2000/svg" viewBox="0 0 169.71 288.62"><defs><style>.cls-1{fill:#2486c4;}.cls-2{fill:#2285c3;}.cls-3{opacity:0.11;}.cls-4{fill:#fff;}.cls-5{fill:#f8db72;}.cls-6{fill:#d1b14e;}.cls-7{opacity:0.05;}.cls-8{opacity:0.25;}.cls-9{fill:#e5e5e4;}.cls-10{fill:#f1f1f2;}</style></defs><title>Asset 8</title><g id="Layer_2" data-name="Layer 2"><g id="Layer_1-2" data-name="Layer 1"><path class="cls-1" d="M112.7,15.62a7.81,7.81,0,1,1,7.81-7.81A7.82,7.82,0,0,1,112.7,15.62ZM112.7,1a6.81,6.81,0,1,0,6.81,6.81A6.82,6.82,0,0,0,112.7,1Z"/><path class="cls-2" d="M32.86,57.31H38.2a0,0,0,0,1,0,0v18a0,0,0,0,1,0,0H32.86a3.66,3.66,0,0,1-3.66-3.66V61A3.66,3.66,0,0,1,32.86,57.31Z"/><g class="cls-3"><path d="M38.2,75.31H32.86a3.66,3.66,0,0,1-3.66-3.66V61a3.66,3.66,0,0,1,3.66-3.66H38.2Z"/></g><path class="cls-2" d="M135.86,57.31h5.34a0,0,0,0,1,0,0v18a0,0,0,0,1,0,0h-5.34a3.66,3.66,0,0,1-3.66-3.66V61A3.66,3.66,0,0,1,135.86,57.31Z" transform="translate(273.41 132.62) rotate(180)"/><path class="cls-4" d="M131.52,176.63H150a17.26,17.26,0,0,0,17.19-18.82l-4.8-35.12A24,24,0,0,0,138.59,102H31.11A24,24,0,0,0,7.36,122.69L2.57,157.81a17.26,17.26,0,0,0,17.19,18.82H38.19"/><path class="cls-2" d="M150,179.13H131.52v-5H150a14.76,14.76,0,0,0,14.7-16L159.87,123a21.56,21.56,0,0,0-21.28-18.57H31.11A21.55,21.55,0,0,0,9.84,123L5.06,158.09a14.76,14.76,0,0,0,14.7,16H38.19v5H19.76A19.77,19.77,0,0,1,.08,157.58v-.11l4.8-35.11a26.57,26.57,0,0,1,26.22-22.9H138.59a26.57,26.57,0,0,1,26.23,22.9l4.81,35.22A19.77,19.77,0,0,1,150,179.13Z"/><circle class="cls-5" cx="84.85" cy="69.3" r="48.83" transform="translate(-20.06 37.75) rotate(-22.5)"/><path class="cls-2" d="M84.85,23A46.33,46.33,0,1,1,38.52,69.3,46.38,46.38,0,0,1,84.85,23m0-5A51.33,51.33,0,1,0,136.18,69.3,51.33,51.33,0,0,0,84.85,18Z"/><path class="cls-6" d="M48.85,67.22C50.45,23.73,98.23,23.7,98.23,23.7L78.78,18.31a51.32,51.32,0,0,0,2,102l4.86-.6S47.29,109.77,48.85,67.22Z"/><path class="cls-4" d="M38.19,148.63v112H75.52V214a9.34,9.34,0,0,1,9.33-9.34h0A9.34,9.34,0,0,1,94.19,214v46.66h37.33v-112"/><path class="cls-2" d="M134,263.12H91.69V214A6.84,6.84,0,1,0,78,214v49.16H35.69V148.63h5V258.12H73V214a11.84,11.84,0,1,1,23.67,0v44.16H129V148.63h5Z"/><path class="cls-2" d="M126.53,260.62H91.08v18.67H147A20.54,20.54,0,0,0,126.53,260.62Z"/><path class="cls-2" d="M78.63,260.62H43.17a20.53,20.53,0,0,0-20.44,18.67h55.9Z"/><path class="cls-5" d="M147,279.29H91.08v9.33h56v-7.46C147.07,280.53,147,279.9,147,279.29Z"/><path class="cls-5" d="M22.73,279.29c-.06.61-.09,1.24-.09,1.87v7.46h56v-9.33Z"/><path class="cls-2" d="M56.85,152.13a2.5,2.5,0,0,1-.26-5l9.33-1a2.5,2.5,0,0,1,.53,5l-9.33,1Z"/><path class="cls-2" d="M112.85,153.13a2.31,2.31,0,0,1-.52-.06l-9.33-2a2.5,2.5,0,0,1,1-4.89l9.34,2a2.5,2.5,0,0,1-.53,4.95Z"/><g class="cls-7"><path d="M45.25,149.92l-1,4a7.15,7.15,0,0,0-.22,1.53l-2.86,73.83-.9-19.63a59.41,59.41,0,0,0-13.49-35h0l2.48-23.06a18.22,18.22,0,0,1,5.17-10.86h0a3.42,3.42,0,0,1,4.9,0l4.87,5.06A4.42,4.42,0,0,1,45.25,149.92Z"/></g><g class="cls-7"><path d="M123.8,149.92l1,4a7.15,7.15,0,0,1,.22,1.53l4.06,73.83-.3-19.63a59.41,59.41,0,0,1,13.49-35h0l-2.48-23.06a18.22,18.22,0,0,0-5.17-10.86h0a3.42,3.42,0,0,0-4.9,0l-4.87,5.06A4.42,4.42,0,0,0,123.8,149.92Z"/></g><path class="cls-4" d="M94.61,32.12a2.87,2.87,0,0,1,3.72-1.61,37.32,37.32,0,0,1,21,48.35,2.87,2.87,0,0,1-5.34-2.1,31.59,31.59,0,0,0-17.8-40.92A2.86,2.86,0,0,1,94.61,32.12Z"/><path class="cls-2" d="M129.91,174.16v23.9a23.9,23.9,0,0,0,23.9-23.9Z"/><g class="cls-8"><path d="M135.89,63.8c-2.75-21.64-24.55-38.49-51-38.49-26.34,0-48,16.67-51,38.13l4.32,18.67h2.55l3.85,9.7,6,6.9,38.89,6.36,36.83-13.44,2.75-9.52h2l4.32-18.67-.13-.23Zm-7.68,14.61a7.72,7.72,0,0,1-3.84,4.49c-6.27,3.18-18.4,7.33-39,7.33-22.78,0-35.1-5-41.16-8.52a7.55,7.55,0,0,1-3.46-4.39A30.14,30.14,0,0,1,39.33,69a33.55,33.55,0,0,1,1.26-8.74,7.57,7.57,0,0,1,3.5-4.51c10.73-6.22,25-10,40.61-10,16.76,0,31.89,4.37,42.85,11.4l.15.16A34.5,34.5,0,0,1,129.94,69,31.21,31.21,0,0,1,128.21,78.41Z"/></g><path class="cls-2" d="M84.7,42.31c21.56,0,40.47,8.58,51.19,21.49a51.33,51.33,0,0,0-102-.42C44.65,50.71,63.38,42.31,84.7,42.31Z"/><path class="cls-2" d="M84.7,42.31c21.56,0,40.47,8.58,51.19,21.49a51.33,51.33,0,0,0-102-.42C44.65,50.71,63.38,42.31,84.7,42.31Z"/><path class="cls-2" d="M112.7,41.31a2.5,2.5,0,0,1-2.5-2.5v-30a2.5,2.5,0,0,1,5,0v30A2.5,2.5,0,0,1,112.7,41.31Z"/><path class="cls-2" d="M84.85,23A46.33,46.33,0,1,1,38.52,69.3,46.38,46.38,0,0,1,84.85,23m0-5A51.33,51.33,0,1,0,136.18,69.3,51.33,51.33,0,0,0,84.85,18Z"/><path class="cls-2" d="M97.75,134.6a2.84,2.84,0,0,0-4.15,2.55v4.42a.64.64,0,0,1-1,.52l-6.29-4.46a2,2,0,0,0-2.28,0L77.81,142a.64.64,0,0,1-1-.52v-4.37a2.84,2.84,0,0,0-4.15-2.55,2.8,2.8,0,0,0-1.44,2.45v23.06a2.88,2.88,0,0,0,1.16,2.35,2.79,2.79,0,0,0,4.43-2.27v-5.74L84,159.61a2,2,0,0,0,2.28,0l6.29-4.47a.64.64,0,0,1,1,.53v4.41a2.84,2.84,0,0,0,4.15,2.55,2.81,2.81,0,0,0,1.45-2.45V137.05A2.81,2.81,0,0,0,97.75,134.6Zm-7.54,14.55-5,3.57h0l-5-3.61a.62.62,0,0,1,0-1l4.65-3.31a.63.63,0,0,1,.72,0l4.69,3.35A.62.62,0,0,1,90.21,149.15Z"/><path class="cls-2" d="M85.06,95.45C63.5,95.45,44.59,86.88,33.87,74a51.33,51.33,0,0,0,102,.42C125.11,87.06,106.38,95.45,85.06,95.45Z"/><g class="cls-7"><path d="M67.17,200.45h0a14.82,14.82,0,0,1,.76,13.64c-3.38,7.53-8.15,19.8-8.15,28.92v15H76.47V214.94a9.89,9.89,0,0,1,8.86-9.84h0Z"/></g><g class="cls-7"><path d="M102.93,200.45h0a14.85,14.85,0,0,0-.76,13.64c3.38,7.53,8.16,19.8,8.16,28.92v15H93.63V214.94a9.89,9.89,0,0,0-8.85-9.84h0Z"/></g><path class="cls-2" d="M84.85,207.12a42.23,42.23,0,0,1-18.79-4.43l-1-.5,2.24-4.47,1,.49a37,37,0,0,0,33.13,0l1-.49,2.24,4.47-1,.5A42.24,42.24,0,0,1,84.85,207.12Z"/><path class="cls-2" d="M15.9,174.07h0c0,13.25,10.49,24,23.43,24h0v-24"/><g class="cls-7"><path d="M91.08,260.62v28H124l-.1-.08a13,13,0,0,1-3.41-4.32c-3.75-7.39-14.43-14.09-9-26.17H93.24l-1.49,2.57"/></g><path class="cls-2" d="M38.19,179.13H19.76A19.77,19.77,0,0,1,.08,157.58v-.11l4.8-35.11a26.57,26.57,0,0,1,26.22-22.9h20.2v5H31.11A21.55,21.55,0,0,0,9.84,123L5.06,158.09a14.76,14.76,0,0,0,14.7,16H38.19Z"/><line class="cls-4" x1="38.19" y1="260.62" x2="38.19" y2="148.63"/><path class="cls-2" d="M38.19,263.12a2.5,2.5,0,0,1-2.5-2.5v-112a2.5,2.5,0,0,1,5,0v112A2.5,2.5,0,0,1,38.19,263.12Z"/><line class="cls-9" x1="131.52" y1="260.62" x2="131.52" y2="148.63"/><path class="cls-2" d="M131.52,263.12a2.5,2.5,0,0,1-2.5-2.5v-112a2.5,2.5,0,0,1,5,0v112A2.5,2.5,0,0,1,131.52,263.12Z"/><line class="cls-4" x1="157.84" y1="150.21" x2="161.08" y2="169.73"/><path class="cls-5" d="M161.08,172.23a2.5,2.5,0,0,1-2.46-2.09l-3.25-19.52a2.5,2.5,0,1,1,4.93-.82l3.25,19.52a2.49,2.49,0,0,1-2.05,2.87A2,2,0,0,1,161.08,172.23Z"/><path class="cls-10" d="M16.84,129a2.5,2.5,0,0,1-2.5-2.5c0-9.88,8.6-17.91,19.18-17.91a2.5,2.5,0,1,1,0,5c-7.82,0-14.18,5.79-14.18,12.91A2.5,2.5,0,0,1,16.84,129Z"/><path class="cls-2" d="M150,179.13H131.52v-5H150a14.76,14.76,0,0,0,14.7-16L159.87,123a21.56,21.56,0,0,0-21.28-18.57h-26.4v-5h26.4a26.57,26.57,0,0,1,26.23,22.9l4.81,35.22A19.77,19.77,0,0,1,150,179.13Z"/><circle class="cls-1" cx="112.7" cy="7.81" r="5.39"/><path class="cls-2" d="M106.88,70.71c0,6.13-3.3-1.89-7.38-1.89s-7.37,8-7.37,1.89S95.43,59.6,99.5,59.6,106.88,64.58,106.88,70.71Z"/><path class="cls-2" d="M77.15,70.71c0,6.13-3.31-1.89-7.38-1.89s-7.38,8-7.38,1.89,3.3-11.11,7.38-11.11S77.15,64.58,77.15,70.71Z"/><g class="cls-3"><path d="M49.53,66.22c1.75-45.59,54-45.62,54-45.62l-2.61-.69c-32.73-8.69-66.08,13.8-67.35,46.33,0,.68,0,1.36,0,2,0,25.16,16.4,45.46,40.4,51.19a42.93,42.93,0,0,0,13.61.92l2.17-.18S47.82,110.82,49.53,66.22Z"/></g></g></g></svg>