<svg xmlns="http://www.w3.org/2000/svg" xmlns:xlink="http://www.w3.org/1999/xlink" viewBox="0 0 139.1 200.17"><defs><style>.cls-1{fill:none;}.cls-2{fill:#2b79ac;}.cls-3{fill:#2285c3;}.cls-4{fill:#fff;}.cls-5{fill:#f8db72;}.cls-6{opacity:0.17;}.cls-7{opacity:0.17;}.cls-8{clip-path:url(#clip-path);}.cls-9{fill:#246589;}.cls-10{opacity:0.05;}</style><clipPath id="clip-path"><path class="cls-1" d="M24,29.13c15.7-2.88,41.72-5.14,56,7.31,19.91,17.41-31.4,31.91-56.31,37.71-2.15.5-4.1.93-5.8,1.3a51.83,51.83,0,0,1-3.91-36.92,13.1,13.1,0,0,1,10-9.4Z"/></clipPath></defs><title>Asset 1</title><g id="Layer_2" data-name="Layer 2"><g id="Layer_1-2" data-name="Layer 1"><path class="cls-2" d="M120.37,28.31a8.83,8.83,0,1,1,8.83,8.83A8.84,8.84,0,0,1,120.37,28.31Zm1,0a7.83,7.83,0,1,0,7.83-7.83A7.84,7.84,0,0,0,121.37,28.31Z"/><circle class="cls-3" cx="129.2" cy="28.31" r="6"/><path class="cls-4" d="M92.08,112.52,97.37,111a10.41,10.41,0,0,1,13.11,7.69l7.48,42.9a10.43,10.43,0,0,1-7,12.22h0a10.43,10.43,0,0,1-13.1-6.83l-6.54-31.72Z"/><path class="cls-3" d="M101.83,175.29a12.83,12.83,0,0,1-6.36-7.6L88.8,135.44l.85-24.81,7-2.07a12.9,12.9,0,0,1,16.26,9.54l7.49,43a12.9,12.9,0,0,1-18.58,14.23Zm2.5-61.17a7.83,7.83,0,0,0-6.25-.77l-3.56,1.05L93.82,135l6.46,31.3a7.91,7.91,0,0,0,15.24-4.21l-7.49-43A7.84,7.84,0,0,0,104.33,114.12Z"/><path class="cls-4" d="M40.5,149.53a1.56,1.56,0,0,0,.84-.25l43.11-27.69a14.71,14.71,0,0,0,4.43-20.32l-2-3.12a14.72,14.72,0,0,0-20.33-4.43L23.44,121.41a1.55,1.55,0,0,0-.47,2.14l16.22,25.26A1.56,1.56,0,0,0,40.5,149.53Z"/><path class="cls-3" d="M74.49,88.89v5A12.19,12.19,0,0,1,84.78,99.5l2,3.12a12.22,12.22,0,0,1-3.68,16.87L40.79,146.67,25.59,123,67.91,95.82a12.21,12.21,0,0,1,6.58-1.93v-5m0,0a17.13,17.13,0,0,0-9.29,2.73L22.09,119.3a4.07,4.07,0,0,0-1.22,5.61l16.22,25.25A4,4,0,0,0,40.51,152a4,4,0,0,0,2.18-.65L85.81,123.7A17.22,17.22,0,0,0,91,99.92L89,96.8a17.21,17.21,0,0,0-14.5-7.91Z"/><path class="cls-4" d="M63.65,92.62C74.52,79.2,84.6,86.19,94,86.19a141,141,0,0,0-2.21,36.15c2.7,32.41,9.5,42.44,9.5,50.23,0,.14,0,.28,0,.42a24.37,24.37,0,0,1-24.44,24H57c-8.09-5.78-13.57-26.62-13.57-39.39C43.46,123.57,57.65,100,63.65,92.62Z"/><path class="cls-3" d="M55.58,199.05C46.52,192.59,41,170.57,41,157.63c0-39.84,18.62-64,20.74-66.59h0c9.09-11.21,18.22-9.53,25.55-8.2a37.57,37.57,0,0,0,6.7.85v5A2.5,2.5,0,0,0,96.33,87a141.53,141.53,0,0,0-2.1,35.18,181.25,181.25,0,0,0,7.19,39.25c1.35,4.62,2.32,8,2.32,11.19V173a26.93,26.93,0,0,1-26.94,26.51H56.23ZM86.35,87.76c-7.26-1.33-13.54-2.48-20.76,6.43S46,126.67,46,157.63c0,12.5,5.27,31.28,11.93,36.89h18.9A21.91,21.91,0,0,0,98.73,173v-.4c0-2.51-.89-5.57-2.12-9.8C94.37,155,91,143.3,89.25,122.55a138.71,138.71,0,0,1,.49-25.06c.27-2.56.69-6.2,1.2-9C89.39,88.32,87.85,88,86.35,87.76Z"/><circle class="cls-5" cx="63.64" cy="51.62" r="48.56"/><path class="cls-5" d="M76.24,18.15a34.25,34.25,0,0,1,20,44.13Z"/><path class="cls-4" d="M95.24,65a2.86,2.86,0,0,0,3.68-1.67,37.16,37.16,0,0,0-21.67-47.8,2.85,2.85,0,1,0-2,5.34A31.44,31.44,0,0,1,93.57,61.27,2.86,2.86,0,0,0,95.24,65Z"/><path class="cls-3" d="M79.73,8.85A45.68,45.68,0,1,1,20.89,35.52,45.74,45.74,0,0,1,79.73,8.85ZM15.54,33.51a51.39,51.39,0,1,0,66.2-30A51.4,51.4,0,0,0,15.54,33.51Z"/><g class="cls-6"><path d="M16.44,31.28A51.39,51.39,0,0,0,111,71.52a45.68,45.68,0,1,1-26.18-67,29.56,29.56,0,0,0-3-1.26A51.39,51.39,0,0,0,16.44,31.28Z"/></g><path class="cls-3" d="M79.73,8.85A45.68,45.68,0,1,1,20.89,35.52,45.74,45.74,0,0,1,79.73,8.85ZM15.54,33.51a51.39,51.39,0,1,0,66.2-30A51.4,51.4,0,0,0,15.54,33.51Z"/><circle class="cls-3" cx="63.79" cy="51.94" r="48.79"/><path class="cls-3" d="M60.51,6.14A45.89,45.89,0,1,1,18,55.19a46,46,0,0,1,42.5-49ZM12.29,55.6A51.63,51.63,0,1,0,60.1.41,51.62,51.62,0,0,0,12.29,55.6Z"/><g class="cls-7"><path d="M30.08,83.83h0a45.81,45.81,0,0,1-17.62-26A51.63,51.63,0,1,0,60.07.42,28.7,28.7,0,0,0,56.8.77,45.88,45.88,0,0,1,86,82.19l-3.46,2.58a45.89,45.89,0,0,1-49.83.84"/></g><path class="cls-5" d="M24,29.13c15.7-2.88,41.72-5.14,56,7.31,19.91,17.41-31.4,31.91-56.31,37.71-2.15.5-4.1.93-5.8,1.3a51.83,51.83,0,0,1-3.91-36.92,13.1,13.1,0,0,1,10-9.4Z"/><g class="cls-8"><path class="cls-4" d="M29.51,55.74a2.85,2.85,0,0,1-3.06-2.65A37.33,37.33,0,0,1,61,13.23,2.87,2.87,0,1,1,61.39,19,31.6,31.6,0,0,0,32.17,52.68,2.86,2.86,0,0,1,29.51,55.74Z"/></g><circle class="cls-2" cx="81.46" cy="44.29" r="10.08"/><circle class="cls-9" cx="81.46" cy="44.29" r="10.08"/><circle class="cls-2" cx="80.27" cy="43.26" r="10.08"/><rect class="cls-2" x="71.31" y="64.42" width="83.29" height="5" transform="translate(8.13 145.98) rotate(-67.67)"/><path class="cls-3" d="M41.6,146.42l11,10.36a15.1,15.1,0,0,1-21.34.61c-5.8-5.48-5.86-14.84-.14-20.9Z"/><path class="cls-4" d="M55.61,156a1.53,1.53,0,0,0,1.14-.49l35.18-37.25a14.72,14.72,0,0,0-.6-20.79l-2.69-2.55a14.72,14.72,0,0,0-20.8.6L32.66,132.73a1.56,1.56,0,0,0-.42,1.11,1.54,1.54,0,0,0,.49,1.09l21.82,20.61A1.56,1.56,0,0,0,55.61,156Z"/><path class="cls-3" d="M78.54,88.37v5a12.18,12.18,0,0,1,8.39,3.33l2.69,2.54a12.24,12.24,0,0,1,.49,17.27L55.58,153.07,35.13,133.76,69.66,97.19a12.13,12.13,0,0,1,8.88-3.82v-5m0,0A17.16,17.16,0,0,0,66,93.76L30.85,131a4,4,0,0,0,.16,5.73l21.82,20.61a4,4,0,0,0,5.73-.16l35.18-37.25a17.21,17.21,0,0,0-.69-24.33l-2.69-2.54a17.18,17.18,0,0,0-11.82-4.7Z"/><polyline class="cls-4" points="72.85 197.02 26.72 197.22 26.8 164.85 72.35 166.48"/><path class="cls-3" d="M24.21,199.72l48.65-.2a2.5,2.5,0,0,0,0-5h0l-43.62.18.07-27.26,43,1.54a2.5,2.5,0,1,0,.18-5L24.3,162.26Z"/><path class="cls-3" d="M9.49,144.17l-.14,56,18.7,0,.08-35.51A20.56,20.56,0,0,0,9.49,144.17Z"/><path class="cls-5" d="M7.61,144,.14,144,0,200.1l9.35,0,.14-56C8.86,144.11,8.25,144.07,7.61,144Z"/><line class="cls-4" x1="108.03" y1="142.85" x2="79.5" y2="155.03"/><rect class="cls-3" x="78.25" y="146.44" width="31.03" height="5" transform="translate(-50.95 48.77) rotate(-23.12)"/><rect class="cls-3" x="95" y="100.63" width="5" height="18.12" transform="translate(-36.54 49.93) rotate(-24.34)"/><path class="cls-3" d="M115.81,146.51c.23-.09,23.29-9.09,23.29-38.9s-27.4-42.27-27.68-42.4l-2,4.57c1,.45,24.72,11.42,24.72,37.83s-19.85,34.14-20,34.22Z"/><line class="cls-4" x1="45.68" y1="135.05" x2="56.94" y2="123.09"/><path class="cls-5" d="M45.68,137.55a2.5,2.5,0,0,0,1.82-.78l11.26-12a2.5,2.5,0,1,0-3.64-3.43l-11.26,12a2.49,2.49,0,0,0,1.82,4.21Z"/><path class="cls-3" d="M31.33,135.65l8.15,12.7a15.09,15.09,0,0,1-20.85-4.55c-4.31-6.71-2.13-15.81,4.89-20.31Z"/><path class="cls-3" d="M85.14,111.39a1.56,1.56,0,0,0-2.61-.57l-1.67,1.75a.36.36,0,0,1-.6-.18l-.8-4.15a1.08,1.08,0,0,0-.9-.87l-4.13-.61a.34.34,0,0,1-.2-.58l1.66-1.73a1.57,1.57,0,0,0-.68-2.59,1.54,1.54,0,0,0-1.5.42L65,111.41a1.55,1.55,0,0,0-.43,1.37,1.53,1.53,0,0,0,2.61.78l2.17-2.25v0l.9,4.79a1.06,1.06,0,0,0,.9.86l4.18.62a.35.35,0,0,1,.2.59l-1.67,1.75a1.55,1.55,0,0,0,.67,2.58,1.52,1.52,0,0,0,1.51-.42l8.78-9.15A1.54,1.54,0,0,0,85.14,111.39Zm-8.5,2.89-3.36-.5h0l-.61-3.33a.35.35,0,0,1,.39-.4l3.09.45a.38.38,0,0,1,.29.28l.58,3.1A.33.33,0,0,1,76.64,114.28Z"/><g class="cls-10"><path d="M29.3,167.44s1.14,11.76,2.84,16.92c2.35,7.16,12.83,10.3,12.83,10.3l-15.79.09.09-25Z"/></g><g class="cls-10"><path d="M46.11,161.51l21.11.7a3.92,3.92,0,0,1,1.11-4,3.06,3.06,0,0,1,3.63-.8,4.47,4.47,0,0,1,2.16,2.11c.72,1.43,1,2.86-.52,4-2.07,1.63-4.78.51-4.78.51l-22.71-.86Z"/></g><path class="cls-3" d="M73.6,172.56a2.36,2.36,0,0,0,.82-.14A2.49,2.49,0,0,0,76,169.24l-1.25-3.59-1.54-4.89a2.5,2.5,0,1,0-4.77,1.5l1.57,5,1.27,3.66A2.5,2.5,0,0,0,73.6,172.56Z"/><g class="cls-10"><path d="M61.3,154.29s19.9-18.81,23.91-15.4a71.84,71.84,0,0,1,7.43,7.49l-2.78-22.33Z"/></g></g></g></svg>