<svg xmlns="http://www.w3.org/2000/svg" xmlns:xlink="http://www.w3.org/1999/xlink" viewBox="0 0 128.71 280.46"><defs><style>.cls-1,.cls-10{fill:none;}.cls-2{fill:#fff;}.cls-3{fill:#2285c3;}.cls-4{opacity:0.05;}.cls-5{opacity:0.17;}.cls-6{fill:#f8db72;}.cls-7{clip-path:url(#clip-path);}.cls-8{fill:#2b79ac;}.cls-9{fill:#246589;}.cls-10{stroke:#2b79ac;stroke-miterlimit:10;}</style><clipPath id="clip-path" transform="translate(0)"><path class="cls-1" d="M13.52,26.06c15.87-1.75,42-2.15,55.32,11.29C87.45,56.13,35.24,66.94,10,70.94c-2.18.35-4.16.64-5.87.88a51.7,51.7,0,0,1-1.27-37.1,13.12,13.12,0,0,1,10.68-8.66Z"/></clipPath></defs><title>Asset 7</title><g id="Layer_2" data-name="Layer 2"><g id="Layer_1-2" data-name="Layer 1"><path class="cls-2" d="M29.81,146.93a2,2,0,0,1-1.7-.93L12.29,121.36a2,2,0,0,1,.61-2.78L54.28,92a16.65,16.65,0,1,1,18,28L30.89,146.61a2,2,0,0,1-1.08.32Z" transform="translate(0)"/><path class="cls-3" d="M63.26,91.87a14.15,14.15,0,0,1,7.66,26.06L32.54,142.58,30,144.24,14.66,120.42l41-26.31a14.1,14.1,0,0,1,7.63-2.24m0-5a19,19,0,0,0-10.33,3L11.54,116.48a4.52,4.52,0,0,0-1.35,6.24L26,147.35a4.49,4.49,0,0,0,3.8,2.08,4.44,4.44,0,0,0,2.43-.72l3-1.93,38.38-24.64a19.15,19.15,0,0,0,5.76-26.47h0a19.12,19.12,0,0,0-16.13-8.8Z" transform="translate(0)"/><g class="cls-4"><path d="M15.15,121.45s6.73,10,11.08,13.25c6,4.52,17.19.85,17.19.85l-13.51,8.74L15.15,121.45Z" transform="translate(0)"/></g><path class="cls-2" d="M48.78,241.93V194.8a2.52,2.52,0,0,0-1-2c-7-5-12.59-24.6-12.59-37.54,0-2.23.07-4.5.2-6.76.12-2.07.28-4.14.5-6.13.17-1.59.39-3.22.66-5a115.53,115.53,0,0,1,3.2-14.56A107.81,107.81,0,0,1,47.08,104c.46-.9.92-1.77,1.37-2.59s1-1.84,1.54-2.71a69.33,69.33,0,0,1,3.84-5.83c.36-.48.71-.94,1-1.34A23.59,23.59,0,0,1,60,86.62,14,14,0,0,1,62,85.51l9.68.41a2.47,2.47,0,0,0,1.44-.46c.35-.24.68-.48,1-.74l1.62.29c1.53.28,3.08.57,4.65.74-.18,1-.36,2.23-.53,3.49s-.34,2.44-.5,3.85a.88.88,0,0,0,0,.16c-.22,2-.41,4-.56,6v.05c-.24,3-.39,5.94-.44,8.78,0,1.92,0,3.84,0,5.69.06,2.22.17,4.26.33,6.25a207.55,207.55,0,0,0,3.48,25c1.37,6.61,2.79,11.52,3.94,15.47a63,63,0,0,1,2,7.94,14.86,14.86,0,0,1,.13,1.88c0,10-3.41,15.13-6.14,19.24a32.65,32.65,0,0,0-2.56,4.28,2.55,2.55,0,0,0-.23,1.05v47.13Z" transform="translate(0)"/><path class="cls-3" d="M74.71,87.37l.56.1,2.24.4c-.05.31-.1.64-.14,1-.18,1.23-.35,2.54-.5,3.88a1.85,1.85,0,0,0,0,.23c-.22,2-.41,4-.56,6v.06c-.24,3-.39,6-.44,8.89,0,2,0,3.91,0,5.78v0c.06,2.27.17,4.36.34,6.39a207.89,207.89,0,0,0,3.53,25.26c1.38,6.71,2.82,11.68,4,15.67a59.8,59.8,0,0,1,1.89,7.54,10.93,10.93,0,0,1,.12,1.58c0,9.25-3,13.82-5.73,17.86a35.27,35.27,0,0,0-2.74,4.62,5,5,0,0,0-.46,2.09v44.63H51.28V194.8a5,5,0,0,0-2.09-4.07C43,186.3,37.65,167.5,37.65,155.22c0-2.18.07-4.41.2-6.62.11-2,.27-4,.48-6,.17-1.55.38-3.15.65-4.89a111.21,111.21,0,0,1,3.14-14.26,103.44,103.44,0,0,1,7.2-18.37c.44-.88.88-1.72,1.34-2.55s1-1.76,1.49-2.61a63.77,63.77,0,0,1,3.67-5.59c.35-.47.68-.9,1-1.27a21.17,21.17,0,0,1,4.62-4.37A10.91,10.91,0,0,1,62.5,88l8.93.38h.21a5,5,0,0,0,2.88-.91l.19-.14m-1.27-5.29c-.59.46-1.19.91-1.8,1.34L61.47,83a17,17,0,0,0-2.84,1.55,26,26,0,0,0-5.71,5.37c-.34.42-.71.9-1.1,1.42a71.48,71.48,0,0,0-4,6c-.52.87-1.05,1.8-1.58,2.78s-.94,1.74-1.41,2.67a109.88,109.88,0,0,0-7.54,19.24A116.38,116.38,0,0,0,34,137c-.25,1.66-.48,3.37-.67,5.11-.22,2-.39,4.12-.51,6.26s-.2,4.55-.2,6.9c0,12.83,5.5,33.78,13.63,39.58v49.63H81.76V194.8c2.34-5.08,8.93-10.26,8.93-24.57a17.19,17.19,0,0,0-.16-2.22c-.69-5-3.44-11.44-5.94-23.58a203.9,203.9,0,0,1-3.44-24.66c-.17-2-.27-4.07-.32-6.1h0c0-1.88,0-3.75,0-5.58.05-3,.21-6,.43-8.67h0c.16-2.1.35-4.08.55-5.87h0v0c.16-1.43.33-2.74.5-3.91.26-1.89.51-3.42.71-4.48a11.56,11.56,0,0,1,.35-1.66c-3.22,0-6.53-.82-9.93-1.36Z" transform="translate(0)"/><polyline class="cls-2" points="79.43 192.7 94.96 238.39 64.05 248.48 50.1 195.08"/><path class="cls-3" d="M64.05,251a2.44,2.44,0,0,1-1.2-.31,2.52,2.52,0,0,1-1.22-1.56l-14-53.39,4.84-1.27L65.8,245.28l26-8.48L77.07,193.5l4.73-1.61,15.53,45.7a2.47,2.47,0,0,1-.13,1.92,2.52,2.52,0,0,1-1.46,1.26L64.83,250.86A2.64,2.64,0,0,1,64.05,251Z" transform="translate(0)"/><g class="cls-4"><path d="M70.28,238.54l-8.61-39-8-11.8s-11.19-20.59-9.59-35.52,7.56-31.3,7.56-31.3H40.45l-5.2,34.84,3.07,20.74,8.76,14.91L48.74,200l15.31,48.46L68.83,250Z" transform="translate(0)"/></g><path class="cls-2" d="M77.42,108.77l9.37-1.9A10.47,10.47,0,0,1,100,114.6l7.51,43.1a10.48,10.48,0,0,1-7,12.28h0a10.47,10.47,0,0,1-13.15-6.86l-6.17-22.88Z" transform="translate(0)"/><path class="cls-3" d="M97.25,173a13,13,0,0,1-12.36-9.1l-6.27-23.34-4-33.76,11.52-2.33a13,13,0,0,1,16.22,9.61l0,.12,7.5,43A13,13,0,0,1,97.25,173Zm-13.68-33.2,6.12,22.7A8,8,0,0,0,105,158.25l0-.12-7.49-43a8,8,0,0,0-10-5.82l-.21,0-7.12,1.44Z" transform="translate(0)"/><rect class="cls-3" x="84.42" y="96.5" width="5" height="18.21" transform="translate(-35.81 45.22) rotate(-24.35)"/><path class="cls-3" d="M105.31,142.58l-1.75-4.68c.81-.31,20.15-8,20.15-34.39,0-26.54-23.83-37.57-24.85-38l2-4.57c.27.13,27.8,12.76,27.8,42.59S105.55,142.49,105.31,142.58Z" transform="translate(0)"/><path class="cls-3" d="M20.45,133.14l8.2,12.76A15.16,15.16,0,0,1,7.7,141.33c-4.34-6.75-2.14-15.88,4.91-20.41Z" transform="translate(0)"/><path class="cls-3" d="M74.71,87.37l.56.1,2.24.4c-.05.31-.1.64-.14,1-.18,1.23-.35,2.54-.5,3.88a1.85,1.85,0,0,0,0,.23c-.22,2-.41,4-.56,6v.06c-.24,3-.39,6-.44,8.89,0,2,0,3.91,0,5.78v0c.06,2.27.17,4.36.34,6.39a207.89,207.89,0,0,0,3.53,25.26c1.38,6.71,2.82,11.68,4,15.67a59.8,59.8,0,0,1,1.89,7.54,10.93,10.93,0,0,1,.12,1.58c0,9.25-3,13.82-5.73,17.86a35.27,35.27,0,0,0-2.74,4.62,5,5,0,0,0-.16,3.79l15,41.59,4.14,11.44-21,1.5-23.92,1.7V194.8a5,5,0,0,0-2.09-4.07C43,186.3,37.65,167.5,37.65,155.22c0-2.18.07-4.41.2-6.62.11-2,.27-4,.48-6,.17-1.55.38-3.15.65-4.89a111.21,111.21,0,0,1,3.14-14.26,103.44,103.44,0,0,1,7.2-18.37c.44-.88.88-1.72,1.34-2.55s1-1.76,1.49-2.61a63.77,63.77,0,0,1,3.67-5.59c.35-.47.68-.9,1-1.27a21.17,21.17,0,0,1,4.62-4.37A10.91,10.91,0,0,1,62.5,88l8.93.38h.21a5,5,0,0,0,2.88-.91l.19-.14m-1.27-5.29c-.59.46-1.19.91-1.8,1.34L61.47,83a17,17,0,0,0-2.84,1.55,26,26,0,0,0-5.71,5.37c-.34.42-.71.9-1.1,1.42a71.48,71.48,0,0,0-4,6c-.52.87-1.05,1.8-1.58,2.78s-.94,1.74-1.41,2.67a109.88,109.88,0,0,0-7.54,19.24A116.38,116.38,0,0,0,34,137c-.25,1.66-.48,3.37-.67,5.11-.22,2-.39,4.12-.51,6.26s-.2,4.55-.2,6.9c0,12.83,5.5,33.78,13.63,39.58v63.3l5.08-.36h0L75.55,256l27.64-2L96.8,236.39l-15-41.59c2.34-5.08,8.93-10.26,8.93-24.57a17.19,17.19,0,0,0-.16-2.22c-.69-5-3.44-11.44-5.94-23.58a203.9,203.9,0,0,1-3.44-24.66c-.17-2-.27-4.07-.32-6.1h0c0-1.88,0-3.75,0-5.58.05-3,.21-6,.43-8.67h0c.16-2.1.35-4.08.55-5.87h0v0c.16-1.43.33-2.74.5-3.91.26-1.89.51-3.42.71-4.48a11.56,11.56,0,0,1,.35-1.66c-3.22,0-6.53-.82-9.93-1.36Z" transform="translate(0)"/><path class="cls-3" d="M79.89,45.29A10.08,10.08,0,0,1,69.8,55.37a9.92,9.92,0,0,1-3.86-.77,10.07,10.07,0,0,1-3.83-2.8,10.12,10.12,0,0,0,6.58,2.46,10.08,10.08,0,0,0,7.66-16.63A10,10,0,0,1,79.89,45.29Z" transform="translate(0)"/><path class="cls-3" d="M100.41,51.65a48.69,48.69,0,0,1-18.1,37.93A48,48,0,0,1,78,92.68l-.64.41a48.44,48.44,0,0,1-12.28,5.46c-.43.13-.86.24-1.29.35h0c-.79.21-1.55.39-2.35.56a48.89,48.89,0,0,1-8.18,1c-.53,0-1.07,0-1.61,0a50,50,0,0,1-5.37-.29,47.29,47.29,0,0,1-7.19-1.35,47.8,47.8,0,0,1-11.42-4.65A48.91,48.91,0,0,1,7,71.4c0-.08-.07-.17-.11-.26a1.38,1.38,0,0,0,.17.25,46.11,46.11,0,0,0,8.66,9.67h0l.71,0,45,1.9,10.17.43c.61-.43,1.21-.88,1.8-1.34a45.93,45.93,0,0,0-7.18-77A48.8,48.8,0,0,1,100.41,51.65Z" transform="translate(0)"/><path class="cls-3" d="M94,22.15c-.36-.52-.73-1-1.11-1.54s-.88-1.14-1.34-1.7-.92-1.1-1.4-1.64-1.2-1.31-1.82-1.94-1.2-1.18-1.82-1.75-1.39-1.24-2.11-1.83c-.46-.38-.92-.75-1.39-1.11s-1-.71-1.43-1.06a51,51,0,0,0-4.49-2.87l-1.57-.85c-1.05-.55-2.12-1.07-3.22-1.55a46,46,0,0,0-4.58-1.75l-1.18-.37-1.19-.34c-1.19-.34-2.41-.62-3.63-.86L60.47.76,59.24.56,58,.39C56.76.24,55.53.13,54.29.07l-1,0c-.56,0-1.12,0-1.69,0-1.11,0-2.2,0-3.29.11A45.68,45.68,0,0,1,78.94,14.78,45.85,45.85,0,0,1,83,85.1a46.42,46.42,0,0,1-6.75,5.25c-.35.23-.71.45-1.08.67a45.36,45.36,0,0,1-11.12,4.81h0a46.06,46.06,0,0,1-12.4,1.69c-.56,0-1.12,0-1.67,0-.71,0-1.42-.07-2.12-.12a46.86,46.86,0,0,1-5.35-.76A45.73,45.73,0,0,1,18.14,83c-.59-.62-1.15-1.26-1.7-1.92l-.71,0h0a46.11,46.11,0,0,1-8.66-9.67,1.38,1.38,0,0,1-.17-.25c0,.09.07.18.11.26-1,.16-2,.29-2.9.42A51.79,51.79,0,0,0,22.34,94.15c.82.57,1.66,1.12,2.51,1.64l1.31.77q2,1.11,4,2.07a51,51,0,0,0,5.71,2.2h0l.35.11c1.21.37,2.44.71,3.69,1q.63.15,1.26.27c.84.17,1.69.32,2.55.46q.54.09,1.08.15l.35.05,1.25.14c.84.08,1.68.14,2.53.18l1.28,0,1.13,0h.36l1.18,0,.85,0h0l1.25-.07.44,0h0l.21,0,.21,0,.41,0q.68-.06,1.35-.15l.77-.1c.3,0,.63-.06.93-.11,1.25-.19,2.49-.43,3.71-.7a51.24,51.24,0,0,0,16-6.66l.17-.1c.84-.54,1.67-1.1,2.48-1.69h0a51.7,51.7,0,0,0,19.91-29.38,51.55,51.55,0,0,0-7.73-42Z" transform="translate(0)"/><path class="cls-3" d="M91,49A45.8,45.8,0,0,1,73.44,82.08c-.59.46-1.19.91-1.8,1.34L61.47,83l-45-1.9-.71,0h0a46.11,46.11,0,0,1-8.66-9.67L10,70.94h0c16.16-2.56,43.34-7.9,56-16.34a9.92,9.92,0,0,0,3.86.77,10.07,10.07,0,0,0,6.55-17.74,10,10,0,0,0-7.66-3.54,10.31,10.31,0,0,0-3.06.47C51.65,24,28.2,24.44,13.52,26.06h0a13.22,13.22,0,0,0-10.65,8.6A51.66,51.66,0,0,1,48.31.11,45.9,45.9,0,0,1,91,49Z" transform="translate(0)"/><g class="cls-5"><path d="M58.63,84.54l3.86.15a18.32,18.32,0,0,1,5.51,1c-.78.45-1.57.87-2.38,1.27h0a45.37,45.37,0,0,1-13.79,4.32c-.45.07-.91.12-1.38.17A45.9,45.9,0,0,1,18.24,83l-2.51-2h0a46.11,46.11,0,0,1-8.66-9.67,1.38,1.38,0,0,1-.17-.25c0,.09.07.18.11.26-1,.16-2,.29-2.9.42-.5-1.16-.95-2.35-1.36-3.56q-.17-.45-.3-.9L2.32,67c-.25-.79-.47-1.58-.68-2.39S1.18,62.72,1,61.77c-.13-.61-.24-1.22-.33-1.84,0-.15-.06-.3-.08-.44C.48,58.75.38,58,.31,57.25c-.12-1-.2-2.09-.25-3.15,0-.09,0-.19,0-.28A51.64,51.64,0,0,0,22.3,94.15c.83.57,1.68,1.12,2.55,1.64l1.31.77q2,1.13,4,2.07a51,51,0,0,0,5.71,2.2h0a0,0,0,0,1,0,0l.35.11c1.21.38,2.44.72,3.69,1q.63.15,1.26.27c.84.17,1.69.32,2.55.46q.54.09,1.08.15l.35.05,1.25.14c.84.08,1.68.14,2.53.18l1.28,0,1.13,0h.36l1.18,0,.85,0h0l1.25-.07.44,0h.22l.21,0,.41,0q.68-.06,1.35-.15l.77-.1.91-.13h0c1.25-.18,2.49-.42,3.71-.7a50.89,50.89,0,0,0,16-6.66l.18-.11c.85-.54,1.69-1.11,2.5-1.7A51.64,51.64,0,0,0,94,22.15c-.36-.52-.73-1-1.11-1.54s-.88-1.14-1.34-1.7-.92-1.1-1.4-1.64-1.2-1.31-1.82-1.94-1.2-1.18-1.82-1.75-1.39-1.24-2.11-1.83c-.46-.38-.92-.75-1.39-1.11s-1-.71-1.43-1.06a51,51,0,0,0-4.49-2.87l-1.57-.85c-1.05-.55-2.12-1.07-3.22-1.55q-2.24-1-4.58-1.75l-1.18-.37-1.19-.34c-1.19-.33-2.4-.62-3.63-.86L60.47.76,59.24.56,58,.39C56.76.24,55.53.13,54.29.07l-1,0c-.56,0-1.12,0-1.69,0a32.38,32.38,0,0,0-3.29.11,45.89,45.89,0,0,1,25.13,82c-.59.46-1.19.91-1.8,1.34" transform="translate(0)"/></g><path class="cls-3" d="M25.55,261.87H81.77l-19.2-18.1-16.49-.68A20.63,20.63,0,0,0,25.55,261.87Z" transform="translate(0)"/><path class="cls-6" d="M25.42,263.76v7.5H81.77v-9.39H25.55C25.49,262.5,25.45,263.12,25.42,263.76Z" transform="translate(0)"/><path class="cls-3" d="M64.05,251a2.44,2.44,0,0,1-1.2-.31,2.52,2.52,0,0,1-1.22-1.56l-14-53.39,4.84-1.27L65.8,245.28l26-8.48L77.07,193.5l4.73-1.61,15.53,45.7a2.47,2.47,0,0,1-.13,1.92,2.52,2.52,0,0,1-1.46,1.26L64.83,250.86A2.64,2.64,0,0,1,64.05,251Z" transform="translate(0)"/><path class="cls-3" d="M49.75,271.49l53.44-17.44L97.37,236.2,63.45,247.26A20.66,20.66,0,0,0,49.75,271.49Z" transform="translate(0)"/><path class="cls-6" d="M50.21,273.33l2.33,7.13L106.11,263l-2.92-8.94L49.75,271.49C49.89,272.11,50.05,272.71,50.21,273.33Z" transform="translate(0)"/><path class="cls-3" d="M61.67,196.86h-.14l-11.76-.65a2.5,2.5,0,1,1,.28-5l11.76.65a2.5,2.5,0,0,1-.14,5Z" transform="translate(0)"/><rect class="cls-3" x="76.16" y="191.6" width="5" height="6.54" transform="translate(-119.34 124.44) rotate(-48.44)"/><rect class="cls-3" x="67.58" y="142.54" width="31.17" height="5" transform="translate(-50.26 44.29) rotate(-23.11)"/><path class="cls-6" d="M65.94,54.6C53.33,63,26.15,68.38,10,70.94h0l-2.92.45a1.38,1.38,0,0,1-.17-.25c0,.09.07.18.11.26-1,.16-2,.29-2.9.42-.5-1.16-.95-2.35-1.36-3.56q-.17-.45-.3-.9L2.32,67c-.25-.79-.47-1.58-.68-2.39S1.18,62.72,1,61.77c-.13-.61-.24-1.22-.33-1.84,0-.15-.06-.3-.08-.44C.48,58.75.38,58,.31,57.25c-.12-1-.2-2.09-.25-3.15C0,53.28,0,52.46,0,51.63c0-.45,0-.89,0-1.33s0-.92.05-1.37l.06-1c.1-1.32.24-2.62.43-3.91,0-.27.09-.55.13-.83.19-1.14.41-2.26.67-3.37.16-.69.34-1.38.53-2.06.28-1,.6-2,.94-3,0,0,0,0,0-.06a13.22,13.22,0,0,1,10.65-8.6h0C28.2,24.44,51.65,24,65.63,34.56A10.08,10.08,0,0,0,62.11,51.8,10.07,10.07,0,0,0,65.94,54.6Z" transform="translate(0)"/><path class="cls-6" d="M7.06,71.39H7c0-.08-.07-.17-.11-.26A1.38,1.38,0,0,0,7.06,71.39Z" transform="translate(0)"/><path class="cls-6" d="M66.72,54.06l-.78.54a10.07,10.07,0,0,1-3.83-2.8A9.85,9.85,0,0,0,66.72,54.06Z" transform="translate(0)"/><g class="cls-7"><path class="cls-2" d="M17.17,53a2.86,2.86,0,0,1-2.86-2.87A37.32,37.32,0,0,1,51.59,12.85a2.87,2.87,0,1,1,0,5.73A31.59,31.59,0,0,0,20,50.13,2.86,2.86,0,0,1,17.17,53Z" transform="translate(0)"/></g><path class="cls-8" d="M79.89,45.29A10.08,10.08,0,0,1,69.8,55.37a9.92,9.92,0,0,1-3.86-.77,10.07,10.07,0,0,1-3.83-2.8,10.12,10.12,0,0,0,6.58,2.46,10.08,10.08,0,0,0,7.66-16.63A10,10,0,0,1,79.89,45.29Z" transform="translate(0)"/><path class="cls-9" d="M79.89,45.29A10.08,10.08,0,0,1,69.8,55.37a9.92,9.92,0,0,1-3.86-.77,10.07,10.07,0,0,1-3.83-2.8,10.12,10.12,0,0,0,6.58,2.46,10.08,10.08,0,0,0,7.66-16.63A10,10,0,0,1,79.89,45.29Z" transform="translate(0)"/><path class="cls-8" d="M78.77,44.17A10.08,10.08,0,0,1,68.69,54.26a10.12,10.12,0,0,1-6.58-2.46,10.08,10.08,0,0,1,3.52-17.24,10.31,10.31,0,0,1,3.06-.47A10.1,10.1,0,0,1,78.77,44.17Z" transform="translate(0)"/><path class="cls-3" d="M46.59,141.86a2.29,2.29,0,0,1-.52-.05L37.58,140a2.5,2.5,0,0,1,1.05-4.89l8.48,1.82a2.5,2.5,0,0,1-.52,4.94Z" transform="translate(0)"/><rect class="cls-8" x="63.89" y="64.12" width="83.28" height="5" transform="translate(10.89 147.99) rotate(-72.95)"/><path class="cls-2" d="M45.58,153.57a1.17,1.17,0,0,1-1.16-1.13l-1.26-52.35a14.33,14.33,0,0,1,14-14.66l4.68-.11h.35a14.4,14.4,0,0,1,14.3,14l1.27,52.36a1.17,1.17,0,0,1-1.13,1.19Z" transform="translate(0)"/><path class="cls-3" d="M62.15,87.81A11.88,11.88,0,0,1,74,99.34l1.24,51-28.3.68-1.23-51a11.82,11.82,0,0,1,11.52-12.1l4.68-.11h.29m0-5h-.41l-4.68.11a16.82,16.82,0,0,0-16.4,17.22l1.26,52.35a3.66,3.66,0,0,0,3.66,3.57h.09l31-.74a3.67,3.67,0,0,0,3.57-3.75L79,99.22a16.82,16.82,0,0,0-16.8-16.41Z" transform="translate(0)"/><path class="cls-6" d="M52.85,147.6a2.5,2.5,0,0,1-2.49-2.34l-1-16.1a2.5,2.5,0,0,1,5-.31l1,16.1A2.5,2.5,0,0,1,53,147.6Z" transform="translate(0)"/><path class="cls-3" d="M66.28,97.74a1.57,1.57,0,0,0-2.23,1.49l.09,2.43a.35.35,0,0,1-.55.31L60,99.64a1.1,1.1,0,0,0-1.26,0l-3.32,2.55a.36.36,0,0,1-.57-.27l-.09-2.4a1.56,1.56,0,0,0-2.33-1.32,1.53,1.53,0,0,0-.75,1.38l.47,12.69a1.56,1.56,0,0,0,.68,1.27,1.54,1.54,0,0,0,2.4-1.34l-.12-3.14h0l4.08,2.69a1.08,1.08,0,0,0,1.25,0l3.38-2.59a.36.36,0,0,1,.57.27l.08,2.43a1.57,1.57,0,0,0,2.34,1.32,1.53,1.53,0,0,0,.75-1.38l-.47-12.74A1.55,1.55,0,0,0,66.28,97.74Zm-3.85,8.17L59.72,108h0l-2.83-1.88a.34.34,0,0,1,0-.56l2.49-1.91a.33.33,0,0,1,.39,0l2.66,1.75A.35.35,0,0,1,62.43,105.91Z" transform="translate(0)"/><g class="cls-4"><path d="M48,151s12-.52,17.09-2.53c7-2.79,9.69-14.21,9.69-14.21l.4,16.08L48,151Z" transform="translate(0)"/></g><path class="cls-3" d="M58.81,154.47,74,154.29a15.16,15.16,0,0,1-15,15.34c-8,.1-14.6-6.61-14.7-15Z" transform="translate(0)"/><circle class="cls-10" cx="117.18" cy="28.61" r="8.33"/><circle class="cls-3" cx="117.18" cy="28.61" r="6"/></g></g></svg>