<svg xmlns="http://www.w3.org/2000/svg" viewBox="0 0 169.71 278.12"><defs><style>.cls-1{fill:#2285c3;}.cls-2{fill:#fff;}.cls-3{fill:#f1f1f2;}.cls-4{fill:#1d70a3;}.cls-5{fill:#f8db72;}.cls-6{opacity:0.1;}.cls-7{opacity:0.5;}.cls-8{opacity:0.11;}</style></defs><title>Asset 5</title><g id="Layer_2" data-name="Layer 2"><g id="Layer_1-2" data-name="Layer 1"><path class="cls-1" d="M129.88,156.19v23.9a23.91,23.91,0,0,0,23.91-23.9Z"/><path class="cls-1" d="M15.87,156.1h0c0,13.25,10.49,24,23.43,24h0v-24"/><path class="cls-2" d="M40.19,131.5l-2,27.16H19.76A17.26,17.26,0,0,1,2.57,139.84l5.28-38.69a22.81,22.81,0,0,1,19.5-19.51L83.19,74l59.05,7.74a22.8,22.8,0,0,1,19.63,19.52l5.27,38.59A17.26,17.26,0,0,1,150,158.66H131.52l-2-27.16"/><path class="cls-1" d="M150,161.16H129.19L127,131.68l5-.37,1.83,24.85H150a14.76,14.76,0,0,0,14.7-16l-5.26-38.53a20.34,20.34,0,0,0-17.47-17.38L83.2,76.52l-55.52,7.6a20.35,20.35,0,0,0-17.35,17.37L5.06,140.12a14.76,14.76,0,0,0,14.7,16H35.87l1.83-24.85,5,.37-2.17,29.48H19.76A19.77,19.77,0,0,1,.08,139.61v-.11l5.28-38.69A25.37,25.37,0,0,1,27,79.17l56.17-7.7,59.39,7.78a25.36,25.36,0,0,1,21.78,21.67l5.28,38.69A19.77,19.77,0,0,1,150,161.16Z"/><path class="cls-2" d="M40.16,130.66,37.4,183l-3.3,31.87.13,34.25a3.09,3.09,0,0,0,3.46,3.13L79.49,248l-.63-22.18,3.54-29.91c-2-.51-1.52-.9-1-.9h6.86c.51,0,.94.39-1,.9L90.8,225.8,90.16,248,132,252.23a3.1,3.1,0,0,0,3.46-3.13l.48-34.25L132.25,183l-2.76-52.32"/><path class="cls-1" d="M37.31,254.76a5.6,5.6,0,0,1-5.58-5.7l-.13-34.34,3.31-31.94,2.76-52.25a2.5,2.5,0,1,1,5,.26l-2.77,52.45L36.6,215l.13,34.12a.59.59,0,0,0,.66.66l39.54-4-.58-20,0-.18,3.33-28.07a2.54,2.54,0,0,1-1.21-2.58,2.77,2.77,0,0,1,2.91-2.36h6.86a2.78,2.78,0,0,1,2.91,2.36A2.55,2.55,0,0,1,90,197.43l3.35,28.25-.57,20,39.49,4a.62.62,0,0,0,.51-.15.6.6,0,0,0,.2-.45l.48-34.18-3.66-31.86L127,130.79a2.5,2.5,0,1,1,5-.26l2.75,52.24,3.67,31.95v.16l-.48,34.26a5.56,5.56,0,0,1-1.84,4.17,5.63,5.63,0,0,1-4.42,1.41l-44.08-4.48.7-24.33-3.36-28.42h-.2l-3.37,28.42.7,24.33-44.12,4.48C37.73,254.74,37.52,254.76,37.31,254.76Z"/><path class="cls-1" d="M56.83,134.16a2.5,2.5,0,0,1-.27-5l9.34-1a2.5,2.5,0,1,1,.53,5l-9.33,1Z"/><path class="cls-1" d="M112.83,135.16a2.39,2.39,0,0,1-.53-.06l-9.33-2a2.5,2.5,0,0,1,1-4.89l9.33,2a2.5,2.5,0,0,1-.52,4.95Z"/><path class="cls-1" d="M97.72,116.63a2.84,2.84,0,0,0-4.14,2.55v4.42a.64.64,0,0,1-1,.52l-6.3-4.46a2,2,0,0,0-2.28,0l-6.2,4.41a.64.64,0,0,1-1-.52v-4.37a2.84,2.84,0,0,0-4.15-2.55,2.81,2.81,0,0,0-1.45,2.45v23.06a2.88,2.88,0,0,0,1.16,2.35,2.8,2.8,0,0,0,4.44-2.27v-5.74L84,141.64a2,2,0,0,0,2.28,0l6.3-4.46a.64.64,0,0,1,1,.52v4.41a2.84,2.84,0,0,0,4.14,2.55,2.81,2.81,0,0,0,1.45-2.45V119.08A2.81,2.81,0,0,0,97.72,116.63Zm-7.54,14.55-5.05,3.57h0l-5-3.61a.63.63,0,0,1,0-1l4.65-3.31a.63.63,0,0,1,.72,0l4.69,3.35A.62.62,0,0,1,90.18,131.18Z"/><path class="cls-3" d="M16.81,111a2.5,2.5,0,0,1-2.5-2.5c0-9.88,8.61-17.91,19.19-17.91a2.5,2.5,0,0,1,0,5c-7.83,0-14.19,5.79-14.19,12.91A2.5,2.5,0,0,1,16.81,111Z"/><path class="cls-4" d="M135.87,41.35h5.34a0,0,0,0,1,0,0v18a0,0,0,0,1,0,0h-5.34a3.66,3.66,0,0,1-3.66-3.66V45A3.66,3.66,0,0,1,135.87,41.35Z" transform="translate(273.42 100.69) rotate(180)"/><path class="cls-4" d="M32.69,41.35H38a0,0,0,0,1,0,0v18a0,0,0,0,1,0,0H32.69A3.66,3.66,0,0,1,29,55.69V45A3.66,3.66,0,0,1,32.69,41.35Z"/><path class="cls-4" d="M84.85,2c-27.64,0-50,23-50,51.33s22.41,51.33,50.05,51.33,50.06-23,50.06-51.33S112.5,2,84.85,2Z"/><path class="cls-1" d="M84.85,0a51.33,51.33,0,1,0,51.33,51.33A51.33,51.33,0,0,0,84.85,0Z"/><path class="cls-5" d="M128.67,63.71a45.51,45.51,0,0,0-.16-25c-10.24-8.3-26-13.62-43.66-13.62S51.44,30.42,41.2,38.72a45.51,45.51,0,0,0-.16,25c11.21,8.4,26.7,13.6,43.81,13.6S117.46,72.11,128.67,63.71Z"/><g class="cls-6"><path d="M128.67,62.34C117.46,69.82,102,74.45,84.85,74.45S52.25,69.82,41,62.34a36.31,36.31,0,0,1-1.67-10.86v0A45.43,45.43,0,0,0,41,63.71c11.21,8.4,26.7,13.6,43.81,13.6s32.61-5.2,43.82-13.6a45.43,45.43,0,0,0,1.67-12.2v0A36.31,36.31,0,0,1,128.67,62.34Z"/><path d="M84.85,28c17.68,0,33.42,4.74,43.66,12.13a36.38,36.38,0,0,1,1.83,11.11,45.47,45.47,0,0,0-1.83-12.48c-10.24-8.3-26-13.62-43.66-13.62S51.44,30.42,41.2,38.72A45.47,45.47,0,0,0,39.37,51.2,36.38,36.38,0,0,1,41.2,40.09C51.44,32.7,67.18,28,84.85,28Z"/><path d="M39.37,51.47h0v0Z"/><path d="M130.34,51.47v0Z"/></g><path class="cls-2" d="M116.76,60.63a2.86,2.86,0,1,1-5.33-2.1,31.48,31.48,0,0,0-2.05-27.3,72.44,72.44,0,0,1,7.54,2.57A37.13,37.13,0,0,1,116.76,60.63Z"/><g class="cls-7"><path class="cls-2" d="M116.92,33.8a72.44,72.44,0,0,0-7.54-2.57,27.49,27.49,0,0,0-2-3.05,64.25,64.25,0,0,1,8.42,3C116.22,32,116.59,32.91,116.92,33.8Z"/></g><path class="cls-1" d="M129.46,249.33l-36.15-1.44A3.26,3.26,0,0,0,89.89,251l-.7,15.37L149,268.9A20.54,20.54,0,0,0,129.46,249.33Z"/><path class="cls-5" d="M149,268.9l-59.85-2.52-.31,6.89a2.44,2.44,0,0,0,2.33,2.55l55.07,2.3a2.44,2.44,0,0,0,2.54-2.33l.23-5C149.08,270.14,149.07,269.52,149,268.9Z"/><path class="cls-1" d="M80.42,251A3.28,3.28,0,0,0,77,247.88l-36.15,1.45A20.54,20.54,0,0,0,21.27,268.9l59.84-2.52Z"/><path class="cls-5" d="M21.27,268.9c0,.62,0,1.25,0,1.88l.23,5A2.44,2.44,0,0,0,24,278.12l55.07-2.3a2.45,2.45,0,0,0,2.33-2.55l-.32-6.89Z"/><g class="cls-8"><path d="M46.45,51A61.12,61.12,0,0,1,71.23,1.81a51.33,51.33,0,0,0,1.34,99.34A61.12,61.12,0,0,1,46.45,51Z"/></g><path class="cls-1" d="M84.83,196.94a25.16,25.16,0,0,1-11.17-2.63L73.1,194a2.5,2.5,0,0,1,2.24-4.47l.56.28a20.28,20.28,0,0,0,17.85,0l.56-.28A2.5,2.5,0,1,1,96.55,194l-.56.28A25,25,0,0,1,84.83,196.94Z"/><path class="cls-1" d="M106.26,54.92c0,6.14-3.31-1.89-7.38-1.89s-7.38,8-7.38,1.89,3.3-11.1,7.38-11.1S106.26,48.79,106.26,54.92Z"/><path class="cls-1" d="M76.52,54.92c0,6.14-3.3-1.89-7.38-1.89s-7.37,8-7.37,1.89,3.3-11.1,7.37-11.1S76.52,48.79,76.52,54.92Z"/></g></g></svg>