<svg xmlns="http://www.w3.org/2000/svg" xmlns:xlink="http://www.w3.org/1999/xlink" viewBox="0 0 411.86 182.12"><defs><style>.cls-1{fill:none;}.cls-2{fill:#1a1a1a;opacity:0.13;}.cls-3{opacity:0.1;}.cls-4{fill:#e39854;}.cls-5{fill:#f8db72;}.cls-6{fill:#2285c3;}.cls-7{fill:#2b79ac;}.cls-8{fill:#fff;}.cls-9{opacity:0.17;}.cls-10{opacity:0.17;}.cls-11{clip-path:url(#clip-path);}.cls-12{fill:#246589;}.cls-13{opacity:0.05;}</style><clipPath id="clip-path"><path class="cls-1" d="M220.34,13.41c-14.07,3.46-36.47,11.27-43.65,26.9-10,21.83,37.89,14.75,60.69,10.28,2-.39,3.74-.76,5.28-1.09a47,47,0,0,0-10.5-32,11.93,11.93,0,0,0-11.82-4.05Z"/></clipPath></defs><title>Asset 4</title><g id="Layer_2" data-name="Layer 2"><g id="Layer_1-2" data-name="Layer 1"><ellipse class="cls-2" cx="205.93" cy="145.63" rx="205.93" ry="36.49"/><g class="cls-3"><ellipse cx="146.26" cy="156.44" rx="84.92" ry="20.49"/></g><ellipse class="cls-4" cx="146.26" cy="150.12" rx="72.76" ry="17.89"/><ellipse class="cls-5" cx="146.26" cy="145.42" rx="72.76" ry="17.89"/><path class="cls-6" d="M146.26,129c36.86,0,66.74,7.34,66.74,16.41s-29.88,16.4-66.74,16.4-66.75-7.34-66.75-16.4S109.4,129,146.26,129m-39.6,17.91,26.41-4v-10.1L106.66,137v9.95M133.07,158v-7.45l3.3-.5,19.78-3,3.3-.49,26.41-3.92V137l-3.57-.56-22.84-3.57v6.83l-3.3.5-19.78,3.08-3.3.5-26.41,4v6.19L133.07,158m26.38,0,26.41-4.06V143.39l-26.41,3.92V158"/><ellipse class="cls-4" cx="146.26" cy="142.69" rx="72.76" ry="17.89"/><ellipse class="cls-5" cx="146.26" cy="137.98" rx="72.76" ry="17.89"/><path class="cls-6" d="M146.26,121.57c36.86,0,66.74,7.35,66.74,16.41s-29.88,16.41-66.74,16.41S79.51,147,79.51,138s29.89-16.41,66.75-16.41m-39.6,17.91,26.41-4V125.4l-26.41,4.13v9.95m26.41,11.08V143.1l3.3-.49,19.78-3,3.3-.49,26.41-3.92v-5.63l-3.57-.56-22.84-3.57v6.84l-3.3.49-19.78,3.08-3.3.5-26.41,4v6.19l26.41,4.06m26.38,0,26.41-4.06V136l-26.41,3.92v10.67"/><ellipse class="cls-4" cx="146.26" cy="135.25" rx="72.76" ry="17.89"/><ellipse class="cls-5" cx="146.26" cy="130.54" rx="72.76" ry="17.89"/><path class="cls-6" d="M146.26,114.13c36.86,0,66.74,7.35,66.74,16.41S183.12,147,146.26,147s-66.75-7.35-66.75-16.41,29.89-16.41,66.75-16.41M106.66,132l26.41-4V118l-26.41,4.13V132m26.41,11.08v-7.46l3.3-.49,19.78-3,3.3-.49,26.41-3.92v-5.63l-3.57-.55L159.45,118v6.84l-3.3.5-19.78,3.08-3.3.5-26.41,4v6.18l26.41,4.06m26.38,0L185.86,139V128.51l-26.41,3.92V143.1"/><ellipse class="cls-4" cx="146.26" cy="127.82" rx="72.76" ry="17.89"/><ellipse class="cls-5" cx="146.26" cy="123.11" rx="72.76" ry="17.89"/><path class="cls-6" d="M146.26,106.7c36.86,0,66.74,7.34,66.74,16.41s-29.88,16.4-66.74,16.4-66.75-7.34-66.75-16.4,29.89-16.41,66.75-16.41m-39.6,17.91,26.41-4v-10.1l-26.41,4.13v10m26.41,11.07v-7.45l3.3-.49,19.78-3,3.3-.49,26.41-3.92v-5.62l-3.57-.56-22.84-3.57v6.83l-3.3.5L136.37,121l-3.3.5-26.41,4v6.19l26.41,4.05m26.38,0,26.41-4.06V121.08L159.45,125v10.67"/><ellipse class="cls-4" cx="146.26" cy="120.38" rx="72.76" ry="17.89"/><ellipse class="cls-5" cx="146.26" cy="115.67" rx="72.76" ry="17.89"/><path class="cls-6" d="M146.26,99.26c36.86,0,66.74,7.35,66.74,16.41s-29.88,16.41-66.74,16.41-66.75-7.35-66.75-16.41,29.89-16.41,66.75-16.41m-39.6,17.91,26.41-4v-10.1l-26.41,4.13v10m26.41,11.08v-7.46l3.3-.49,19.78-3,3.3-.49,26.41-3.92v-5.63l-3.57-.56-22.84-3.57V110l-3.3.49-19.78,3.08-3.3.5-26.41,4v6.19l26.41,4.06m26.38,0,26.41-4.06V113.64l-26.41,3.92v10.67"/><ellipse class="cls-4" cx="146.26" cy="112.94" rx="72.76" ry="17.89"/><ellipse class="cls-5" cx="146.26" cy="108.23" rx="72.76" ry="17.89"/><path class="cls-6" d="M146.26,91.82c36.86,0,66.74,7.35,66.74,16.41s-29.88,16.41-66.74,16.41-66.75-7.35-66.75-16.41,29.89-16.41,66.75-16.41m-39.6,17.91,26.41-4V95.65l-26.41,4.13v10m26.41,11.08v-7.46l3.3-.49,19.78-3,3.3-.49,26.41-3.92V99.8l-3.57-.55-22.84-3.58v6.84l-3.3.5-19.78,3.08-3.3.5-26.41,4v6.18l26.41,4.06m26.38,0,26.41-4.06V106.2l-26.41,3.92v10.67"/><ellipse class="cls-4" cx="146.26" cy="105.51" rx="72.76" ry="17.89"/><ellipse class="cls-5" cx="146.26" cy="100.8" rx="72.76" ry="17.89"/><path class="cls-6" d="M146.26,84.39c36.86,0,66.74,7.34,66.74,16.41s-29.88,16.4-66.74,16.4-66.75-7.34-66.75-16.4,29.89-16.41,66.75-16.41m-39.6,17.91,26.41-4V88.22l-26.41,4.13v10m26.41,11.08v-7.46l3.3-.49,19.78-3,3.3-.49L185.86,98V92.37l-3.57-.56-22.84-3.57v6.83l-3.3.5-19.78,3.08-3.3.5-26.41,4v6.19l26.41,4.06m26.38,0,26.41-4.06V98.77l-26.41,3.92v10.67"/><ellipse class="cls-4" cx="146.26" cy="98.07" rx="72.76" ry="17.89"/><ellipse class="cls-5" cx="146.26" cy="93.36" rx="72.76" ry="17.89"/><path class="cls-6" d="M146.26,77C183.12,77,213,84.3,213,93.36s-29.88,16.41-66.74,16.41-66.75-7.35-66.75-16.41S109.4,77,146.26,77m-39.6,17.91,26.41-4V80.78l-26.41,4.13v10m26.41,11.08V98.48l3.3-.49,19.78-3,3.3-.49,26.41-3.92V84.93l-3.57-.56L159.45,80.8v6.84l-3.3.49-19.78,3.08-3.3.5-26.41,4v6.19l26.41,4.06m26.38,0,26.41-4.06V91.33l-26.41,3.92v10.67"/><path class="cls-7" d="M136,80.77h0a8.06,8.06,0,0,1,0-16.12h0A8,8,0,0,1,141.7,67,8.05,8.05,0,0,1,136,80.77Zm0-15.12a7,7,0,0,0-5,2,7.07,7.07,0,0,0,0,10h0a7.06,7.06,0,0,0,5,2.08,7,7,0,0,0,5-2,7.07,7.07,0,0,0,0-10,7,7,0,0,0-5-2.08Z"/><circle class="cls-6" cx="135.98" cy="72.71" r="5.45"/><path class="cls-8" d="M213.8,103.2l-4.41,2.38a9.45,9.45,0,0,0-3.52,13.35l22.64,32.42a9.47,9.47,0,0,0,12.34,3.39h0A9.47,9.47,0,0,0,244.92,142l-16.09-24.62Z"/><path class="cls-6" d="M236.49,158.3a11.87,11.87,0,0,1-10.06-5.57l-22.68-32.47a12,12,0,0,1,4.45-16.88l6-3.23,16.56,15.57,16.38,25.09a12,12,0,0,1-10.65,17.49ZM208,117.55,230.63,150a7,7,0,0,0,12.12-6.8L226.9,119l-13.5-12.69-2.82,1.52a6.94,6.94,0,0,0-2.62,9.77Z"/><path class="cls-8" d="M222.92,103.94a14.78,14.78,0,0,1-14.37-11.63l0-.2a14.72,14.72,0,0,1,11.3-17.47l43.59-9.35a1.84,1.84,0,0,1,.33,0,1.56,1.56,0,0,1,1.51,1.23l5.56,25.92a1.56,1.56,0,0,1-1.19,1.85L226,103.61A14.78,14.78,0,0,1,222.92,103.94Z"/><path class="cls-6" d="M263,67.94,268.16,92l-42.66,9.16a12.56,12.56,0,0,1-2.58.27A12.27,12.27,0,0,1,211,91.79l0-.2a12.22,12.22,0,0,1,9.38-14.5L263,67.94m.73-5.18a4.19,4.19,0,0,0-.86.09L219.28,72.2a17.22,17.22,0,0,0-13.22,20.44l0,.19a17.17,17.17,0,0,0,20.44,13.22l43.59-9.35a4.05,4.05,0,0,0,3.12-4.81L267.69,66a4.06,4.06,0,0,0-4-3.2Z"/><path class="cls-8" d="M219.38,72.18c-15.59-1.69-17.62,9.27-23.64,15.25a129.1,129.1,0,0,1,24.57,21.88c19,22.61,21,33.42,26,38.44l.27.27a22.15,22.15,0,0,0,31.13-.16l12.73-12.65c1.51-8.9-8.3-25.84-16.48-34.07C252.2,79.2,228,73.11,219.38,72.18Z"/><path class="cls-6" d="M262,156.81a24.38,24.38,0,0,1-17.19-7l-.29-.3c-2.08-2.09-3.6-4.87-5.71-8.73a163.77,163.77,0,0,0-20.46-29.85,128.89,128.89,0,0,0-23.81-21.28,2.5,2.5,0,0,0,2.92-.43L194,85.67l.08-.08a36.41,36.41,0,0,0,3.68-4.73c3.9-5.61,8.75-12.59,21.92-11.17h0c3,.33,30.56,4,56.12,29.69,8.32,8.37,18.87,26.21,17.16,36.25l-.13.79-13.3,13.21A24.75,24.75,0,0,1,262,156.81ZM199.5,86.94c1.62,1.15,3.74,2.78,6.34,4.9a127.23,127.23,0,0,1,16.38,15.86,168.68,168.68,0,0,1,21,30.67c1.91,3.5,3.29,6,4.87,7.61l.26.26a19.67,19.67,0,0,0,27.61-.16l12.12-12c.63-7.83-7.94-23.14-15.88-31.14C252.45,83,229.53,75.79,219.11,74.66h0c-10.21-1.1-13.49,3.6-17.28,9C201.09,84.79,200.32,85.89,199.5,86.94Zm91,48.27h0Z"/><circle class="cls-5" cx="195.84" cy="46.82" r="44.1"/><path class="cls-5" d="M172.94,23.78a31.11,31.11,0,0,0-.15,44Z"/><path class="cls-8" d="M174.62,69.62a2.58,2.58,0,0,1-3.66,0,33.74,33.74,0,0,1,.15-47.67,2.59,2.59,0,1,1,3.65,3.68A28.57,28.57,0,0,0,174.63,66,2.58,2.58,0,0,1,174.62,69.62Z"/><path class="cls-6" d="M166.59,17.38A41.49,41.49,0,1,1,166.4,76a41.48,41.48,0,0,1,.19-58.66Zm-3.66-3.68a46.67,46.67,0,1,0,66,.21A46.67,46.67,0,0,0,162.93,13.7Z"/><g class="cls-9"><path d="M227.36,12.4A46.67,46.67,0,1,1,164,80.94a41.48,41.48,0,1,0-3.25-65.21c.63-.77,1.31-1.44,2-2.18A46.68,46.68,0,0,1,227.36,12.4Z"/></g><path class="cls-6" d="M166.59,17.38A41.49,41.49,0,1,1,166.4,76a41.48,41.48,0,0,1,.19-58.66Zm-3.66-3.68a46.67,46.67,0,1,0,66,.21A46.67,46.67,0,0,0,162.93,13.7Z"/><circle class="cls-6" cx="195.83" cy="47.13" r="44.31"/><path class="cls-6" d="M181.5,8a41.68,41.68,0,1,1-24.81,53.47A41.69,41.69,0,0,1,181.5,8Zm-1.79-4.89A46.89,46.89,0,1,0,239.86,31,46.89,46.89,0,0,0,179.71,3.08Z"/><g class="cls-10"><path d="M234.1,63.46a41.68,41.68,0,0,1-41.59,17.86l-3.83-.85a41.68,41.68,0,0,1-6.11-78.33c-1,.25-1.86.58-2.84.93a46.89,46.89,0,1,0,60.8,29.8A41.64,41.64,0,0,1,235.64,61h0"/></g><path class="cls-5" d="M220.34,13.41c-14.07,3.46-36.47,11.27-43.65,26.9-10,21.83,37.89,14.75,60.69,10.28,2-.39,3.74-.76,5.28-1.09a47,47,0,0,0-10.5-32,11.93,11.93,0,0,0-11.82-4.05Z"/><g class="cls-11"><path class="cls-8" d="M225.64,37.53a2.6,2.6,0,0,0,1.55-3.34A33.9,33.9,0,0,0,183.75,14a2.6,2.6,0,0,0,1.79,4.89A28.69,28.69,0,0,1,222.3,36,2.61,2.61,0,0,0,225.64,37.53Z"/></g><circle class="cls-7" cx="178.34" cy="47.38" r="9.16"/><circle class="cls-12" cx="178.34" cy="47.38" r="9.16"/><circle class="cls-7" cx="178.94" cy="46.08" r="9.16"/><rect class="cls-7" x="168.2" y="53.46" width="5" height="75.64" transform="translate(9.69 198.74) rotate(-61.86)"/><polyline class="cls-8" points="260.6 153.07 302.49 153.25 302.42 123.86 261.05 125.33"/><path class="cls-6" d="M305,155.76l-44.41-.19a2.5,2.5,0,0,1,0-5h0l39.38.17-.06-24.29-38.79,1.38a2.5,2.5,0,1,1-.18-5l44-1.57Z"/><path class="cls-6" d="M318.14,105.07l.12,50.82-17,.05-.08-32.26A18.68,18.68,0,0,1,318.14,105.07Z"/><path class="cls-5" d="M319.85,105l6.78,0,.13,50.93-8.5,0-.12-50.82C318.71,105,319.27,105,319.85,105Z"/><line class="cls-8" x1="222.94" y1="132.95" x2="249.12" y2="122.54"/><rect class="cls-6" x="221.94" y="125.25" width="28.18" height="5" transform="translate(-30.51 96.32) rotate(-21.7)"/><rect class="cls-6" x="206" y="96.62" width="5" height="16.46" transform="translate(-23.5 79.53) rotate(-20.47)"/><path class="cls-6" d="M208.1,142.68c-7.69,0-18-2.42-27.9-12.38-19.12-19.24-9.76-44.23-9.36-45.28l4.67,1.8-2.33-.9,2.33.9c-.36.93-8.56,23.05,8.24,40s33.85,9.47,34.57,9.15l2.05,4.57A33.41,33.41,0,0,1,208.1,142.68Z"/><path class="cls-6" d="M267.75,79.21l2.87,13.4a13.7,13.7,0,0,0,10.53-16.27c-1.52-7.09-8.75-11.55-16.15-10Z"/><path class="cls-6" d="M178.9,63l8-11.12A13.7,13.7,0,0,0,167.78,55c-4.24,5.88-2.7,14.24,3.45,18.66Z"/><path class="cls-8" d="M218.46,105.63a14.58,14.58,0,0,1-8.58-2.78L173.71,76.78a1.54,1.54,0,0,1-.35-2.17l15.5-21.51a1.55,1.55,0,0,1,1.26-.64,1.56,1.56,0,0,1,.91.29L227.2,78.81a14.74,14.74,0,0,1,3.33,20.54l-.12.17A14.76,14.76,0,0,1,218.46,105.63Z"/><path class="cls-6" d="M190.33,55.33l35.41,25.51a12.21,12.21,0,0,1,2.76,17l-.11.16a12.26,12.26,0,0,1-9.93,5.08,12.11,12.11,0,0,1-7.12-2.31l-35.4-25.51,14.39-20M190.12,50a4,4,0,0,0-3.29,1.68l-15.5,21.51a4.05,4.05,0,0,0,.92,5.66l36.16,26.07a17.21,17.21,0,0,0,24-3.9l.12-.17a17.2,17.2,0,0,0-3.9-24L192.49,50.72a4,4,0,0,0-2.37-.76Z"/><line class="cls-8" x1="184.48" y1="72.45" x2="196.58" y2="81.19"/><path class="cls-5" d="M196.58,83.69a2.52,2.52,0,0,1-1.47-.47L183,74.48A2.5,2.5,0,0,1,186,70.42L198,79.17a2.5,2.5,0,0,1-1.46,4.52Z"/><path class="cls-6" d="M222.2,86l-9.4-6.66a1.38,1.38,0,0,0-1.41-.12,1.42,1.42,0,0,0-.16,2.42L213,82.9a.32.32,0,0,1-.07.56l-3.63,1.27a1,1,0,0,0-.66.93l0,4.42h0l-2.32-1.65a1.4,1.4,0,0,0-2.2,1.15,1.45,1.45,0,0,0,.62,1.15l9.37,6.64a1.4,1.4,0,0,0,1.41.12,1.42,1.42,0,0,0,.16-2.42l-1.77-1.26a.32.32,0,0,1,.08-.56L217.59,92a1,1,0,0,0,.66-.92V87.22a.32.32,0,0,1,.5-.25l1.8,1.27a1.42,1.42,0,0,0,2.23-.95A1.4,1.4,0,0,0,222.2,86Zm-7.09.46v2.87a.31.31,0,0,1-.21.29l-2.68.94a.31.31,0,0,1-.41-.29l0-3.08h0l2.91-1A.31.31,0,0,1,215.11,86.45Z"/><g class="cls-13"><path d="M300.15,126.2s-1,10.68-2.58,15.37c-2.14,6.5-11.65,9.36-11.65,9.36l14.34.08-.09-22.69Z"/></g><g class="cls-13"><path d="M284.88,120.82l-19.17.64a3.57,3.57,0,0,0-1-3.6,2.78,2.78,0,0,0-3.3-.73,4,4,0,0,0-1.95,1.92c-.66,1.3-.89,2.6.46,3.66a4.72,4.72,0,0,0,4.35.47l20.62-.78Z"/></g><path class="cls-6" d="M259.91,131.09a2.36,2.36,0,0,1-.82-.14,2.51,2.51,0,0,1-1.54-3.18l1.14-3.26,1.4-4.44a2.5,2.5,0,1,1,4.77,1.5l-1.42,4.52-1.17,3.32A2.5,2.5,0,0,1,259.91,131.09Z"/><g class="cls-13"><path d="M233.48,99.53s2,11.5,1.62,16.26a65.93,65.93,0,0,0,0,9.58l-12.5-16.16Z"/></g></g></g></svg>