<svg xmlns="http://www.w3.org/2000/svg" xmlns:xlink="http://www.w3.org/1999/xlink" viewBox="0 0 212.92 259.99"><defs><style>.cls-1,.cls-11,.cls-12,.cls-2{fill:none;}.cls-2,.cls-3{stroke:#2285c3;}.cls-11,.cls-12,.cls-2,.cls-3{stroke-miterlimit:10;}.cls-11,.cls-2,.cls-3{stroke-width:5px;}.cls-3,.cls-4{fill:#fff;}.cls-5{fill:#2285c3;}.cls-6{opacity:0.17;}.cls-7{fill:#f8db72;}.cls-8{clip-path:url(#clip-path);}.cls-9{fill:#2b79ac;}.cls-10{fill:#246589;}.cls-11,.cls-12{stroke:#2b79ac;}</style><clipPath id="clip-path"><path class="cls-1" d="M112.14,49.45c-14.29-1.57-37.79-1.93-49.79,10.17-16.75,16.9,30.24,26.63,53,30.23,2,.31,3.75.57,5.29.79a46.63,46.63,0,0,0,1.14-33.39,11.81,11.81,0,0,0-9.61-7.8Z"/></clipPath></defs><title>Asset 2</title><g id="Layer_2" data-name="Layer 2"><g id="Layer_1-2" data-name="Layer 1"><path class="cls-2" d="M35.21,82.66S11.56,93.22,11.56,118.88s19.57,33,19.57,33"/><path class="cls-3" d="M51.75,123.31,47,121.9a9.41,9.41,0,0,0-11.84,6.95l-6.75,38.73a9.41,9.41,0,0,0,6.33,11h0a9.39,9.39,0,0,0,11.82-6.16l5.91-28.64Z"/><path class="cls-4" d="M98.2,156.33a1.54,1.54,0,0,1-.83-.24L60.18,132.21a14.71,14.71,0,1,1,15.9-24.76l37.19,23.88a1.55,1.55,0,0,1,.46,2.15L99.52,155.62A1.55,1.55,0,0,1,98.2,156.33Z"/><path class="cls-5" d="M68.15,102.61v5a12.16,12.16,0,0,1,6.58,1.94l36.39,23.37-13.2,20.55L61.53,130.1a12.21,12.21,0,0,1,6.62-22.49v-5m0,0a17.19,17.19,0,0,0-14.49,7.92h0a17.21,17.21,0,0,0,5.18,23.78L96,158.19a4,4,0,0,0,2.18.64,4,4,0,0,0,3.42-1.86l14.22-22.14a4.05,4.05,0,0,0-1.22-5.6L77.43,105.34a17.21,17.21,0,0,0-9.29-2.73Z"/><path class="cls-3" d="M77.43,105.34c-9.82-12.11-18.92-5.8-27.37-5.8a127,127,0,0,1,2,32.64c-2.44,29.26-8.58,38.31-8.58,45.35v.38a22,22,0,0,0,22.07,21.7H83.4c7.3-5.22,12.25-24,12.25-35.57C95.65,133.29,82.84,112,77.43,105.34Z"/><path class="cls-5" d="M52.4,66.76a9.08,9.08,0,0,0,9.08,9.08,8.92,8.92,0,0,0,3.47-.7,9,9,0,0,0,3.45-2.52,8.87,8.87,0,0,1-4.15,2,9.4,9.4,0,0,1-1.77.18,9.07,9.07,0,0,1-6.89-15A9,9,0,0,0,52.4,66.76Z"/><path class="cls-5" d="M33.93,72.49a43.81,43.81,0,0,0,16.29,34.13,41.87,41.87,0,0,0,3.85,2.79l.58.37A43.6,43.6,0,0,0,65.7,114.7l1.16.31h0c.71.19,1.39.35,2.11.51a44.58,44.58,0,0,0,7.36.85c.48,0,1,0,1.45,0a45.44,45.44,0,0,0,4.84-.26,44.33,44.33,0,0,0,16.75-5.4,44.3,44.3,0,0,0,12.17-10.16A43.84,43.84,0,0,0,118,90.26c0-.07.06-.15.1-.23a1.7,1.7,0,0,1-.15.22,41.49,41.49,0,0,1-7.8,8.71h0l-.64,0L69,100.69l-9.16.39c-.54-.39-1.08-.79-1.62-1.21a41.32,41.32,0,0,1,6.47-69.28A43.93,43.93,0,0,0,33.93,72.49Z"/><path class="cls-5" d="M31.37,72.47a46,46,0,0,0,1.38,11.27,46.51,46.51,0,0,0,17.92,26.44h0c.73.53,1.48,1,2.23,1.52l.16.09a45.92,45.92,0,0,0,14.42,6c1.1.25,2.22.46,3.34.63.27,0,.57.07.84.1s.46.07.69.09c.41.06.81.1,1.22.14l.37,0h.18l.19,0h0l.4,0,1.12.06h.05l.76,0,1.07,0h.32l1,0,1.15,0c.76,0,1.52-.09,2.28-.16l1.12-.12.32,0,1-.13c.77-.13,1.54-.27,2.29-.42q.57-.1,1.14-.24c1.12-.26,2.23-.57,3.32-.9l.31-.1h0a44.76,44.76,0,0,0,5.14-2c1.24-.58,2.46-1.2,3.64-1.86l1.18-.7c.76-.46,1.52-1,2.25-1.47a46.69,46.69,0,0,0,16.42-20.1c-.81-.12-1.68-.23-2.61-.38,0-.07.06-.15.1-.23a1.7,1.7,0,0,1-.15.22,41.49,41.49,0,0,1-7.8,8.71h0l-.64,0c-.49.6-1,1.17-1.53,1.73A41.08,41.08,0,0,1,86.06,113a42.37,42.37,0,0,1-4.82.69c-.63,0-1.26.08-1.9.1s-1,0-1.51,0a41.47,41.47,0,0,1-11.16-1.52h0a40.81,40.81,0,0,1-10-4.33l-1-.6a41.62,41.62,0,0,1-6.08-4.73A41.27,41.27,0,0,1,53.25,39.3,41.16,41.16,0,0,1,80.82,26.1c-1-.06-2-.1-3-.1-.51,0-1,0-1.52,0l-.9,0c-1.12.05-2.22.15-3.32.28L71,26.51l-1.1.18-1.12.2c-1.1.22-2.19.47-3.27.78l-1.07.3-1.06.34a42.61,42.61,0,0,0-4.12,1.57c-1,.43-2,.9-2.9,1.4L54.93,32a45.41,45.41,0,0,0-4,2.58c-.43.32-.87.63-1.29,1s-.84.66-1.25,1c-.65.53-1.28,1.08-1.9,1.64s-1.11,1-1.64,1.58-1.1,1.15-1.64,1.75-.85,1-1.26,1.47-.81,1-1.2,1.53-.68.92-1,1.39A46,46,0,0,0,31.37,72.47Z"/><path class="cls-5" d="M42.4,70.1A41.22,41.22,0,0,0,58.2,99.87c.54.42,1.08.82,1.62,1.21l9.16-.39L109.5,99l.64,0h0a41.49,41.49,0,0,0,7.8-8.71l-2.63-.4h0c-14.54-2.31-39-7.11-50.36-14.71a8.92,8.92,0,0,1-3.47.7,9.07,9.07,0,0,1-5.89-16,9,9,0,0,1,6.89-3.19,9.25,9.25,0,0,1,2.75.43c12.59-9.53,33.69-9.11,46.9-7.65h0a11.92,11.92,0,0,1,9.59,7.74A46.51,46.51,0,0,0,80.82,26.1a41.3,41.3,0,0,0-38.42,44Z"/><path class="cls-6" d="M31.44,70.5a46.28,46.28,0,0,1,8.27-24.56c.32-.47.66-.94,1-1.39s.79-1,1.2-1.53.83-1,1.26-1.47,1.08-1.18,1.64-1.75,1.08-1.06,1.64-1.58,1.25-1.11,1.9-1.64c.41-.34.83-.68,1.25-1s.86-.64,1.29-1a45.41,45.41,0,0,1,4-2.58l1.41-.76c.95-.5,1.91-1,2.9-1.4,1.34-.58,2.72-1.11,4.12-1.57L64.42,28l1.07-.3c1.08-.3,2.16-.56,3.27-.78l1.12-.2,1.1-.18,1.14-.16c1.1-.13,2.2-.23,3.32-.28l.9,0c.5,0,1,0,1.52,0a28.78,28.78,0,0,1,3,.1A41.3,41.3,0,0,0,58.2,99.87c.54.42,1.08.82,1.62,1.21l3.28,2.09c.7.4,1.41.78,2.14,1.14h0a40.75,40.75,0,0,0,12.41,3.89c.41.06.82.11,1.24.15a41.55,41.55,0,0,0,7.5.17,41.1,41.1,0,0,0,21.48-7.8L110.14,99h0a41.49,41.49,0,0,0,7.8-8.71,1.7,1.7,0,0,0,.15-.22c0,.08-.06.16-.1.23.93.15,1.8.26,2.61.38.45-1,.86-2.11,1.22-3.2q.15-.41.27-.81a3.58,3.58,0,0,0,.11-.35c.23-.71.43-1.42.61-2.15s.42-1.68.58-2.53c.12-.55.22-1.1.3-1.66,0-.14,0-.27.07-.4.1-.66.19-1.34.25-2,.11-.94.18-1.88.23-2.84a2.17,2.17,0,0,1,0-.25,46.49,46.49,0,0,1-20.06,36.3c-.75.51-1.51,1-2.29,1.47l-1.18.7c-1.18.67-2.4,1.29-3.64,1.86a44.76,44.76,0,0,1-5.14,2h0a0,0,0,0,0,0,0l-.31.1c-1.09.34-2.2.65-3.32.9q-.57.14-1.14.24c-.75.15-1.52.29-2.29.42l-1,.13-.32,0-1.12.12c-.76.07-1.52.13-2.28.16l-1.15,0-1,0h-.32l-1.07,0-.76,0h-.05l-1.12-.06-.4,0H74l-.37,0c-.41,0-.81-.08-1.22-.14q-.35,0-.69-.09l-.82-.11h0c-1.12-.17-2.24-.38-3.34-.63a45.74,45.74,0,0,1-14.42-6,1,1,0,0,1-.16-.1c-.76-.48-1.52-1-2.25-1.53A46.33,46.33,0,0,1,31.44,70.5Z"/><path class="cls-7" d="M65,75.14c11.35,7.6,35.82,12.4,50.36,14.71h0l2.63.4a1.7,1.7,0,0,0,.15-.22c0,.08-.06.16-.1.23.93.15,1.8.26,2.61.38.45-1,.86-2.11,1.22-3.2q.15-.41.27-.81a3.58,3.58,0,0,0,.11-.35c.23-.71.43-1.42.61-2.15s.42-1.68.58-2.53c.12-.55.22-1.1.3-1.66,0-.14,0-.27.07-.4.1-.66.19-1.34.25-2,.11-.94.18-1.88.23-2.84,0-.74,0-1.47,0-2.22,0-.41,0-.8,0-1.2s0-.83,0-1.23l-.06-.92c-.09-1.19-.21-2.36-.38-3.52l-.12-.74c-.17-1-.37-2-.6-3-.15-.62-.31-1.24-.48-1.85-.25-.92-.54-1.83-.85-2.72a.11.11,0,0,1,0,0,11.92,11.92,0,0,0-9.59-7.74h0C98.92,48,77.82,47.58,65.23,57.11A9.07,9.07,0,0,1,68.4,72.62,9,9,0,0,1,65,75.14Z"/><path class="cls-7" d="M64.25,74.66l.7.48a9,9,0,0,0,3.45-2.52A8.87,8.87,0,0,1,64.25,74.66Z"/><g class="cls-8"><path class="cls-4" d="M108.85,73.71a2.59,2.59,0,0,0,2.58-2.59A33.6,33.6,0,0,0,77.87,37.56a2.59,2.59,0,0,0,0,5.17,28.43,28.43,0,0,1,28.4,28.39A2.58,2.58,0,0,0,108.85,73.71Z"/></g><path class="cls-9" d="M52.4,66.76a9.08,9.08,0,0,0,9.08,9.08,8.92,8.92,0,0,0,3.47-.7,9,9,0,0,0,3.45-2.52,8.87,8.87,0,0,1-4.15,2,9.4,9.4,0,0,1-1.77.18,9.07,9.07,0,0,1-6.89-15A9,9,0,0,0,52.4,66.76Z"/><path class="cls-10" d="M52.4,66.76a9.08,9.08,0,0,0,9.08,9.08,8.92,8.92,0,0,0,3.47-.7,9,9,0,0,0,3.45-2.52,8.87,8.87,0,0,1-4.15,2,9.4,9.4,0,0,1-1.77.18,9.07,9.07,0,0,1-6.89-15A9,9,0,0,0,52.4,66.76Z"/><path class="cls-9" d="M53.41,65.76a9.08,9.08,0,0,0,9.07,9.08,9.4,9.4,0,0,0,1.77-.18,8.87,8.87,0,0,0,4.15-2,9.07,9.07,0,0,0-3.17-15.51,9.25,9.25,0,0,0-2.75-.43,9.1,9.1,0,0,0-9.07,9.08Z"/><line class="cls-11" x1="61.27" y1="59.3" x2="60.67" y2="6.3"/><circle class="cls-12" cx="60.68" cy="8" r="7.49"/><circle class="cls-5" cx="60.68" cy="8" r="5.4"/><line class="cls-11" x1="62.17" y1="59.3" x2="61.57" y2="6.3"/><circle class="cls-12" cx="61.58" cy="8" r="7.49"/><circle class="cls-5" cx="61.58" cy="8" r="5.4"/><path class="cls-5" d="M97.34,153.92l-9.91,9.35a13.62,13.62,0,0,0,19.26.55c5.24-4.95,5.3-13.39.13-18.86Z"/><path class="cls-4" d="M84.7,162.13a1.5,1.5,0,0,1-1.13-.49L53.22,129.51a14.71,14.71,0,0,1,21.39-20.2L105,141.44a1.57,1.57,0,0,1,.42,1.11,1.52,1.52,0,0,1-.49,1.09L85.76,161.7A1.52,1.52,0,0,1,84.7,162.13Z"/><path class="cls-5" d="M63.91,102.2v5A12.11,12.11,0,0,1,72.79,111l29.7,31.45L84.73,159.24,55,127.8a12.21,12.21,0,0,1,8.87-20.6v-5m0,0a17.14,17.14,0,0,0-11.81,4.7h0a17.2,17.2,0,0,0-.7,24.33l30.35,32.13a4,4,0,0,0,5.73.16l19.13-18.07a4,4,0,0,0,.16-5.73L76.43,107.59a17.19,17.19,0,0,0-12.52-5.39Z"/><polyline class="cls-3" points="69.12 199.61 110.77 199.78 110.7 170.56 69.57 172.03"/><path class="cls-5" d="M126.33,151.89l.12,50.52-16.88,0-.08-32.06A18.56,18.56,0,0,1,126.33,151.89Z"/><path class="cls-7" d="M128,151.77l6.74,0,.12,50.64-8.44,0-.12-50.52C126.89,151.84,127.45,151.8,128,151.77Z"/><line class="cls-2" x1="72.84" y1="171.37" x2="68.44" y2="175.27"/><path class="cls-7" d="M56,121.71A1.77,1.77,0,0,1,54.09,120c0-5.43,4.94-9.85,11-9.85a1.68,1.68,0,1,1,0,3.34c-4,0-7.28,2.92-7.28,6.51A1.78,1.78,0,0,1,56,121.71Z"/><line class="cls-3" x1="37.35" y1="150.7" x2="63.12" y2="161.7"/><line class="cls-2" x1="43.49" y1="128.21" x2="50.23" y2="113.31"/><path class="cls-5" d="M106.61,144.2l-7.36,11.46a13.61,13.61,0,0,0,18.82-4.1c3.9-6.07,1.92-14.28-4.41-18.34Z"/><path class="cls-2" d="M94.42,250.49V167.61a14.12,14.12,0,0,1,14.12-14.12h91.2a10.68,10.68,0,0,1,10.68,10.68v92.32"/><path class="cls-2" d="M95.42,199.61H38.51a13,13,0,0,1-12.58-9.77L2.42,97.49"/><rect class="cls-5" x="67.42" y="200.49" width="19" height="35"/><rect class="cls-5" x="25.92" y="233.99" width="97" height="12"/><circle class="cls-5" cx="32.92" cy="249.99" r="10"/><circle class="cls-5" cx="57.92" cy="246.99" r="10"/><circle class="cls-5" cx="90.92" cy="246.99" r="10"/><circle class="cls-5" cx="116.92" cy="249.99" r="10"/><polyline class="cls-2" points="207.42 97.5 180.92 151.16 118.77 151.16"/></g></g></svg>