<svg xmlns="http://www.w3.org/2000/svg" xmlns:xlink="http://www.w3.org/1999/xlink" viewBox="0 0 276.91 200.22"><defs><style>.cls-1,.cls-11,.cls-13{fill:none;}.cls-2{fill:#2b79ac;}.cls-3{fill:#2285c3;}.cls-14,.cls-4{fill:#fff;}.cls-5{fill:#f8db72;}.cls-6{opacity:0.17;}.cls-7{opacity:0.17;}.cls-8{clip-path:url(#clip-path);}.cls-9{fill:#246589;}.cls-10{opacity:0.05;}.cls-11,.cls-12,.cls-13,.cls-14{stroke:#2285c3;stroke-miterlimit:10;stroke-width:5px;}.cls-12{fill:#f1f1f2;}.cls-13{stroke-linecap:round;}</style><clipPath id="clip-path"><path class="cls-1" d="M121.82,44.55c-13.69-8.22-37.24-19.5-55-12.86C42.08,41,85,72.61,106.27,86.81c1.84,1.22,3.52,2.31,5,3.25A51.77,51.77,0,0,0,127.9,56.89a13.13,13.13,0,0,0-6.08-12.34Z"/></clipPath></defs><title>Asset 10</title><g id="Layer_2" data-name="Layer 2"><g id="Layer_1-2" data-name="Layer 1"><path class="cls-2" d="M9.9,34.23a8.83,8.83,0,1,1,8.83-8.83A8.84,8.84,0,0,1,9.9,34.23Zm0-16.66a7.83,7.83,0,1,0,7.83,7.83A7.84,7.84,0,0,0,9.9,17.57Z"/><circle class="cls-3" cx="9.9" cy="25.4" r="6"/><path class="cls-4" d="M47,109.61,41.74,108a10.43,10.43,0,0,0-13.12,7.7l-7.47,42.89a10.42,10.42,0,0,0,7,12.23h0A10.42,10.42,0,0,0,41.25,164l6.54-31.72Z"/><path class="cls-3" d="M31.32,173.85a12.93,12.93,0,0,1-12.62-15.7l7.48-43a12.91,12.91,0,0,1,16.26-9.54l7,2.07.84,24.81-6.66,32.25a12.95,12.95,0,0,1-12.32,9.07Zm-.25-57.62-7.48,43a7.92,7.92,0,0,0,15.24,4.22l6.45-31.3-.7-20.61-3.55-1a7.94,7.94,0,0,0-10,5.79Z"/><path class="cls-4" d="M98.6,146.62a1.58,1.58,0,0,1-.84-.25L54.65,118.68a14.73,14.73,0,0,1-4.43-20.33l2-3.11a14.69,14.69,0,0,1,20.33-4.43l43.11,27.69a1.54,1.54,0,0,1,.47,2.14L99.91,145.9A1.54,1.54,0,0,1,98.6,146.62Z"/><path class="cls-3" d="M64.62,86v5a12.24,12.24,0,0,1,6.58,1.94l42.32,27.18-15.2,23.67L56,116.58a12.24,12.24,0,0,1-3.68-16.87l2-3.12A12.18,12.18,0,0,1,64.62,91V86m0,0a17.23,17.23,0,0,0-14.5,7.92l-2,3.11a17.22,17.22,0,0,0,5.18,23.79l43.11,27.68a4,4,0,0,0,2.19.65,4.07,4.07,0,0,0,3.42-1.87L118.24,122a4.06,4.06,0,0,0-1.23-5.61L73.9,88.71A17.13,17.13,0,0,0,64.62,86Z"/><path class="cls-4" d="M75.46,89.71c-10.87-13.42-21-6.44-30.31-6.44a141.4,141.4,0,0,1,2.22,36.16c-2.71,32.41-9.5,42.43-9.5,50.22v.43a24.37,24.37,0,0,0,24.44,24H82.07c8.09-5.78,13.57-26.63,13.57-39.4C95.64,120.66,81.46,97.11,75.46,89.71Z"/><path class="cls-3" d="M82.87,196.61H62.31A26.93,26.93,0,0,1,35.37,170.1v-.45c0-3.21,1-6.56,2.31-11.18a181.2,181.2,0,0,0,7.2-39.25A142,142,0,0,0,42.78,84a2.48,2.48,0,0,0,2.37,1.73v-5a37.52,37.52,0,0,0,6.7-.84c7.34-1.34,16.46-3,25.55,8.2h0c2.12,2.62,20.74,26.74,20.74,66.59,0,12.94-5.56,35-14.62,41.42Zm-34.7-111c.5,2.79.93,6.43,1.2,9a139.64,139.64,0,0,1,.49,25.06c-1.73,20.75-5.13,32.46-7.38,40.22-1.22,4.23-2.11,7.29-2.11,9.79v.41a21.91,21.91,0,0,0,21.94,21.55H81.22c6.65-5.61,11.92-24.39,11.92-36.89,0-31-12.33-54.45-19.62-63.44S60,83.52,52.75,84.85C51.25,85.13,49.72,85.41,48.17,85.59Z"/><circle class="cls-5" cx="76.75" cy="51.63" r="48.56"/><path class="cls-5" d="M76.74,15.86A34.26,34.26,0,0,0,42.48,50.12Z"/><path class="cls-4" d="M42.48,53a2.86,2.86,0,0,1-2.86-2.86A37.16,37.16,0,0,1,76.74,13a2.86,2.86,0,0,1,0,5.71,31.44,31.44,0,0,0-31.41,31.4A2.85,2.85,0,0,1,42.48,53Z"/><path class="cls-3" d="M76.75,5.93A45.68,45.68,0,1,1,31.07,51.61,45.68,45.68,0,0,1,76.75,5.93Zm0-5.71a51.39,51.39,0,1,0,51.39,51.39A51.39,51.39,0,0,0,76.75.22Z"/><g class="cls-6"><path d="M128.08,49.21A51.39,51.39,0,0,1,25.4,53.57,45.68,45.68,0,1,0,73.47.11,32.18,32.18,0,0,1,76.75,0,51.39,51.39,0,0,1,128.08,49.21Z"/></g><path class="cls-3" d="M76.75,5.93A45.68,45.68,0,1,1,31.07,51.61,45.68,45.68,0,0,1,76.75,5.93Zm0-5.71a51.39,51.39,0,1,0,51.39,51.39A51.39,51.39,0,0,0,76.75.22Z"/><circle class="cls-3" cx="76.5" cy="51.87" r="48.79"/><path class="cls-3" d="M95.69,10.16A45.89,45.89,0,1,1,34.82,32.67,45.88,45.88,0,0,1,95.69,10.16ZM98.09,5a51.63,51.63,0,1,0,25.32,68.48A51.62,51.62,0,0,0,98.09,5Z"/><g class="cls-7"><path d="M93.72,94.32A45.85,45.85,0,0,1,47.38,76L45,72.36a45.89,45.89,0,0,1,56-65.92,31.22,31.22,0,0,0-3-1.48,51.63,51.63,0,1,0,24.38,70.46A45.86,45.86,0,0,1,96.83,93.6h0"/></g><path class="cls-5" d="M121.82,44.55c-13.69-8.22-37.24-19.5-55-12.86C42.08,41,85,72.61,106.27,86.81c1.84,1.22,3.52,2.31,5,3.25A51.77,51.77,0,0,0,127.9,56.89a13.13,13.13,0,0,0-6.08-12.34Z"/><g class="cls-8"><path class="cls-4" d="M107.24,67.5a2.86,2.86,0,0,0,3.8-1.41A37.33,37.33,0,0,0,92.75,16.63a2.87,2.87,0,0,0-2.39,5.21A31.6,31.6,0,0,1,105.83,63.7,2.86,2.86,0,0,0,107.24,67.5Z"/></g><circle class="cls-2" cx="62.65" cy="38.49" r="10.08"/><circle class="cls-9" cx="62.65" cy="38.49" r="10.08"/><circle class="cls-2" cx="64.12" cy="37.94" r="10.08"/><rect class="cls-2" x="20.11" y="25.2" width="5" height="83.29" transform="translate(-18.6 9.56) rotate(-17.04)"/><path class="cls-3" d="M97.51,143.5l-11,10.37a15.09,15.09,0,0,0,21.33.6c5.8-5.48,5.87-14.83.15-20.89Z"/><path class="cls-4" d="M83.49,153.05a1.53,1.53,0,0,1-1.13-.49L47.18,115.31a14.72,14.72,0,0,1,.59-20.79L50.46,92a14.72,14.72,0,0,1,20.8.6l35.18,37.25a1.52,1.52,0,0,1,.43,1.11,1.58,1.58,0,0,1-.49,1.08L84.56,152.62A1.53,1.53,0,0,1,83.49,153.05Z"/><path class="cls-3" d="M60.56,85.46v5a12.11,12.11,0,0,1,8.88,3.82L104,130.85,83.53,150.16,49,113.6a12.22,12.22,0,0,1,.49-17.27l2.69-2.54a12.16,12.16,0,0,1,8.38-3.33v-5m0,0a17.09,17.09,0,0,0-11.81,4.7l-2.7,2.54A17.21,17.21,0,0,0,45.36,117l35.18,37.25a4.06,4.06,0,0,0,5.74.16l21.82-20.61a4.06,4.06,0,0,0,.16-5.73L73.08,90.85a17.19,17.19,0,0,0-12.52-5.39Z"/><polyline class="cls-4" points="66.26 194.11 112.39 194.3 112.31 161.94 66.75 163.57"/><path class="cls-3" d="M114.89,196.81l-48.64-.2a2.5,2.5,0,0,1,0-5h0l43.61.18-.07-27.26-43,1.53a2.5,2.5,0,1,1-.17-5l48.13-1.72Z"/><path class="cls-3" d="M129.62,141.26l.13,56-18.69,0L111,161.75A20.56,20.56,0,0,1,129.62,141.26Z"/><path class="cls-5" d="M131.5,141.13l7.47,0,.13,56.08-9.35,0-.13-56C130.24,141.2,130.86,141.16,131.5,141.13Z"/><line class="cls-4" x1="31.07" y1="139.94" x2="59.61" y2="152.12"/><rect class="cls-3" x="42.84" y="130.52" width="5" height="31.03" transform="translate(-106.77 130.4) rotate(-66.88)"/><rect class="cls-3" x="32.54" y="104.28" width="18.12" height="5" transform="translate(-72.83 100.68) rotate(-65.66)"/><path class="cls-3" d="M23.3,143.6c-.24-.09-23.3-9.09-23.3-38.9S27.41,62.42,27.68,62.3l2,4.56C28.71,67.32,5,78.29,5,104.7s19.85,34.14,20.05,34.22Z"/><line class="cls-4" x1="93.43" y1="132.14" x2="82.16" y2="120.18"/><path class="cls-5" d="M93.43,134.64a2.48,2.48,0,0,1-1.82-.78l-11.27-12A2.5,2.5,0,1,1,84,118.47l11.27,12a2.51,2.51,0,0,1-.11,3.53A2.46,2.46,0,0,1,93.43,134.64Z"/><path class="cls-3" d="M107.78,132.74l-8.15,12.7a15.1,15.1,0,0,0,20.85-4.55c4.31-6.71,2.12-15.81-4.89-20.31Z"/><path class="cls-3" d="M54.32,110l8.78,9.15a1.52,1.52,0,0,0,1.5.42,1.56,1.56,0,0,0,.68-2.58l-1.68-1.75a.35.35,0,0,1,.2-.59L68,114a1.08,1.08,0,0,0,.9-.87l.89-4.78,0,0L72,110.65a1.53,1.53,0,0,0,2.62-.78,1.58,1.58,0,0,0-.43-1.37L65.4,99.37a1.54,1.54,0,1,0-2.18,2.17l1.65,1.72a.35.35,0,0,1-.2.59l-4.13.61a1.1,1.1,0,0,0-.9.87l-.8,4.15a.35.35,0,0,1-.59.18l-1.68-1.75a1.56,1.56,0,0,0-2.61.57A1.52,1.52,0,0,0,54.32,110Zm7.76,1,.59-3.1a.34.34,0,0,1,.28-.28l3.1-.45a.34.34,0,0,1,.38.4l-.61,3.33h0l-3.35.5A.34.34,0,0,1,62.08,111Z"/><g class="cls-10"><path d="M109.81,164.52s-1.15,11.76-2.85,16.93c-2.35,7.16-12.82,10.3-12.82,10.3l15.78.08-.09-25Z"/></g><g class="cls-10"><path d="M93,158.59l-21.11.71a3.92,3.92,0,0,0-1.1-4,3.09,3.09,0,0,0-3.64-.8A4.51,4.51,0,0,0,65,156.65c-.72,1.43-1,2.86.51,4a5.18,5.18,0,0,0,4.79.51l22.7-.86Z"/></g><path class="cls-3" d="M65.5,169.65a2.36,2.36,0,0,1-.82-.14,2.5,2.5,0,0,1-1.54-3.18l1.25-3.59,1.55-4.9a2.5,2.5,0,0,1,4.77,1.51l-1.57,5L67.86,168A2.49,2.49,0,0,1,65.5,169.65Z"/><g class="cls-10"><path d="M77.8,151.38S57.9,132.57,53.89,136a71.16,71.16,0,0,0-7.42,7.49l2.78-22.33Z"/></g><path class="cls-11" d="M181.51,178.56l9.69-14-15.88.65,3.35-7.83c-6.67,6.22-14.5,10.58-26,13.68l-3,.8,5.75,21.45,3.3-.88c10.84-2.9,19.38-3,27.71-1.23l-11.33-12.32Z"/><path class="cls-12" d="M144.63,169.3H169.3a0,0,0,0,1,0,0v18a6.71,6.71,0,0,1-6.71,6.71H151.34a6.71,6.71,0,0,1-6.71-6.71v-18A0,0,0,0,1,144.63,169.3Z" transform="translate(291.76 -17.01) rotate(74.99)"/><line class="cls-13" x1="158.2" y1="168.53" x2="161.81" y2="181.97"/><line class="cls-13" x1="149.63" y1="171.83" x2="152.98" y2="184.34"/><line class="cls-13" x1="164.2" y1="190.92" x2="163.37" y2="187.8"/><line class="cls-13" x1="155.26" y1="192.82" x2="154.55" y2="190.16"/><path class="cls-14" d="M247.19,193.19a45.18,45.18,0,0,0,22.74-61,44.54,44.54,0,0,0-4.4-7.26l-.12,4.22a11.62,11.62,0,0,1-11.85,11.29l-2.39,0,9.47,16.1a7.13,7.13,0,0,1-5.54,10.72l-19.85,1.72,8.88,11.92-12,1.34-10.94-8.28L225.3,189,213,192.61l2.59,1.56,1.42.43C226.85,197.61,237,197.62,247.19,193.19Z"/><path class="cls-11" d="M192,180.6a20.58,20.58,0,0,0,19.68-5.07,19.47,19.47,0,0,0,5.92-14.17c0-.46,0-.91,0-1.35h0c-2,5.43-14.19-.37-19.27,2.37Z"/><line class="cls-13" x1="9.9" y1="197.72" x2="274.41" y2="197.72"/><path class="cls-3" d="M91.22,197.37c-5-.21-1.38-.07-2.5-.12h0v-.06l0-.07,0-.14,0-.28c0-.18.07-.37.11-.55.12-.35.23-.7.37-1a10.38,10.38,0,0,1,.48-.94q.27-.44.57-.84a11,11,0,0,1,2.73-2.46,20.67,20.67,0,0,1,6-2.58,43.12,43.12,0,0,1,6.1-1.12l6-.81-5.74,2a40.8,40.8,0,0,0-5.5,2.24,17.68,17.68,0,0,0-4.57,3.17A7.1,7.1,0,0,0,94,195.73l-.18.47-.11.46,0,.42,0,.2v.17h0Z"/><path class="cls-3" d="M88.75,197.76l-.18-3.12,0-.78,0-.86a16.61,16.61,0,0,1,0-1.73,20,20,0,0,1,1.55-6.58A26.47,26.47,0,0,1,98,174.75a25.2,25.2,0,0,0-5.54,10.71,16.75,16.75,0,0,0-.18,5.68c.08.47.14.93.26,1.38l.17.67.2.76.8,3Z"/><path class="cls-3" d="M89.72,199.36,86.33,196a29.71,29.71,0,0,0-3.45-2.9,50.2,50.2,0,0,0-8.13-4.66,51.16,51.16,0,0,1,9.31,2.45A33.53,33.53,0,0,1,88.58,193l4.14,2.34Z"/><path class="cls-3" d="M89.15,198.76l-1.08-2.17-.54-1.08c-.18-.34-.34-.68-.52-1a33.79,33.79,0,0,0-2.48-3.91,50.82,50.82,0,0,0-6.41-7.08,51.54,51.54,0,0,1,8.21,5.35A36.15,36.15,0,0,1,90,192.29c.29.31.57.64.86,1l.8.91L93.3,196Z"/><path class="cls-3" d="M243.17,196.8c-5-.21-1.38-.06-2.49-.11h0v-.17l0-.2,0-.39.09-.78c.06-.52.1-1,.19-1.55.17-1,.3-2.07.52-3.09s.4-2.05.66-3.06.52-2,.8-3A54.56,54.56,0,0,1,247.83,173a41.55,41.55,0,0,1,3.42-5.16,35.22,35.22,0,0,1,4.14-4.57c3.06-2.7,6.17-5.21,9.25-7.82-2.78,2.9-5.66,5.77-8.36,8.7a33.72,33.72,0,0,0-3.49,4.75,40.43,40.43,0,0,0-2.72,5.22,50.79,50.79,0,0,0-3.4,11.2c-.17,1-.35,1.92-.46,2.89s-.24,1.93-.32,2.9-.12,1.94-.18,2.9c0,.49,0,1,0,1.46v1.43h0C244.56,196.85,248.16,197,243.17,196.8Z"/><path class="cls-3" d="M240.67,196.85c.13-6.88.12-13.72.41-20.66s.93-13.82,1.88-20.66a214,214,0,0,1,9.47-40.15,213.2,213.2,0,0,0-7,40.42q-.8,10.22-.62,20.44c.13,6.78.55,13.67.84,20.52Z"/><path class="cls-3" d="M240.82,197.66l-2.32-8.26a74,74,0,0,0-2.6-8,51.59,51.59,0,0,0-8.49-14.59,53.37,53.37,0,0,1,10.75,13.5,78.73,78.73,0,0,1,3.86,7.82l3.5,7.82Z"/><path class="cls-3" d="M240.71,197.21l-1.41-12.32q-.74-6.1-1.85-12.18a182.24,182.24,0,0,0-6.1-24,185,185,0,0,1,8.53,23.39c1.16,4,2.21,8,3.12,12.12l2.64,12.15Z"/></g></g></svg>