<svg xmlns="http://www.w3.org/2000/svg" xmlns:xlink="http://www.w3.org/1999/xlink" viewBox="0 0 319.33 319.2"><defs><style>.cls-1{fill:none;}.cls-2{fill:#2285c3;}.cls-3{fill:#e39854;}.cls-4{fill:#e59855;}.cls-5{fill:#f8db72;}.cls-6{fill:#fff;}.cls-7{opacity:0.05;}.cls-8{opacity:0.17;}.cls-9{clip-path:url(#clip-path);}.cls-10{fill:#2b79ac;}.cls-11{fill:#246589;}</style><clipPath id="clip-path"><path class="cls-1" d="M203.85,66.81c15.05-5.35,40.37-11.75,56.44-1.73,22.43,14-25.89,36.52-49.55,46.23-2,.84-3.9,1.58-5.51,2.21a51.73,51.73,0,0,1-9.78-35.82,13.15,13.15,0,0,1,8.4-10.89Z"/></clipPath></defs><title>Asset 3</title><g id="Layer_2" data-name="Layer 2"><g id="Layer_1-2" data-name="Layer 1"><path class="cls-2" d="M295.29,156l-1.76-4.68c.81-.32,20.16-8,20.16-34.39,0-26.63-24.6-37.92-24.85-38l2-4.56c.28.12,27.81,12.75,27.81,42.59S295.52,156,295.29,156Z"/><circle class="cls-3" cx="41.58" cy="151.38" r="39.33"/><path class="cls-4" d="M41.69,112.05s41.87-.81,54.29,1.48-13.07,9.66,34.66,13.36c49.12,3.81-57,16.26,39.57,18.65s-48.75,5.94-43.88,10.84,25.55,4.79-8.92,6.74,27.16,11.37-21.85,12.95,13.78,18.25-57.95,16"/><path class="cls-5" d="M38.87,113.18s44.49.29,44.78,6S67.56,128.3,98,129.05s-8.79,9.24,5.4,8.68,10.7,6.38,33.14,8.79c19.6,2.11-33,7-20.06,10.81,8.55,2.49-21.27-2.23-20.68,10,.28,5.79-26,2.09-26.31,10.48-.23,7.33-17.27,13.22-28.74,14.19"/><path class="cls-6" d="M248.83,164.12a16.82,16.82,0,0,1-3-.27L197.44,155a2,2,0,0,1-1.62-2.34l5.25-28.81a2,2,0,0,1,2-1.65,2.19,2.19,0,0,1,.36,0l48.39,8.81a16.66,16.66,0,0,1-3,33Z"/><path class="cls-2" d="M203.44,124.82l47.91,8.72a14.16,14.16,0,0,1-2.52,28.08,13.85,13.85,0,0,1-2.56-.23l-44.87-8.17-3-.56,5.07-27.84m-.39-5.08a4.52,4.52,0,0,0-4.44,3.7l-5.25,28.81A4.52,4.52,0,0,0,197,157.5l3.51.64,44.87,8.17a19.15,19.15,0,0,0,22.27-15.41h0a19.14,19.14,0,0,0-15.41-22.27l-48.38-8.82a4.43,4.43,0,0,0-.81-.07Z"/><g class="cls-7"><path d="M203.1,125.91s-1.9,11.9-.94,17.25c1.33,7.41,12,12.34,12,12.34l-15.83-2.83,4.79-26.76Z"/></g><path class="cls-2" d="M199,138.07,196.29,153c-11.93-1.7-5.78-9.45-6.62-19.11-.78-9.1-9-20.13-4.47-22,6.65-2.79,5.17,9.9,16.41,12Z"/><path class="cls-5" d="M223.7,137.06l-.37,0-16-2.37a2.5,2.5,0,0,1,.73-4.94l16,2.36a2.5,2.5,0,0,1-.37,5Z"/><path class="cls-2" d="M251.28,155.15a1.56,1.56,0,0,0-1-2.49l-2.39-.42a.34.34,0,0,1-.19-.59l3-3a1.08,1.08,0,0,0,.22-1.24l-1.81-3.78a.35.35,0,0,1,.38-.5l2.37.41a1.54,1.54,0,1,0,.58-3l-12.52-2.17a1.56,1.56,0,0,0-1.38.41,1.54,1.54,0,0,0,.82,2.62l3.09.54h0L239,145.34a1.07,1.07,0,0,0-.22,1.23l1.83,3.84a.35.35,0,0,1-.38.5l-2.4-.42a1.56,1.56,0,0,0-1.77,2,1.51,1.51,0,0,0,1.19,1l12.56,2.19A1.55,1.55,0,0,0,251.28,155.15Zm-7.18-5.47-1.46-3.07h0l2.43-2.38a.34.34,0,0,1,.55.1l1.36,2.83a.35.35,0,0,1-.07.39l-2.26,2.23A.34.34,0,0,1,244.1,149.68Z"/><path class="cls-6" d="M236.14,236.69c-8.13-5.8-13.63-26.82-13.63-39.65,0-2.35.07-4.65.19-6.9s.29-4.22.51-6.26c.2-1.74.43-3.45.68-5.11a114.7,114.7,0,0,1,3.28-14.89,110.71,110.71,0,0,1,7.53-19.24c.48-.93,1-1.82,1.42-2.67s1.06-1.91,1.57-2.78c1.46-2.45,2.83-4.47,4-6,.39-.52.76-1,1.1-1.42a25.93,25.93,0,0,1,5.7-5.37,17.45,17.45,0,0,1,2.85-1.55l9.67-2.2c.61-.43,1.21-.88,1.8-1.34,3.4.54,9.58-5.21,10.42,4,0,0,2.07-7.36-.34,1.66a44.05,44.05,0,0,0-.71,4.48c-.18,1.17-.34,2.48-.5,3.91v0h0c-.21,1.79-.39,3.77-.55,5.87h0c-.22,2.71-.39,5.64-.43,8.67,0,1.83,0,3.7,0,5.58h0c0,2,.15,4.07.32,6.1a206.21,206.21,0,0,0,3.43,24.66c2.5,12.14,5.25,18.58,5.95,23.58a19.17,19.17,0,0,1,.16,2.22c0,14.31-6.6,19.56-8.93,24.64"/><path class="cls-2" d="M274.71,239.19a2.42,2.42,0,0,1-1-.23,2.51,2.51,0,0,1-1.23-3.32c.29-.62.59-1.24.9-1.88,2.21-4.54,4.71-9.68,4.71-21.71a15.6,15.6,0,0,0-.14-1.9,63.71,63.71,0,0,0-2-7.92c-1.15-3.95-2.57-8.86-3.93-15.47a205.19,205.19,0,0,1-3.49-25c-.16-2-.27-4-.32-6.25-.05-1.85-.06-3.77,0-5.7,0-2.84.19-5.79.43-8.77V141c.15-2,.34-4,.56-6,0,0,0-.11,0-.16.16-1.41.33-2.71.5-3.87.23-1.68.48-3.27.71-4.48,0-.91-.23-5.1-.43-8.16l0,0c-1.45,1.75-3.22,3.87-5.73,4.07-.39.3-.79.59-1.19.87a2.2,2.2,0,0,1-.63.32l-10.17,3.46a14.89,14.89,0,0,0-2.34,1.28,23.77,23.77,0,0,0-5.16,4.88c-.33.39-.68.85-1.05,1.34a68.84,68.84,0,0,0-3.82,5.81c-.53.88-1,1.79-1.54,2.7s-.92,1.71-1.37,2.61a107.54,107.54,0,0,0-7.37,18.8,114.51,114.51,0,0,0-3.21,14.58c-.27,1.78-.49,3.42-.66,5-.21,2-.38,4-.5,6.13-.13,2.25-.19,4.53-.19,6.76,0,13,5.61,32.64,12.58,37.62a2.5,2.5,0,0,1-2.91,4.07C225.59,232.24,220,210.08,220,197c0-2.33.06-4.7.2-7,.12-2.16.3-4.31.52-6.39.18-1.65.4-3.36.68-5.21a120.36,120.36,0,0,1,3.35-15.22,112.94,112.94,0,0,1,7.72-19.67c.48-1,1-1.87,1.45-2.75s1.06-1.92,1.62-2.85a73.32,73.32,0,0,1,4.11-6.24c.43-.57.81-1.07,1.17-1.51a28.46,28.46,0,0,1,6.27-5.88,20.11,20.11,0,0,1,3.25-1.77l.17-.07,9.91-3.36c.48-.35.95-.7,1.42-1.07a2.49,2.49,0,0,1,1.92-.49c.49-.08,1.68-1.52,2.33-2.29,1.56-1.89,3.34-4,6-4a2.49,2.49,0,0,1,2.5,2.47c0,.22.06.87.12,1.78.65,9.23.7,11.13.57,11.9-.22,1.16-.47,2.71-.7,4.38-.17,1.16-.33,2.43-.49,3.82a1.5,1.5,0,0,1,0,.2c-.21,1.83-.38,3.72-.53,5.61v.06c-.24,2.9-.38,5.76-.43,8.51,0,1.87,0,3.71,0,5.47.06,2.14.16,4.09.32,6a201.36,201.36,0,0,0,3.39,24.36c1.33,6.43,2.72,11.23,3.84,15.1a63.14,63.14,0,0,1,2.13,8.65,19,19,0,0,1,.19,2.56c0,13.18-2.89,19.12-5.21,23.89-.29.61-.58,1.21-.85,1.8A2.52,2.52,0,0,1,274.71,239.19Z"/><path class="cls-2" d="M241,159.49a3.27,3.27,0,0,1-.53-.05L232,157.62a2.5,2.5,0,1,1,1-4.89l8.48,1.82a2.5,2.5,0,0,1-.52,4.94Z"/><path class="cls-6" d="M268,132l9.37-1.89a10.47,10.47,0,0,1,13.18,7.73l7.5,43.1a10.45,10.45,0,0,1-7,12.27h0a10.46,10.46,0,0,1-13.15-6.85l-6.18-22.88Z"/><path class="cls-2" d="M287.8,196.17a13,13,0,0,1-12.36-9.11l-6.27-23.33L265.22,130l11.52-2.33A13,13,0,0,1,293,137.25l0,.12,7.5,43a13,13,0,0,1-12.68,15.76ZM274.12,163l6.12,22.71a8,8,0,0,0,10,5.12,7.93,7.93,0,0,0,5.36-9.34l0-.13-7.49-43a8,8,0,0,0-10-5.83l-.21.06L270.72,134Z"/><rect class="cls-2" x="258.16" y="172.71" width="31.18" height="5" transform="translate(-46.81 121.56) rotate(-23.12)"/><rect class="cls-2" x="275.88" y="114.91" width="5" height="18.21" transform="translate(-26.37 125.78) rotate(-24.35)"/><path class="cls-6" d="M242.58,230.44h0c-.63,4.11.21,8.32,3.37,9.88l28.74,47.36L304,271.27l-25.75-42.43c-2.15-3.56-8.49-11.17-12.43-12.52h0A17.73,17.73,0,0,0,242.58,230.44Z"/><path class="cls-2" d="M274.69,290.18a2.5,2.5,0,0,1-2.14-1.21l-25.74-42.42a2.5,2.5,0,1,1,4.27-2.6l24.5,40.37,25-14-24.4-40.21a2.5,2.5,0,1,1,4.27-2.6L306.16,270a2.53,2.53,0,0,1,.28,1.94,2.51,2.51,0,0,1-1.2,1.54l-29.33,16.41A2.42,2.42,0,0,1,274.69,290.18Z"/><line class="cls-6" x1="240.37" y1="234.25" x2="235.67" y2="238.05"/><path class="cls-2" d="M235.67,240.55a2.5,2.5,0,0,1-1.57-4.44l4.69-3.81a2.5,2.5,0,1,1,3.15,3.89l-4.69,3.8A2.48,2.48,0,0,1,235.67,240.55Z"/><path class="cls-6" d="M202.23,173.8a2,2,0,0,1-2-1.8l-3.14-29.11a2,2,0,0,1,.44-1.48,2,2,0,0,1,1.35-.74l48.89-5.27c.61-.06,1.21-.1,1.81-.1a16.65,16.65,0,0,1,1.77,33.21l-48.9,5.28Z"/><path class="cls-2" d="M249.58,137.8a14.16,14.16,0,0,1,1.5,28.23l-45.35,4.89-3.06.33-3-28.14L248,137.89a13.25,13.25,0,0,1,1.54-.09m0-5a20.66,20.66,0,0,0-2.07.11l-48.9,5.28a4.5,4.5,0,0,0-4,5l3.14,29.11a4.51,4.51,0,0,0,4.48,4l.49,0,3.55-.38L251.61,171a19.15,19.15,0,0,0,17-21.1h0a19.15,19.15,0,0,0-19-17.1Z"/><g class="cls-7"><path d="M199.61,144.25s1.55,11.95,4,16.8c3.39,6.74,15,8.45,15,8.45l-16,1.77-3-27Z"/></g><path class="cls-2" d="M199,156,197.46,141c-12,.78-6.49,9-8.06,18.54-1.49,9-10.55,19.38-6.15,21.64,6.41,3.29,5.91-9.48,17.27-10.66Z"/><path class="cls-5" d="M205.84,151.46a2.5,2.5,0,0,1-.35-5l16-2.26a2.5,2.5,0,0,1,.7,4.95l-16,2.26Z"/><path class="cls-2" d="M254.11,158.62a1.57,1.57,0,0,0-1.66-2.11l-2.41.28a.34.34,0,0,1-.35-.51l2-3.73a1.09,1.09,0,0,0-.15-1.25l-2.8-3.11a.35.35,0,0,1,.22-.59l2.39-.28a1.54,1.54,0,1,0-.3-3.07l-12.62,1.47a1.54,1.54,0,1,0,.31,3.06l3.12-.36h0l-2.37,4.28a1.07,1.07,0,0,0,.15,1.24l2.84,3.16a.36.36,0,0,1-.22.59l-2.42.28a1.54,1.54,0,1,0,.3,3.07l12.66-1.47A1.51,1.51,0,0,0,254.11,158.62Zm-8.44-3.2-2.27-2.54h0l1.66-3a.34.34,0,0,1,.55-.06l2.1,2.33a.35.35,0,0,1,0,.4l-1.53,2.78A.35.35,0,0,1,245.67,155.42Z"/><path class="cls-2" d="M272.87,70.26a10.09,10.09,0,0,1-11.43,12.27,10,10,0,0,1-4.37-1.85,9.74,9.74,0,0,0,5,1.14,9.42,9.42,0,0,0,2-.26,10.07,10.07,0,0,0,3.63-17.94A10,10,0,0,1,272.87,70.26Z"/><path class="cls-2" d="M294.31,71.73a48.69,48.69,0,0,1-8.89,41.07,47.14,47.14,0,0,1-3.45,4c-.17.19-.35.36-.53.55a48.18,48.18,0,0,1-10.7,8.14c-.38.23-.78.43-1.17.64h-.05c-.72.39-1.42.74-2.16,1.08a48.1,48.1,0,0,1-7.74,2.81c-.51.14-1,.28-1.56.4a49.39,49.39,0,0,1-5.29.95,47.4,47.4,0,0,1-7.31.35,48.08,48.08,0,0,1-12.18-1.9A49,49,0,0,1,217.51,122a48.38,48.38,0,0,1-9.56-9.51c-.06-.07-.11-.15-.17-.23a2.18,2.18,0,0,0,.22.21,46.16,46.16,0,0,0,10.66,7.41h0l.69-.13,44.26-8.51,10-1.93q.74-.84,1.44-1.71a45.94,45.94,0,0,0-24.7-73.27A48.82,48.82,0,0,1,294.31,71.73Z"/><path class="cls-2" d="M281.27,44.49c-.47-.42-.95-.84-1.43-1.24s-1.12-.91-1.7-1.34-1.15-.86-1.74-1.28-1.47-1-2.22-1.47-1.44-.87-2.17-1.28-1.64-.89-2.48-1.3c-.53-.26-1.06-.52-1.6-.76l-1.64-.7a51.6,51.6,0,0,0-5-1.76l-1.72-.47c-1.15-.29-2.31-.55-3.49-.76a46.86,46.86,0,0,0-4.86-.65L250,31.39c-.4,0-.82,0-1.23-.06-1.24-.06-2.49,0-3.73,0l-1.26.06-1.25.09-1.26.12c-1.22.14-2.45.32-3.67.54l-1,.19-1.65.36c-1.08.26-2.13.55-3.18.87a45.61,45.61,0,0,1,33.19,7.23,45.85,45.85,0,0,1,20.15,67.49,46.39,46.39,0,0,1-5.36,6.66c-.29.31-.59.6-.9.9a45.16,45.16,0,0,1-9.71,7.24h0a46,46,0,0,1-11.68,4.5c-.55.13-1.09.25-1.63.35-.7.14-1.4.26-2.09.38a47.17,47.17,0,0,1-5.38.49,45.84,45.84,0,0,1-26.83-7.63c-.72-.47-1.41-1-2.1-1.48l-.69.13h0A46.16,46.16,0,0,1,208,112.42a2.18,2.18,0,0,1-.22-.21c.06.08.11.16.17.23l-2.73,1.08a51.89,51.89,0,0,0,22.89,17.53q1.39.55,2.82,1l1.45.45c1.45.41,2.92.78,4.41,1.08a50.76,50.76,0,0,0,6.06.83h0l.37,0c1.26.08,2.54.13,3.82.13l1.29,0c.85,0,1.72-.08,2.59-.14.36,0,.72-.06,1.08-.1.11,0,.23,0,.35,0l1.25-.16c.84-.11,1.67-.25,2.51-.4l1.25-.25,1.11-.24.35-.08,1.14-.29.82-.23h0l1.2-.36.42-.13h0a.68.68,0,0,0,.2-.07,1.52,1.52,0,0,0,.2-.06l.39-.13c.43-.14.86-.29,1.28-.45l.73-.28c.28-.11.6-.2.88-.32,1.17-.47,2.32-1,3.45-1.53a51.49,51.49,0,0,0,14.06-10.17l.15-.14c.69-.72,1.37-1.46,2-2.22h0a51.71,51.71,0,0,0,12.62-33.17,51.65,51.65,0,0,0-17.19-39.1Z"/><path class="cls-2" d="M284.54,71.31a45.82,45.82,0,0,1-9.48,36.24q-.71.87-1.44,1.71l-10,1.93-44.26,8.51-.69.13h0A46.16,46.16,0,0,1,208,112.42l2.74-1.11h0c15.14-6.21,40.36-17.66,50.69-28.77a10.08,10.08,0,0,0,6.23-18.91,10,10,0,0,0-8.27-1.68,9.83,9.83,0,0,0-2.87,1.16c-16-7.08-38.76-1.24-52.67,3.72h0a13.5,13.5,0,0,0-3.79,2.24,13.11,13.11,0,0,0-4.6,8.58,51.66,51.66,0,0,1,36.29-44.08,45.9,45.9,0,0,1,52.8,37.75Z"/><g class="cls-8"><path d="M296.49,68.94a51.49,51.49,0,0,0-15.22-24.45c-.47-.42-.95-.84-1.43-1.24s-1.12-.91-1.7-1.34-1.15-.86-1.74-1.28-1.47-1-2.22-1.47-1.44-.87-2.17-1.28-1.64-.89-2.48-1.3c-.53-.26-1.06-.52-1.6-.76l-1.64-.7a51.6,51.6,0,0,0-5-1.76l-1.72-.47c-1.15-.29-2.31-.55-3.49-.76-1.6-.29-3.23-.51-4.86-.65L250,31.39c-.4,0-.82,0-1.23-.06-1.24,0-2.48,0-3.73,0l-1.26.06-1.25.09-1.26.12c-1.22.14-2.45.32-3.67.54l-1,.19-1.65.36c-1.11.27-2.14.51-3.18.87a45.89,45.89,0,0,1,43.32,74q-.71.87-1.44,1.71l-3,3.1c-.66.62-1.33,1.21-2,1.78h0a45.29,45.29,0,0,1-12.43,7.38c-.42.17-.86.33-1.3.48a45.79,45.79,0,0,1-33.29-.84l-2.89-1.33h0A46.16,46.16,0,0,1,208,112.42a2.18,2.18,0,0,1-.22-.21c.06.08.11.16.17.23l-2.73,1.08c-.75-1-1.46-2.07-2.14-3.16-.18-.26-.34-.53-.5-.8l-.2-.34c-.43-.72-.83-1.43-1.22-2.17s-.87-1.72-1.27-2.6c-.27-.56-.51-1.13-.74-1.72a3,3,0,0,1-.18-.41c-.28-.69-.55-1.4-.79-2.11-.36-1-.68-2-1-3,0-.08-.07-.18-.11-.26a51.62,51.62,0,0,0,31,34.12c.94.36,1.89.7,2.86,1l1.45.45c1.45.42,2.92.79,4.41,1.08a50.76,50.76,0,0,0,6.06.83h0s0,0,0,0l.37,0c1.26.09,2.54.14,3.82.13l1.29,0c.85,0,1.72-.08,2.59-.14.36,0,.72-.06,1.08-.1.11,0,.23,0,.35,0l1.25-.16c.84-.11,1.67-.25,2.51-.4l1.25-.25,1.11-.24.35-.08,1.14-.29.82-.23h0l1.2-.36.42-.13h0l.2-.06a1.52,1.52,0,0,0,.2-.06l.39-.13c.43-.14.86-.29,1.28-.45l.73-.28.85-.33h0c1.18-.46,2.33-1,3.45-1.53a50.89,50.89,0,0,0,14.06-10.17,1.06,1.06,0,0,0,.15-.15c.7-.72,1.39-1.47,2-2.23a51.43,51.43,0,0,0,10.66-47.78Z"/></g><path class="cls-5" d="M261.44,82.53c-10.33,11.11-35.55,22.56-50.69,28.77h0L208,112.42a2.18,2.18,0,0,1-.22-.21c.06.08.11.16.17.23l-2.73,1.08c-.75-1-1.46-2.07-2.14-3.16-.18-.26-.34-.53-.5-.8l-.2-.34c-.43-.72-.83-1.43-1.22-2.17s-.87-1.72-1.27-2.6c-.26-.56-.51-1.13-.74-1.72a3,3,0,0,1-.18-.41c-.28-.69-.55-1.4-.79-2.11-.36-1-.68-2-1-3-.23-.79-.43-1.58-.62-2.39-.11-.44-.2-.87-.29-1.3s-.18-.9-.27-1.34-.12-.67-.17-1c-.21-1.31-.37-2.6-.49-3.9,0-.27,0-.56-.06-.84-.08-1.15-.12-2.29-.12-3.43,0-.71,0-1.43,0-2.13,0-1.06.12-2.11.22-3.16v-.06a13.11,13.11,0,0,1,4.6-8.58,13.5,13.5,0,0,1,3.79-2.24h0c13.91-5,36.63-10.8,52.67-3.72a10.07,10.07,0,0,0,.54,17.58A10,10,0,0,0,261.44,82.53Z"/><path class="cls-5" d="M262.07,81.82c-.2.24-.41.47-.63.71a10,10,0,0,1-4.37-1.85A9.74,9.74,0,0,0,262.07,81.82Z"/><g class="cls-9"><path class="cls-6" d="M213.61,92.2a2.87,2.87,0,0,1-3.45-2.13A37.33,37.33,0,0,1,237.87,45.2a2.87,2.87,0,1,1,1.32,5.58,31.59,31.59,0,0,0-23.45,38A2.87,2.87,0,0,1,213.61,92.2Z"/></g><path class="cls-10" d="M272.87,70.26a10.09,10.09,0,0,1-11.43,12.27,10,10,0,0,1-4.37-1.85,9.74,9.74,0,0,0,5,1.14,9.42,9.42,0,0,0,2-.26,10.07,10.07,0,0,0,3.63-17.94A10,10,0,0,1,272.87,70.26Z"/><path class="cls-11" d="M272.87,70.26a10.09,10.09,0,0,1-11.43,12.27,10,10,0,0,1-4.37-1.85,9.74,9.74,0,0,0,5,1.14,9.42,9.42,0,0,0,2-.26,10.07,10.07,0,0,0,3.63-17.94A10,10,0,0,1,272.87,70.26Z"/><path class="cls-10" d="M271.53,69.43A10.08,10.08,0,0,1,264,81.56a9.42,9.42,0,0,1-2,.26,9.74,9.74,0,0,1-5-1.14,10.07,10.07,0,0,1-.54-17.58,9.83,9.83,0,0,1,2.87-1.16,10.1,10.1,0,0,1,12.13,7.49Z"/><rect class="cls-10" x="252.42" y="6.28" width="5" height="58.89" transform="translate(-1.64 56.68) rotate(-12.65)"/><path class="cls-10" d="M248.91,17.66A8.82,8.82,0,0,1,244.5,1.18a8.83,8.83,0,0,1,12.05,3.25h0a8.84,8.84,0,0,1-7.64,13.23Zm0-16.66a7.83,7.83,0,1,0,3.91,14.62,7.83,7.83,0,0,0,2.89-10.69,7.77,7.77,0,0,0-4.74-3.65A7.63,7.63,0,0,0,248.88,1Z"/><circle class="cls-2" cx="248.89" cy="8.83" r="6"/><rect class="cls-10" x="251.45" y="6.51" width="5" height="58.89" transform="translate(-1.71 56.47) rotate(-12.65)"/><path class="cls-10" d="M247.94,17.89a8.83,8.83,0,0,1-7.67-4.43,8.83,8.83,0,0,1,3.25-12,8.84,8.84,0,0,1,12.06,3.25h0a8.84,8.84,0,0,1-3.26,12.05A8.71,8.71,0,0,1,247.94,17.89Zm0-16.65A7.78,7.78,0,0,0,240.37,7a7.75,7.75,0,0,0,.76,5.94,7.83,7.83,0,1,0,6.78-11.72Z"/><circle class="cls-2" cx="247.92" cy="9.06" r="6"/><path class="cls-2" d="M239.57,285.79a3,3,0,0,0-3.44-2.51l-32.06,5.06A20.52,20.52,0,0,0,186.79,310L242,301.25Z"/><path class="cls-5" d="M186.79,310c0,.62.1,1.25.2,1.87l1.16,7.37,55.31-8.73L242,301.25Z"/><circle class="cls-5" cx="39.33" cy="152.69" r="39.33"/><path class="cls-2" d="M39.44,116.61a36.08,36.08,0,1,1-36.19,36,36.08,36.08,0,0,1,36.19-36M17.91,155.94l14.31-8.72L32.28,125l-14.3,9-.07,21.89m14.21,24.4.05-16.41L34,162.86l10.71-6.61,1.78-1.08,14.31-8.57,0-8v-4.38L58.87,133,46.54,125.1l0,15-1.79,1.09L34,148l-1.79,1.09-14.3,8.71v1.86l0,8v3.72l14.25,9m14.26,0,14.3-8.88.07-23.16-14.3,8.58-.07,23.46"/><path class="cls-2" d="M41.68,116.69c2.76.48,39.33,1.3,34.25,3.12-1.45.51-11.52,1.69-11.62,3.63-.16,2.82,11.08.39,10.19,5.11-1.29,6.84,21.44,3.52,21.52,5.63.06,1.6-6.24,5.57-.65,7.7,8.12,3.09,27.06,4.34,27.24,5.68.2,1.51-13.26.61-19.55,2.06-3.16.73,1.52,3.26,1.57,4.58.08,2.28-11.47,3-14.79,4.36-2.4,1,.2,2.54,0,4.26-.51,4.09-10.62,3.66-13.49,4.38-3.1.77-12.53,12-12.53,12l7.74-26.39-5-12.52-7.06-11.91Z"/><path class="cls-6" d="M258.57,249.2l-7-30.26-28.1,6.42a24.8,24.8,0,0,0-19.26,24.17v39.91h35.48l1-32.17Z"/><path class="cls-2" d="M239.65,291.94H204.17a2.5,2.5,0,0,1-2.5-2.5V249.53a27.17,27.17,0,0,1,21.21-26.61l16.93-3.87a2.5,2.5,0,0,1,1.11,4.88L224,227.8a22.18,22.18,0,0,0-17.32,21.73v37.41h30.55l.93-29.75a2.5,2.5,0,0,1,1.47-2.2l17.92-8.07a2.5,2.5,0,0,1,2.06,4.56l-16.5,7.43-.95,30.61A2.5,2.5,0,0,1,239.65,291.94Z"/><path class="cls-2" d="M301.66,261.91l-27.5,22.38a20.54,20.54,0,0,0-4.08,27.38l43.36-35.28Z"/><path class="cls-5" d="M270.08,311.67c.35.52.71,1,1.11,1.52L275.9,319l43.43-35.34-5.89-7.24Z"/></g></g></svg>