<svg xmlns="http://www.w3.org/2000/svg" xmlns:xlink="http://www.w3.org/1999/xlink" viewBox="0 0 128.71 280.46"><defs><style>.cls-1,.cls-10{fill:none;}.cls-2{fill:#fff;}.cls-3{fill:#2285c3;}.cls-4{opacity:0.05;}.cls-5{opacity:0.17;}.cls-6{fill:#f8db72;}.cls-7{clip-path:url(#clip-path);}.cls-8{fill:#2b79ac;}.cls-9{fill:#246589;}.cls-10{stroke:#2b79ac;stroke-miterlimit:10;}</style><clipPath id="clip-path"><path class="cls-1" d="M115.19,26.06c-15.87-1.75-42-2.15-55.31,11.29C41.26,56.13,93.47,66.94,118.73,70.94c2.18.35,4.16.64,5.88.88a51.76,51.76,0,0,0,1.26-37.1,13.12,13.12,0,0,0-10.68-8.66Z"/></clipPath></defs><title>Asset 6</title><g id="Layer_2" data-name="Layer 2"><g id="Layer_1-2" data-name="Layer 1"><path class="cls-2" d="M98.9,146.93a2,2,0,0,1-1.08-.32L56.44,120a16.65,16.65,0,1,1,18-28l41.39,26.57a2,2,0,0,1,.6,2.78L100.6,146A2,2,0,0,1,98.9,146.93Z"/><path class="cls-3" d="M65.46,86.87v5h0a14,14,0,0,1,7.62,2.24l41,26.31-15.3,23.82-2.59-1.66L57.79,117.93a14.15,14.15,0,0,1,7.66-26.06v-5m0,0a19.12,19.12,0,0,0-16.13,8.8h0a19.16,19.16,0,0,0,5.77,26.47l38.38,24.64,3,1.93a4.44,4.44,0,0,0,2.43.72,4.49,4.49,0,0,0,3.8-2.08l15.83-24.63a4.53,4.53,0,0,0-1.36-6.24L75.79,89.91a19.07,19.07,0,0,0-10.34-3Z"/><g class="cls-4"><path d="M113.56,121.45s-6.73,10-11.08,13.25c-6,4.52-17.19.85-17.19.85l13.51,8.74,14.76-22.84Z"/></g><path class="cls-2" d="M49.45,241.93V194.8a2.55,2.55,0,0,0-.23-1.05,33.67,33.67,0,0,0-2.55-4.28c-2.74-4.11-6.15-9.24-6.15-19.24a13.82,13.82,0,0,1,.14-1.9,61.66,61.66,0,0,1,2-7.92c1.15-3.95,2.58-8.86,3.94-15.48a207.08,207.08,0,0,0,3.48-25c.17-2,.27-4,.33-6.25,0-1.85,0-3.77,0-5.7,0-2.83-.19-5.79-.43-8.77v-.05c-.15-2-.34-4-.56-6a.88.88,0,0,0,0-.16c-.16-1.41-.33-2.71-.5-3.87s-.35-2.44-.52-3.47c1.56-.17,3.12-.46,4.64-.74l1.62-.29c.34.26.68.5,1,.74a2.47,2.47,0,0,0,1.44.46l9.68-.41a14.28,14.28,0,0,1,1.93,1.1,23.74,23.74,0,0,1,5.17,4.87c.32.4.67.86,1,1.35,1.29,1.75,2.58,3.71,3.83,5.81.52.88,1,1.79,1.53,2.7s.92,1.71,1.38,2.61A107.23,107.23,0,0,1,89,122.75a114.13,114.13,0,0,1,3.21,14.58c.27,1.78.48,3.41.65,5,.22,2,.39,4.06.5,6.13.13,2.26.2,4.53.2,6.76,0,12.94-5.61,32.57-12.58,37.54a2.5,2.5,0,0,0-1,2v47.13Z"/><path class="cls-3" d="M54,87.37l.19.14a5,5,0,0,0,2.88.91h.21L66.21,88c.37.2.73.42,1.1.66a21.23,21.23,0,0,1,4.59,4.36c.31.37.64.8,1,1.24a66.48,66.48,0,0,1,3.71,5.64c.49.83,1,1.7,1.49,2.63s.89,1.63,1.33,2.51a104.78,104.78,0,0,1,7.2,18.38,111.11,111.11,0,0,1,3.13,14.23c.27,1.76.48,3.36.65,4.91.21,2,.37,4,.49,6,.12,2.2.19,4.43.19,6.61,0,12.28-5.32,31.08-11.53,35.51a5,5,0,0,0-2.1,4.07v44.63H52V194.8a5,5,0,0,0-.46-2.09,33.19,33.19,0,0,0-2.74-4.62c-2.69-4-5.73-8.61-5.73-17.86a13.22,13.22,0,0,1,.11-1.54A59.1,59.1,0,0,1,45,161.11c1.15-4,2.59-9,4-15.67a210.08,210.08,0,0,0,3.52-25.25c.17-2,.28-4.13.34-6.4v0c0-1.87,0-3.82,0-5.75,0-2.89-.2-5.89-.44-8.91V99c-.15-2-.34-4.07-.56-6l0-.23c-.16-1.34-.32-2.64-.5-3.84-.05-.36-.1-.71-.14-1l2.23-.4.56-.1m1.27-5.29c-3.4.54-6.71,1.36-9.93,1.36a11.56,11.56,0,0,1,.35,1.66c.2,1.06.45,2.59.71,4.48.17,1.17.34,2.48.5,3.91v0h0c.2,1.79.39,3.77.55,5.87h0c.22,2.71.38,5.64.43,8.67,0,1.83,0,3.7,0,5.58h0c-.05,2-.15,4.07-.32,6.1a203.9,203.9,0,0,1-3.44,24.66C41.62,156.57,38.87,163,38.18,168a17.19,17.19,0,0,0-.16,2.22c0,14.31,6.59,19.49,8.93,24.57v49.63H82.43V194.8c8.13-5.8,13.63-26.75,13.63-39.58q0-3.53-.2-6.9c-.12-2.14-.29-4.22-.51-6.26-.19-1.74-.42-3.45-.67-5.11a116.38,116.38,0,0,0-3.28-14.89,109.88,109.88,0,0,0-7.54-19.24q-.7-1.39-1.41-2.67c-.53-1-1.06-1.91-1.58-2.78a71.48,71.48,0,0,0-4-6c-.39-.52-.76-1-1.1-1.42a26,26,0,0,0-5.71-5.37A17,17,0,0,0,67.24,83l-10.17.43c-.61-.43-1.21-.88-1.8-1.34Z"/><polyline class="cls-2" points="49.28 192.7 33.75 238.39 64.66 248.48 78.61 195.08"/><path class="cls-3" d="M64.66,251a2.53,2.53,0,0,1-.77-.12L33,240.77a2.5,2.5,0,0,1-1.59-3.18l15.53-45.7,4.74,1.61L36.93,236.8l26,8.48,13.28-50.83L81,195.72l-14,53.39a2.49,2.49,0,0,1-1.22,1.56A2.41,2.41,0,0,1,64.66,251Z"/><g class="cls-4"><path d="M58.43,238.54l8.61-39,8-11.8s11.18-20.59,9.59-35.52-7.57-31.3-7.57-31.3H88.26l5.21,34.84L90.39,176.5l-8.76,14.91L80,200,64.66,248.48,59.88,250Z"/></g><path class="cls-2" d="M51.29,108.77l-9.37-1.9a10.48,10.48,0,0,0-13.18,7.73l-7.5,43.1a10.46,10.46,0,0,0,7,12.28h0a10.47,10.47,0,0,0,13.15-6.86l6.18-22.88Z"/><path class="cls-3" d="M31.46,173a13.05,13.05,0,0,1-3.94-.61,12.89,12.89,0,0,1-8.74-15.15l7.53-43.16a13,13,0,0,1,16.21-9.61L54,106.77l-4,34.12-6.17,22.88A13,13,0,0,1,31.46,173Zm-.26-57.88-7.52,43.16a8,8,0,0,0,15.37,4.13l6.1-22.61,3.39-29-7.33-1.49a8,8,0,0,0-10,5.82Z"/><rect class="cls-3" x="32.68" y="103.1" width="18.21" height="5" transform="translate(-71.65 100.14) rotate(-65.65)"/><path class="cls-3" d="M23.4,142.58c-.23-.09-23.4-9.13-23.4-39.07S27.53,61.05,27.81,60.92l2,4.57C28.78,66,5,77,5,103.51s19.34,34.08,20.16,34.39Zm6.44-77.09-1-2.28,1,2.28Z"/><path class="cls-3" d="M108.26,133.14l-8.19,12.76A15.15,15.15,0,0,0,121,141.33c4.34-6.75,2.14-15.88-4.91-20.41Z"/><path class="cls-3" d="M54,87.37l.19.14a5,5,0,0,0,2.88.91h.21L66.21,88c.37.2.73.42,1.1.66a21.23,21.23,0,0,1,4.59,4.36c.31.37.64.8,1,1.24,1.25,1.69,2.49,3.58,3.71,5.63.49.84,1,1.71,1.49,2.64s.89,1.63,1.33,2.51a104.78,104.78,0,0,1,7.2,18.38,111.11,111.11,0,0,1,3.13,14.23c.27,1.76.48,3.36.65,4.91.21,2,.37,4,.49,6,.12,2.2.19,4.43.19,6.61,0,12.28-5.32,31.08-11.53,35.51a5,5,0,0,0-2.1,4.07v57.93L53.51,251l-21-1.5,4.14-11.44,15-41.59a5,5,0,0,0-.16-3.79,33.19,33.19,0,0,0-2.74-4.62c-2.69-4-5.73-8.61-5.73-17.86a13.22,13.22,0,0,1,.11-1.54A59.1,59.1,0,0,1,45,161.11c1.15-4,2.59-9,4-15.67a210.08,210.08,0,0,0,3.52-25.25c.17-2,.28-4.13.34-6.4v0c0-1.87,0-3.82,0-5.75,0-2.89-.2-5.89-.44-8.91V99c-.15-2-.34-4.07-.56-6l0-.23c-.16-1.34-.32-2.64-.5-3.84-.05-.36-.1-.71-.14-1l2.23-.4.56-.1m1.27-5.29c-3.4.54-6.71,1.36-9.93,1.36a11.56,11.56,0,0,1,.35,1.66c.2,1.06.45,2.59.71,4.48.17,1.17.34,2.48.5,3.91v0h0c.2,1.79.39,3.77.55,5.87h0c.22,2.71.38,5.64.43,8.67,0,1.83,0,3.7,0,5.58h0c-.05,2-.15,4.07-.32,6.1a203.9,203.9,0,0,1-3.44,24.66C41.62,156.57,38.87,163,38.18,168a17.19,17.19,0,0,0-.16,2.22c0,14.31,6.59,19.49,8.93,24.57l-15,41.59-6.39,17.66,27.64,2,24.18,1.72h0l5.08.36V194.8c8.13-5.8,13.63-26.75,13.63-39.58q0-3.53-.2-6.9c-.12-2.14-.29-4.22-.51-6.26-.19-1.74-.42-3.45-.67-5.11a116.38,116.38,0,0,0-3.28-14.89,109.88,109.88,0,0,0-7.54-19.24q-.7-1.39-1.41-2.67c-.53-1-1.06-1.91-1.58-2.78a71.48,71.48,0,0,0-4-6c-.39-.52-.76-1-1.1-1.42a26,26,0,0,0-5.71-5.37A17,17,0,0,0,67.24,83l-10.17.43c-.61-.43-1.21-.88-1.8-1.34Z"/><path class="cls-3" d="M48.82,45.29A10.08,10.08,0,0,0,58.91,55.37a9.92,9.92,0,0,0,3.86-.77,10.07,10.07,0,0,0,3.83-2.8A10.12,10.12,0,0,1,60,54.26a10.08,10.08,0,0,1-7.66-16.63A10,10,0,0,0,48.82,45.29Z"/><path class="cls-3" d="M28.3,51.65A48.69,48.69,0,0,0,46.4,89.58a48,48,0,0,0,4.28,3.1l.64.41A48.44,48.44,0,0,0,63.6,98.55c.43.13.86.24,1.29.35h0c.79.21,1.55.39,2.35.56a48.89,48.89,0,0,0,8.18,1c.53,0,1.07,0,1.61,0a50,50,0,0,0,5.37-.29,47.29,47.29,0,0,0,7.19-1.35,47.8,47.8,0,0,0,11.42-4.65A48.91,48.91,0,0,0,121.71,71.4c0-.08.07-.17.11-.26a1.38,1.38,0,0,1-.17.25A46.11,46.11,0,0,1,113,81.06h0l-.71,0-45,1.9-10.17.43c-.61-.43-1.21-.88-1.8-1.34a45.93,45.93,0,0,1,7.18-77A48.8,48.8,0,0,0,28.3,51.65Z"/><path class="cls-3" d="M25.45,51.63A51.18,51.18,0,0,0,27,64.15,51.7,51.7,0,0,0,46.9,93.53h0c.81.59,1.64,1.15,2.48,1.69l.17.1a51.24,51.24,0,0,0,16,6.66c1.22.27,2.46.51,3.71.7.3,0,.63.07.93.11l.77.1q.68.09,1.35.15l.41,0,.21,0,.21,0h0l.44,0,1.25.07h.05l.85,0,1.18,0h.36l1.13,0,1.28,0c.85,0,1.69-.1,2.53-.18l1.25-.14.35-.05q.54-.06,1.08-.15c.86-.14,1.71-.29,2.55-.46q.63-.12,1.26-.27c1.25-.29,2.48-.63,3.69-1l.35-.11h0a51,51,0,0,0,5.71-2.2q2.07-1,4-2.07l1.31-.77c.85-.52,1.69-1.07,2.51-1.64a51.79,51.79,0,0,0,18.24-22.33c-.9-.13-1.87-.26-2.9-.42,0-.08.07-.17.11-.26a1.38,1.38,0,0,1-.17.25A46.11,46.11,0,0,1,113,81.06h0l-.71,0c-.55.66-1.11,1.3-1.7,1.92a45.73,45.73,0,0,1-24.35,13.6,46.86,46.86,0,0,1-5.35.76c-.7,0-1.41.09-2.12.12-.55,0-1.11,0-1.67,0a46.06,46.06,0,0,1-12.4-1.69h0A45.36,45.36,0,0,1,53.52,91c-.37-.22-.73-.44-1.08-.67a46.42,46.42,0,0,1-6.75-5.25,45.85,45.85,0,0,1,4.08-70.32A45.68,45.68,0,0,1,80.4.11C79.31,0,78.22,0,77.11,0,76.54,0,76,0,75.42,0l-1,0C73.18.13,72,.24,70.73.39L69.47.56l-1.23.2L67,1c-1.22.24-2.44.52-3.63.86l-1.19.34L61,2.56a46,46,0,0,0-4.58,1.75c-1.1.48-2.17,1-3.22,1.55l-1.57.85a51,51,0,0,0-4.49,2.87c-.48.35-1,.7-1.43,1.06s-.93.73-1.39,1.11c-.72.59-1.42,1.2-2.11,1.83S41,14.73,40.39,15.33s-1.23,1.28-1.82,1.94-1,1.09-1.4,1.64-.9,1.13-1.34,1.7-.75,1-1.11,1.54A51.16,51.16,0,0,0,25.45,51.63Z"/><path class="cls-3" d="M37.71,49A45.8,45.8,0,0,0,55.27,82.08c.59.46,1.19.91,1.8,1.34L67.24,83l45-1.9.71,0h0a46.11,46.11,0,0,0,8.66-9.67l-2.92-.45h0C102.56,68.38,75.38,63,62.77,54.6a9.92,9.92,0,0,1-3.86.77,10.07,10.07,0,0,1-6.55-17.74A10,10,0,0,1,60,34.09a10.31,10.31,0,0,1,3.06.47c14-10.58,37.43-10.12,52.11-8.5h0a13.22,13.22,0,0,1,10.65,8.6A51.66,51.66,0,0,0,80.4.11,45.9,45.9,0,0,0,37.71,49Z"/><g class="cls-5"><path d="M57.07,83.42c-.61-.43-1.21-.88-1.8-1.34A45.88,45.88,0,0,1,80.4.11,32.38,32.38,0,0,0,77.11,0C76.54,0,76,0,75.42,0l-1,0C73.18.13,72,.24,70.73.39L69.47.56l-1.23.2L67,1c-1.23.24-2.44.53-3.63.86l-1.19.34L61,2.56q-2.34.78-4.58,1.75c-1.1.48-2.17,1-3.22,1.55l-1.57.85a51,51,0,0,0-4.49,2.87c-.48.35-1,.7-1.43,1.06s-.93.73-1.39,1.11c-.72.59-1.42,1.2-2.11,1.83S41,14.73,40.39,15.33s-1.23,1.28-1.82,1.94-1,1.09-1.4,1.64-.9,1.13-1.34,1.7-.75,1-1.11,1.54A51.6,51.6,0,0,0,46.9,93.49c.81.59,1.65,1.16,2.5,1.7l.18.11a50.89,50.89,0,0,0,16,6.66c1.22.28,2.46.52,3.71.7h0l.91.13.77.1q.68.09,1.35.15l.41,0,.21,0h.22l.44,0,1.25.07h.05l.85,0,1.18,0h.36l1.13,0,1.28,0c.85,0,1.69-.1,2.53-.18l1.25-.14.35-.05q.54-.06,1.08-.15c.86-.14,1.71-.29,2.55-.46q.63-.12,1.26-.27c1.25-.28,2.48-.62,3.69-1l.35-.11a0,0,0,0,1,0,0h0a51,51,0,0,0,5.71-2.2q2.07-.94,4-2.07l1.31-.77c.87-.52,1.72-1.07,2.55-1.64A51.64,51.64,0,0,0,128.7,53.82c0,.09,0,.19,0,.28-.05,1.06-.13,2.11-.25,3.15-.07.75-.17,1.5-.28,2.24,0,.14-.05.29-.08.44-.09.62-.2,1.23-.33,1.84-.18.95-.4,1.89-.64,2.82s-.43,1.6-.68,2.39l-.12.38q-.13.45-.3.9c-.41,1.21-.86,2.4-1.36,3.56-.9-.13-1.87-.26-2.9-.42,0-.08.07-.17.11-.26a1.38,1.38,0,0,1-.17.25A46.11,46.11,0,0,1,113,81.06h0l-2.51,2a45.9,45.9,0,0,1-32.2,8.48c-.47,0-.93-.1-1.38-.17A45.37,45.37,0,0,1,63.1,87h0c-.81-.4-1.6-.82-2.38-1.27a18.32,18.32,0,0,1,5.51-1l3.86-.15"/></g><path class="cls-3" d="M103.17,261.87H47l19.2-18.1,16.48-.68A20.65,20.65,0,0,1,103.17,261.87Z"/><path class="cls-6" d="M103.29,263.76v7.5H47v-9.39h56.22C103.22,262.5,103.26,263.12,103.29,263.76Z"/><path class="cls-3" d="M64.66,251a2.53,2.53,0,0,1-.77-.12L33,240.77a2.5,2.5,0,0,1-1.59-3.18l15.53-45.7,4.74,1.61L36.93,236.8l26,8.48,13.28-50.83L81,195.72l-14,53.39a2.49,2.49,0,0,1-1.22,1.56A2.41,2.41,0,0,1,64.66,251Z"/><path class="cls-3" d="M79,271.49,25.52,254.05l5.82-17.85,33.93,11.06A20.66,20.66,0,0,1,79,271.49Z"/><path class="cls-6" d="M78.5,273.33l-2.33,7.13L22.6,263l2.92-8.94L79,271.49C78.82,272.11,78.66,272.71,78.5,273.33Z"/><path class="cls-3" d="M67,196.86a2.5,2.5,0,0,1-.14-5l11.77-.65a2.5,2.5,0,1,1,.27,5l-11.76.65Z"/><rect class="cls-3" x="46.78" y="192.37" width="6.54" height="5" transform="translate(-116.68 82.27) rotate(-41.56)"/><rect class="cls-3" x="43.04" y="129.45" width="5" height="31.17" transform="translate(-105.73 129.98) rotate(-66.88)"/><path class="cls-6" d="M62.77,54.6c12.61,8.44,39.79,13.78,56,16.34h0l2.92.45a1.38,1.38,0,0,0,.17-.25c0,.09-.07.18-.11.26,1,.16,2,.29,2.9.42.5-1.16,1-2.35,1.36-3.56q.16-.45.3-.9l.12-.38c.25-.79.47-1.58.68-2.39s.46-1.87.64-2.82c.13-.61.24-1.22.33-1.84,0-.15.06-.3.08-.44.11-.74.21-1.49.28-2.24.12-1,.2-2.09.25-3.15,0-.82.06-1.64.06-2.47,0-.45,0-.89,0-1.33s0-.92-.05-1.37l-.06-1c-.1-1.32-.24-2.62-.43-3.91,0-.27-.09-.55-.13-.83-.19-1.14-.41-2.26-.67-3.37-.16-.69-.34-1.38-.53-2.06-.28-1-.6-2-.94-3,0,0,0,0,0-.06a13.22,13.22,0,0,0-10.65-8.6h0c-14.68-1.62-38.13-2.08-52.11,8.5A10.08,10.08,0,0,1,66.6,51.8,10.07,10.07,0,0,1,62.77,54.6Z"/><path class="cls-6" d="M121.65,71.39h.06c0-.08.07-.17.11-.26A1.38,1.38,0,0,1,121.65,71.39Z"/><path class="cls-6" d="M62,54.06l.78.54a10.07,10.07,0,0,0,3.83-2.8A9.85,9.85,0,0,1,62,54.06Z"/><g class="cls-7"><path class="cls-2" d="M111.54,53a2.87,2.87,0,0,0,2.87-2.87A37.33,37.33,0,0,0,77.12,12.85a2.87,2.87,0,1,0,0,5.73,31.59,31.59,0,0,1,31.55,31.55A2.86,2.86,0,0,0,111.54,53Z"/></g><path class="cls-8" d="M48.82,45.29A10.08,10.08,0,0,0,58.91,55.37a9.92,9.92,0,0,0,3.86-.77,10.07,10.07,0,0,0,3.83-2.8A10.12,10.12,0,0,1,60,54.26a10.08,10.08,0,0,1-7.66-16.63A10,10,0,0,0,48.82,45.29Z"/><path class="cls-9" d="M48.82,45.29A10.08,10.08,0,0,0,58.91,55.37a9.92,9.92,0,0,0,3.86-.77,10.07,10.07,0,0,0,3.83-2.8A10.12,10.12,0,0,1,60,54.26a10.08,10.08,0,0,1-7.66-16.63A10,10,0,0,0,48.82,45.29Z"/><path class="cls-8" d="M49.94,44.17A10.08,10.08,0,0,0,60,54.26,10.12,10.12,0,0,0,66.6,51.8a10.08,10.08,0,0,0-3.52-17.24A10.31,10.31,0,0,0,60,34.09,10.1,10.1,0,0,0,49.94,44.17Z"/><path class="cls-3" d="M82.12,141.86a2.5,2.5,0,0,1-.52-4.94l8.48-1.82a2.5,2.5,0,0,1,1,4.89l-8.48,1.82A2.44,2.44,0,0,1,82.12,141.86Z"/><rect class="cls-8" x="20.68" y="24.98" width="5" height="83.28" transform="translate(-18.51 9.72) rotate(-17.04)"/><path class="cls-2" d="M52.13,152.83A1.16,1.16,0,0,1,51,151.64l1.26-52.36a14.4,14.4,0,0,1,14.3-14h.36l4.67.11a14.33,14.33,0,0,1,14,14.66l-1.26,52.35a1.15,1.15,0,0,1-1.16,1.13Z"/><path class="cls-3" d="M66.56,82.81v5h.29l4.68.11A11.82,11.82,0,0,1,83.05,100l-1.23,51-28.29-.68,1.23-51a11.89,11.89,0,0,1,11.8-11.53v-5m0,0a16.82,16.82,0,0,0-16.8,16.41L48.5,151.58a3.66,3.66,0,0,0,3.57,3.75l31,.74h.09a3.66,3.66,0,0,0,3.66-3.57l1.26-52.35a16.81,16.81,0,0,0-16.4-17.22L67,82.82Z"/><path class="cls-6" d="M75.86,147.6H75.7A2.5,2.5,0,0,1,73.36,145l1-16.1a2.5,2.5,0,1,1,5,.31l-1,16.1A2.5,2.5,0,0,1,75.86,147.6Z"/><path class="cls-3" d="M61.58,99.06l-.47,12.74a1.55,1.55,0,0,0,.75,1.38,1.57,1.57,0,0,0,2.34-1.32l.09-2.43a.35.35,0,0,1,.56-.27l3.38,2.59a1.08,1.08,0,0,0,1.25,0l4.08-2.69h0l-.12,3.14a1.54,1.54,0,0,0,2.4,1.34,1.6,1.6,0,0,0,.69-1.27L77,99.63a1.53,1.53,0,0,0-.75-1.38,1.56,1.56,0,0,0-2.33,1.32l-.09,2.4a.36.36,0,0,1-.57.27l-3.32-2.55a1.1,1.1,0,0,0-1.26,0L65.12,102a.35.35,0,0,1-.55-.31l.09-2.43a1.57,1.57,0,0,0-2.23-1.49A1.55,1.55,0,0,0,61.58,99.06Zm4.73,6.29L69,103.6a.33.33,0,0,1,.39,0l2.5,1.91a.35.35,0,0,1,0,.56L69,108h0l-2.71-2.06A.34.34,0,0,1,66.31,105.35Z"/><g class="cls-4"><path d="M80.68,151s-12-.52-17.08-2.53c-7-2.79-9.7-14.21-9.7-14.21l-.4,16.08,27.18.66Z"/></g><path class="cls-3" d="M69.91,154.47l-15.16-.18a15.16,15.16,0,0,0,15,15.34c8,.1,14.6-6.61,14.7-15Z"/><circle class="cls-10" cx="11.53" cy="28.61" r="8.33"/><circle class="cls-3" cx="11.53" cy="28.61" r="6"/></g></g></svg>