<svg xmlns="http://www.w3.org/2000/svg" xmlns:xlink="http://www.w3.org/1999/xlink" viewBox="0 0 151.52 279.9"><defs><style>.cls-1{fill:none;}.cls-2{fill:#fff;}.cls-3{fill:#2285c3;}.cls-4{opacity:0.05;}.cls-5{opacity:0.17;}.cls-6{fill:#f8db72;}.cls-7{clip-path:url(#clip-path);}.cls-8{fill:#2b79ac;}.cls-9{fill:#246589;}</style><clipPath id="clip-path"><path class="cls-1" d="M36.55,26c15.84-1.74,41.9-2.14,55.21,11.28C110.34,56,58.23,66.8,33,70.8c-2.17.35-4.15.64-5.86.88a51.65,51.65,0,0,1-1.27-37A13.13,13.13,0,0,1,36.55,26Z"/></clipPath></defs><title>Asset 9</title><g id="Layer_2" data-name="Layer 2"><g id="Layer_1-2" data-name="Layer 1"><path class="cls-2" d="M52.81,146.63a2,2,0,0,1-1.69-.92L35.33,121.12a2,2,0,0,1-.27-1.51,2,2,0,0,1,.87-1.26l41.3-26.52a16.62,16.62,0,0,1,18,28l-41.3,26.52a2,2,0,0,1-1.08.32Z"/><path class="cls-3" d="M86.19,91.69a14.11,14.11,0,0,1,7.65,26l-38.31,24.6L53,143.94,37.7,120.18,78.58,93.93a14.14,14.14,0,0,1,7.61-2.24m0-5a19,19,0,0,0-10.31,3l-41.3,26.52a4.5,4.5,0,0,0-1.35,6.22L49,147.06a4.49,4.49,0,0,0,3.79,2.07,4.44,4.44,0,0,0,2.43-.72l3-1.92,38.3-24.6a19.11,19.11,0,0,0,5.75-26.41h0a19.09,19.09,0,0,0-16.1-8.79Z"/><g class="cls-4"><path d="M38.44,120.36s6.71,10,11.06,13.22c6,4.5,17.15.85,17.15.85l-13.48,8.71L38.44,120.36Z"/></g><path class="cls-2" d="M71.75,241.44v-47a2.5,2.5,0,0,0-1-2c-7-5-12.55-24.55-12.55-37.46,0-31,12.36-54.59,19.67-63.61C83.1,84.79,87.82,84,91.34,84a41.47,41.47,0,0,1,7.31.89c1.5.28,3,.56,4.59.74q-.58,3.25-1.19,9a138.42,138.42,0,0,0-.49,25.12A185.79,185.79,0,0,0,109,160.06c1.23,4.25,2.12,7.31,2.12,9.83,0,10-3.4,15.09-6.13,19.19a33.67,33.67,0,0,0-2.55,4.28,2.55,2.55,0,0,0-.23,1v47Z"/><path class="cls-3" d="M91.34,86.46h0a38.81,38.81,0,0,1,6.86.85l2.17.39c-.25,1.75-.52,3.93-.81,6.66a143.35,143.35,0,0,0-.5,25.58c1.76,21.06,5.21,32.95,7.49,40.82,1.17,4,2,7,2,9.13,0,9.22-3,13.78-5.71,17.81a33.78,33.78,0,0,0-2.74,4.62,5,5,0,0,0-.46,2.09v44.53H74.25V194.41a5,5,0,0,0-2.09-4.07c-6.2-4.43-11.51-23.18-11.51-35.43,0-30.35,12-53.27,19.12-62,4.58-5.65,8.42-6.41,11.57-6.41m0-5c-5,0-10.12,1.68-15.46,8.27-6,7.42-20.23,31-20.23,65.18,0,12.8,5.49,33.71,13.6,39.5v49.53h35.41V194.41c2.33-5.07,8.91-10.24,8.91-24.52,0-7.81-6.81-17.87-9.52-50.36a141.55,141.55,0,0,1,2.22-36.25c-4.78,0-9.76-1.82-14.93-1.82Z"/><polyline class="cls-2" points="102.33 192.31 117.83 237.91 86.98 247.98 73.06 194.69"/><path class="cls-3" d="M87,250.48a2.58,2.58,0,0,1-1.2-.31,2.52,2.52,0,0,1-1.22-1.56L70.64,195.32l4.84-1.26,13.25,50.72,25.92-8.46L100,193.11l4.73-1.6,15.5,45.6a2.47,2.47,0,0,1-.13,1.92,2.52,2.52,0,0,1-1.46,1.26L87.76,250.35A2.32,2.32,0,0,1,87,250.48Z"/><g class="cls-4"><path d="M93.2,238.06l-8.59-38.92-8-11.78S65.45,166.82,67,151.92s7.55-31.24,7.55-31.24H63.43l-5.19,34.77,3.07,20.69L70.05,191l1.66,8.58L87,248l4.78,1.48Z"/></g><path class="cls-2" d="M100.32,108.55l9.36-1.89a10.44,10.44,0,0,1,13.15,7.71l7.49,43a10.44,10.44,0,0,1-7,12.25h0a10.44,10.44,0,0,1-13.13-6.84L104,140Z"/><path class="cls-3" d="M120.12,172.63a13,13,0,0,1-12.34-9.09l-6.26-23.29-4-33.69,11.51-2.33a12.94,12.94,0,0,1,16.18,9.59l0,.12,7.48,42.95a13,13,0,0,1-12.65,15.74Zm-13.66-33.14,6.12,22.65a7.94,7.94,0,0,0,15.3-4.21l0-.12-7.49-42.95a7.94,7.94,0,0,0-10-5.81l-.22.06-7.1,1.43Z"/><rect class="cls-3" x="107.31" y="96.3" width="5" height="18.17" transform="translate(-33.68 54.64) rotate(-24.35)"/><path class="cls-3" d="M128.16,142.3l-1.75-4.68c.81-.31,20.11-8,20.11-34.32,0-26.57-24.55-37.83-24.79-37.94l2-4.56c.28.12,27.76,12.73,27.76,42.5S128.4,142.21,128.16,142.3Z"/><path class="cls-3" d="M43.47,132.87l8.18,12.73a15.13,15.13,0,0,1-20.91-4.55c-4.32-6.74-2.13-15.86,4.9-20.37Z"/><path class="cls-3" d="M91.34,81.46v5a38.81,38.81,0,0,1,6.86.85l2.17.39c-.25,1.75-.52,3.93-.81,6.66a143.35,143.35,0,0,0-.5,25.58c1.76,21.06,5.21,32.95,7.49,40.82,1.17,4,2,7,2,9.13,0,9.22-3,13.78-5.71,17.81a33.78,33.78,0,0,0-2.74,4.62,5,5,0,0,0-.16,3.79L119.1,249l-44.85,3.19v-57.8a5,5,0,0,0-2.09-4.07c-6.2-4.43-11.51-23.18-11.51-35.43,0-30.35,12-53.27,19.12-62,4.58-5.65,8.42-6.41,11.57-6.41v-5m0,0c-5,0-10.12,1.68-15.46,8.27-6,7.42-20.23,31-20.23,65.18,0,12.8,5.49,33.71,13.6,39.5v63.17l56.8-4-21.39-59.13c2.33-5.07,8.91-10.24,8.91-24.52,0-7.81-6.81-17.87-9.52-50.36a141.55,141.55,0,0,1,2.22-36.25c-4.78,0-9.76-1.82-14.93-1.82Z"/><circle class="cls-3" cx="74.59" cy="51.55" r="48.69"/><path class="cls-3" d="M74.59,5.73a45.8,45.8,0,1,1-45.81,45.8A45.86,45.86,0,0,1,74.59,5.73ZM23.06,51.53A51.53,51.53,0,1,0,74.59,0,51.53,51.53,0,0,0,23.06,51.53Z"/><g class="cls-5"><path d="M126,49.34A51.52,51.52,0,0,0,74.56,0a32.09,32.09,0,0,0-3.28.11A45.8,45.8,0,0,1,94.56,83.25L38.76,80.9h0A45.77,45.77,0,0,1,23.07,53.71a51.53,51.53,0,1,0,103-4.37ZM65.09,91.51a45.67,45.67,0,0,1-23.83-8.66h0l44.17,1.67a18.44,18.44,0,0,1,5.49,1A45.6,45.6,0,0,1,65.09,91.51Z"/></g><path class="cls-3" d="M48.56,261.34h56.1L85.5,243.28l-16.45-.68A20.6,20.6,0,0,0,48.56,261.34Z"/><path class="cls-6" d="M48.43,263.23v7.49h56.23v-9.38H48.56C48.5,262,48.46,262.59,48.43,263.23Z"/><path class="cls-2" d="M86.48,120.3h-.55l-52.19-2a1.16,1.16,0,0,1-1.11-1.2L33.8,86.22A1.15,1.15,0,0,1,35,85.11l52.24,2A14.33,14.33,0,0,1,101,101.93l-.17,4.59a14.28,14.28,0,0,1-14.3,13.78Z"/><path class="cls-3" d="M36.25,87.66l50.84,1.92a11.83,11.83,0,0,1,11.36,12.26l-.17,4.59a11.78,11.78,0,0,1-11.8,11.37H86l-50.84-1.93,1.07-28.2m-1.3-5a3.66,3.66,0,0,0-3.65,3.52L30.13,117a3.66,3.66,0,0,0,3.52,3.79l52.18,2h.65a16.81,16.81,0,0,0,16.79-16.18l.18-4.6A16.82,16.82,0,0,0,87.28,84.58l-52.19-2Z"/><path class="cls-3" d="M87,250.48a2.58,2.58,0,0,1-1.2-.31,2.52,2.52,0,0,1-1.22-1.56L70.64,195.32l4.84-1.26,13.25,50.72,25.92-8.46L100,193.11l4.73-1.6,15.5,45.6a2.47,2.47,0,0,1-.13,1.92,2.52,2.52,0,0,1-1.46,1.26L87.76,250.35A2.32,2.32,0,0,1,87,250.48Z"/><path class="cls-3" d="M72.71,270.94l53.34-17.4-5.82-17.82L86.38,246.77A20.6,20.6,0,0,0,72.71,270.94Z"/><path class="cls-6" d="M73.17,272.78l2.33,7.12L129,262.46l-2.91-8.92-53.34,17.4C72.85,271.56,73,272.16,73.17,272.78Z"/><path class="cls-3" d="M84.61,196.47h-.14l-11.74-.65a2.5,2.5,0,1,1,.28-5l11.74.65a2.5,2.5,0,0,1-.14,5Z"/><rect class="cls-3" x="99.06" y="191.21" width="5" height="6.53" transform="translate(-111.33 141.43) rotate(-48.43)"/><path class="cls-3" d="M31.94,116.8l-.17-15.13-.16-14.49a14.91,14.91,0,0,0-14.9,13.1l-.07,0-2.37,10.7h0a2.8,2.8,0,0,0,5.15,2l.52-.88a.48.48,0,0,1,.77-.07A15.08,15.08,0,0,0,31.94,116.8Z"/><line class="cls-2" x1="57.88" y1="93.96" x2="41.78" y2="93.96"/><path class="cls-6" d="M57.88,96.46H41.78a2.5,2.5,0,0,1,0-5h16.1a2.5,2.5,0,1,1,0,5Z"/><path class="cls-3" d="M41.78,143.88a2.46,2.46,0,0,1-1.54-.53L1,112.5A2.5,2.5,0,1,1,4,108.57l39.28,30.85a2.49,2.49,0,0,1-1.54,4.46Z"/><line class="cls-2" x1="120.37" y1="138.64" x2="91.76" y2="150.85"/><rect class="cls-3" x="90.51" y="142.25" width="31.11" height="5" transform="translate(-48.31 53.26) rotate(-23.11)"/><path class="cls-6" d="M36.55,26c15.84-1.74,41.9-2.14,55.21,11.28C110.34,56,58.23,66.8,33,70.8c-2.17.35-4.15.64-5.86.88a51.65,51.65,0,0,1-1.27-37A13.13,13.13,0,0,1,36.55,26Z"/><g class="cls-7"><path class="cls-2" d="M40.2,52.9A2.86,2.86,0,0,1,37.34,50,37.25,37.25,0,0,1,74.55,12.82a2.87,2.87,0,0,1,0,5.73A31.52,31.52,0,0,0,43.06,50,2.86,2.86,0,0,1,40.2,52.9Z"/></g><circle class="cls-8" cx="92.73" cy="45.2" r="10.06"/><circle class="cls-9" cx="92.73" cy="45.2" r="10.06"/><circle class="cls-8" cx="91.62" cy="44.09" r="10.06"/><path class="cls-3" d="M69.56,141.58a3.27,3.27,0,0,1-.53-.05l-8.46-1.82a2.5,2.5,0,0,1,1-4.89l8.46,1.82a2.5,2.5,0,0,1-.52,4.94Z"/><path class="cls-3" d="M88.13,110.26a1.57,1.57,0,0,0-1.35-2.32l-2.42-.06a.35.35,0,0,1-.28-.56l2.54-3.4a1.07,1.07,0,0,0,0-1.25L84.32,99.2a.35.35,0,0,1,.3-.55l2.39.06a1.54,1.54,0,1,0,.14-3.08l-12.68-.32a1.59,1.59,0,0,0-1.3.61,1.54,1.54,0,0,0,1.18,2.47l3.14.08h0l-2.94,3.89a1.08,1.08,0,0,0,0,1.26l2.36,3.52a.35.35,0,0,1-.3.55l-2.42-.07a1.57,1.57,0,0,0-1.46,2.25,1.53,1.53,0,0,0,1.32.83l12.72.32A1.55,1.55,0,0,0,88.13,110.26Zm-7.9-4.35-1.89-2.82h0l2.06-2.71a.34.34,0,0,1,.55,0l1.76,2.6a.35.35,0,0,1,0,.39l-1.91,2.54A.35.35,0,0,1,80.23,105.91Z"/><g class="cls-4"><path d="M36.76,88.21s-.23,12,1.47,17.18c2.34,7.14,13.55,10.54,13.55,10.54l-16-.61,1-27.11Z"/></g><rect class="cls-8" x="86.82" y="63.99" width="83.12" height="5" transform="translate(27.17 169.74) rotate(-72.95)"/><circle class="cls-8" cx="139.77" cy="27.59" r="6.66"/><path class="cls-8" d="M139.77,37.34a9.75,9.75,0,1,1,9.75-9.75A9.77,9.77,0,0,1,139.77,37.34Zm0-18.5a8.75,8.75,0,1,0,8.75,8.75A8.77,8.77,0,0,0,139.77,18.84Z"/></g></g></svg>