<svg xmlns="http://www.w3.org/2000/svg" xmlns:xlink="http://www.w3.org/1999/xlink" viewBox="0 0 216.23 627.5"><defs><style>.cls-1{fill:none;}.cls-2{fill:#f8db72;}.cls-3{fill:#fff;}.cls-4{fill:#2285c3;}.cls-5{opacity:0.05;}.cls-6{opacity:0.17;}.cls-7{clip-path:url(#clip-path);}.cls-8{fill:#2b79ac;}.cls-9{fill:#246589;}.cls-10{fill:#f1f1f2;}</style><clipPath id="clip-path"><path class="cls-1" d="M104.3,356.25c14.1,7.85,35.85,22.8,39,41.68,4.35,26.37-45,4.71-68.15-6.77-2-1-3.79-1.91-5.35-2.71a52.35,52.35,0,0,1,20.67-31.31,13.25,13.25,0,0,1,13.87-.89Z"/></clipPath></defs><title>Asset 11</title><g id="Layer_2" data-name="Layer 2"><g id="Layer_1-2" data-name="Layer 1"><path class="cls-2" d="M92,610.62v7.58h56.94v-9.49H92.12C92.07,609.34,92,610,92,610.62Z"/><path class="cls-2" d="M117.05,620.29l2.35,7.21,54.14-17.66-2.95-9-54,17.62C116.72,619.05,116.88,619.66,117.05,620.29Z"/><path class="cls-3" d="M115.58,588.58V540.93a2.47,2.47,0,0,0-1-2c-7-5-12.73-24.89-12.73-38,0-31.44,12.53-55.29,19.94-64.43,5.35-6.6,10.13-7.45,13.71-7.45a42.51,42.51,0,0,1,7.4.91c1.54.28,3.1.57,4.68.75-.39,2.2-.8,5.26-1.21,9.17a141.88,141.88,0,0,0-.5,25.44c1.76,21.06,5.21,32.95,7.49,40.82,1.25,4.3,2.15,7.41,2.15,10,0,10.11-3.45,15.29-6.22,19.46a31.92,31.92,0,0,0-2.57,4.33,2.32,2.32,0,0,0-.23,1v47.65Z"/><path class="cls-4" d="M135.45,431.55h0a39.88,39.88,0,0,1,7,.87c.75.14,1.5.28,2.26.4-.26,1.79-.53,4-.82,6.8a143.1,143.1,0,0,0-.51,25.9c1.78,21.31,5.27,33.35,7.58,41.32,1.19,4.1,2.05,7.06,2.05,9.26,0,9.36-3.08,14-5.8,18.07a35.14,35.14,0,0,0-2.77,4.67,5,5,0,0,0-.45,2.09v45.15H118.08V540.93a5,5,0,0,0-2.1-4.07c-6.29-4.49-11.68-23.51-11.68-35.93,0-30.74,12.18-54,19.38-62.85,4.65-5.75,8.56-6.53,11.77-6.53m0-5c-5,0-10.25,1.71-15.66,8.38-6.09,7.51-20.49,31.43-20.49,66,0,13,5.57,34.14,13.78,40v50.15h35.86V540.93c2.35-5.13,9-10.37,9-24.83,0-7.91-6.9-18.09-9.65-51a143.82,143.82,0,0,1,2.25-36.71c-4.84,0-9.87-1.85-15.11-1.85Z"/><polyline class="cls-3" points="146.58 538.81 162.27 584.99 131.03 595.18 116.94 541.22"/><path class="cls-4" d="M131,597.68a2.51,2.51,0,0,1-1.19-.31,2.48,2.48,0,0,1-1.22-1.56l-14.1-54,4.84-1.26L132.78,592l26.31-8.59-14.88-43.78L149,538l15.69,46.18a2.46,2.46,0,0,1-.13,1.92,2.52,2.52,0,0,1-1.46,1.26l-31.24,10.19A2.55,2.55,0,0,1,131,597.68Z"/><g class="cls-5"><path d="M137.33,585.13l-8.7-39.41-8.1-11.93s-11.3-20.8-9.69-35.89,7.64-31.63,7.64-31.63H107.19l-5.26,35.21L105,522.43l8.85,15.08,1.68,8.69,15.46,49,4.84,1.49Z"/></g><path class="cls-3" d="M144.54,454l9.48-1.92a10.58,10.58,0,0,1,13.31,7.81l7.59,43.56a10.58,10.58,0,0,1-7.12,12.41h0a10.58,10.58,0,0,1-13.29-6.93l-6.24-23.12Z"/><path class="cls-4" d="M164.59,518.85a13.11,13.11,0,0,1-12.47-9.19l-6.33-23.57-4-34.09,11.63-2.36a13.09,13.09,0,0,1,16.35,9.69l0,.13L177.37,503a13,13,0,0,1-8.81,15.28A13.26,13.26,0,0,1,164.59,518.85Zm-13.86-33.53,6.19,22.95A8.08,8.08,0,0,0,172.48,504l0-.12-7.57-43.49a8.08,8.08,0,0,0-10.16-5.91l-.21,0L147.3,456Z"/><rect class="cls-4" x="151.65" y="441.59" width="5" height="18.4" transform="translate(-172.12 103.63) rotate(-24.35)"/><path class="cls-4" d="M135.45,426.55v5a39.88,39.88,0,0,1,7,.87c.75.14,1.5.28,2.26.4-.26,1.79-.53,4-.82,6.8a143.1,143.1,0,0,0-.51,25.9c1.78,21.31,5.27,33.35,7.58,41.32,1.19,4.1,2.05,7.06,2.05,9.26,0,9.36-3.08,14-5.8,18.07a35.14,35.14,0,0,0-2.77,4.67,5,5,0,0,0-.15,3.79l19.4,53.66-45.56,3.24v-58.6a5,5,0,0,0-2.1-4.07c-6.29-4.49-11.68-23.51-11.68-35.93,0-30.74,12.18-54,19.38-62.85,4.65-5.75,8.56-6.53,11.77-6.53v-5m0,0c-5,0-10.25,1.71-15.66,8.38-6.09,7.51-20.49,31.43-20.49,66,0,13,5.57,34.14,13.78,40v64l57.51-4.09-21.65-59.88c2.35-5.13,9-10.37,9-24.83,0-7.91-6.9-18.09-9.65-51a143.82,143.82,0,0,1,2.25-36.71c-4.84,0-9.87-1.85-15.11-1.85Z"/><circle class="cls-4" cx="120.72" cy="399.64" r="49.3"/><path class="cls-4" d="M147.59,361.81a46.38,46.38,0,1,1-64.67,10.95,46.45,46.45,0,0,1,64.67-10.95Zm-69.4,7.6A52.18,52.18,0,1,0,151,357.08,52.18,52.18,0,0,0,78.19,369.41Z"/><g class="cls-6"><path d="M73.94,402.86h0a46.26,46.26,0,0,1,3-31.63,52.17,52.17,0,1,0,74-14.15,32.38,32.38,0,0,0-2.78-1.83,46.37,46.37,0,0,1-29.54,82.28c1.55,1.2-5.42-1.74-4.35-.22a46.34,46.34,0,0,1-39.41-31.36h0"/></g><path class="cls-4" d="M92.12,608.71h56.82l-19.41-18.29-16.65-.69A20.87,20.87,0,0,0,92.12,608.71Z"/><path class="cls-4" d="M131,597.68a2.51,2.51,0,0,1-1.19-.31,2.48,2.48,0,0,1-1.22-1.56l-14.1-54,4.84-1.26L132.78,592l26.31-8.59-14.88-43.78L149,538l15.69,46.18a2.46,2.46,0,0,1-.13,1.92,2.52,2.52,0,0,1-1.46,1.26l-31.24,10.19A2.55,2.55,0,0,1,131,597.68Z"/><path class="cls-4" d="M116.58,618.43l54-17.62-5.89-18L130.42,594A20.87,20.87,0,0,0,116.58,618.43Z"/><path class="cls-4" d="M128.63,543h-.14l-11.89-.66a2.5,2.5,0,0,1,.28-5l11.89.66a2.5,2.5,0,0,1-.14,5Z"/><rect class="cls-4" x="143.3" y="537.69" width="5" height="6.61" transform="translate(-355.72 291.16) rotate(-48.44)"/><line class="cls-3" x1="164.84" y1="484.46" x2="135.87" y2="496.83"/><rect class="cls-4" x="134.6" y="488.14" width="31.5" height="5" transform="translate(-180.56 98.43) rotate(-23.12)"/><path class="cls-2" d="M104.3,356.25c14.1,7.85,35.85,22.8,39,41.68,4.35,26.37-45,4.71-68.15-6.77-2-1-3.79-1.91-5.35-2.71a52.35,52.35,0,0,1,20.67-31.31,13.25,13.25,0,0,1,13.87-.89Z"/><g class="cls-7"><path class="cls-3" d="M91.54,380.59a2.89,2.89,0,0,1-.68-4,37.72,37.72,0,0,1,52.54-8.9,2.9,2.9,0,0,1-3.36,4.72,31.93,31.93,0,0,0-44.46,7.53A2.89,2.89,0,0,1,91.54,380.59Z"/></g><circle class="cls-8" cx="139.42" cy="405.03" r="10.19"/><circle class="cls-9" cx="139.42" cy="405.03" r="10.19"/><circle class="cls-8" cx="139.15" cy="403.47" r="10.19"/><path class="cls-4" d="M113.39,487.41a2.31,2.31,0,0,1-.52-.06l-8.58-1.83a2.5,2.5,0,1,1,1-4.89l8.57,1.83a2.5,2.5,0,0,1-.52,5Z"/><path class="cls-3" d="M125.91,453.77a14.39,14.39,0,0,1-14-11.26L100.59,390.6a1.21,1.21,0,0,1,.16-.88,1.17,1.17,0,0,1,.73-.5l30.67-6.71.25,0a1.16,1.16,0,0,1,1.13.91l11.34,51.91a14.3,14.3,0,0,1-10.92,17l-5,1.09a14.43,14.43,0,0,1-3.07.33Z"/><path class="cls-4" d="M131.37,385.24l11.06,50.61a11.79,11.79,0,0,1-9,14.06l-5,1.09a12.11,12.11,0,0,1-2.54.27A11.89,11.89,0,0,1,114.38,442l-11.06-50.61,28.05-6.13m1-5.25a3.59,3.59,0,0,0-.79.08L101,386.78a3.66,3.66,0,0,0-2.8,4.35l11.35,51.92a16.82,16.82,0,0,0,16.41,13.22,16.55,16.55,0,0,0,3.61-.39l5-1.08a16.83,16.83,0,0,0,12.84-20L136,382.87A3.65,3.65,0,0,0,132.4,380Z"/><line class="cls-3" x1="130.63" y1="408.13" x2="126.55" y2="392.34"/><path class="cls-2" d="M130.63,410.63a2.5,2.5,0,0,1-2.42-1.88L124.13,393a2.5,2.5,0,1,1,4.84-1.25l4.08,15.78a2.5,2.5,0,0,1-1.79,3.05A2.72,2.72,0,0,1,130.63,410.63Z"/><path class="cls-4" d="M122.32,441.91a1.59,1.59,0,0,0,1.93-1.91l-.56-2.39a.36.36,0,0,1,.48-.41l4,1.63a1.11,1.11,0,0,0,1.24-.29l2.8-3.17a.36.36,0,0,1,.62.15l.55,2.37a1.58,1.58,0,0,0,2.57.86,1.56,1.56,0,0,0,.47-1.51l-2.89-12.5a1.64,1.64,0,0,0-.93-1.13,1.56,1.56,0,0,0-2.12,1.79l.72,3.09v0l-4.56-1.89a1.09,1.09,0,0,0-1.24.28l-2.85,3.21a.35.35,0,0,1-.61-.15l-.56-2.39a1.58,1.58,0,0,0-2.57-.87,1.61,1.61,0,0,0-.48,1.52l2.91,12.54A1.58,1.58,0,0,0,122.32,441.91Zm2.26-8.84,2.29-2.57h0l3.17,1.33a.34.34,0,0,1,.12.55l-2.1,2.37a.34.34,0,0,1-.39.09l-3-1.22A.34.34,0,0,1,124.58,433.07Z"/><g class="cls-5"><path d="M130.91,386s-11.85,2.83-16.47,5.79c-6.41,4.12-6.89,16-6.89,16l-3.48-15.88L130.91,386Z"/></g><path class="cls-8" d="M101.63,388.35l0,.13,2.41,3.36L130.91,386l-.3-5.31-.06-.23a14.08,14.08,0,0,0-21-7.91l-1.84,1.13A13.45,13.45,0,0,0,101.63,388.35Z"/><path class="cls-3" d="M165.34,60A51.2,51.2,0,0,0,64.2,44.22c-2.63,14.09.85,26.69,8.27,37.47,14.47,21,21.68,34.44,18.56,59.77L90.6,145l25,3.08.47-3.85c3.15-25.6,14.31-36.39,33.29-53.87C158,82.38,163.8,72.5,165.34,60Z"/><path class="cls-4" d="M117.76,150.82l-29.95-3.69.74-6c3-24.25-3.56-36.88-18.14-58C62.05,71,59.14,57.73,61.74,43.76,66.73,17,91.87-2.1,119,.18a53.71,53.71,0,0,1,48.85,60.09h0c-1.51,12.3-7.16,23-16.77,31.88-19.85,18.28-29.53,28.14-32.51,52.34Zm-24.38-8,20,2.46.17-1.36c3.34-27.1,15.57-38.36,34.08-55.4,8.84-8.15,13.81-17.57,15.2-28.82h0A48.7,48.7,0,0,0,118.55,5.17,49.07,49.07,0,0,0,66.66,44.68C64.3,57.3,67,69.27,74.52,80.27c14,20.36,22.3,34.65,19,61.5Z"/><path class="cls-3" d="M77.85,56.86A38.35,38.35,0,0,1,116.2,18.51"/><path class="cls-2" d="M77.85,59.36a2.5,2.5,0,0,1-2.5-2.5A40.9,40.9,0,0,1,116.2,16a2.5,2.5,0,0,1,0,5A35.89,35.89,0,0,0,80.35,56.86,2.5,2.5,0,0,1,77.85,59.36Z"/><path class="cls-10" d="M90,127.43h28a0,0,0,0,1,0,0v21.25a6.71,6.71,0,0,1-6.71,6.71H96.74A6.71,6.71,0,0,1,90,148.68V127.43A0,0,0,0,1,90,127.43Z" transform="translate(18.07 -11.65) rotate(7.02)"/><path class="cls-4" d="M110.36,158.73a10.9,10.9,0,0,1-1.14-.07l-14.43-1.78a9.2,9.2,0,0,1-8-10.26L89.68,123l32.71,4-2.91,23.57a9.2,9.2,0,0,1-9.12,8.09Zm-.53-5a4.15,4.15,0,0,0,3.1-.85,4.2,4.2,0,0,0,1.59-2.81l2.29-18.61L94,128.62l-2.29,18.61a4.19,4.19,0,0,0,3.66,4.69Z"/><path class="cls-4" d="M106.43,139l-.3,0L90.47,137a2.5,2.5,0,0,1,.61-5L106.74,134a2.5,2.5,0,0,1-.31,5Z"/><path class="cls-4" d="M105.17,149.25l-.31,0-14.57-1.8a2.5,2.5,0,0,1,.61-5l14.57,1.79a2.5,2.5,0,0,1-.3,5Z"/><path class="cls-4" d="M116.86,140.25a1.62,1.62,0,0,1-.31,0l-3.64-.44a2.5,2.5,0,1,1,.61-5l3.64.45a2.5,2.5,0,0,1-.3,5Z"/><path class="cls-4" d="M115.05,150.46a1.67,1.67,0,0,1-.31,0l-3.1-.38a2.5,2.5,0,0,1,.62-5l3.09.38a2.5,2.5,0,0,1-.3,5Z"/><path class="cls-3" d="M103.22,87.52A51.2,51.2,0,0,0,3.44,110.34C6.21,124.4,14.11,134.83,25,142.09c21.23,14.17,32.89,24,39.37,48.65l.9,3.4,24.35-6.39-1-3.75c-6.55-24.95-.18-39.11,11-62.36C104.67,111.08,106.43,99.74,103.22,87.52Z"/><path class="cls-4" d="M63.47,197.2,62,191.38c-6.21-23.63-17-32.94-38.35-47.21C11.35,136,3.74,124.77,1,110.83-4.27,84.16,12,57.07,38,49.16a53.71,53.71,0,0,1,67.62,37.73h0c3.15,12,1.88,24-3.78,35.83-11.67,24.32-17,37.06-10.81,60.65l1.61,6.16ZM53.79,51.79a48.79,48.79,0,0,0-47.9,58.07C8.38,122.45,15.27,132.6,26.38,140c20.56,13.72,33.54,23.94,40.4,50.1l.26,1L86.56,186l-.35-1.33c-6.93-26.41.26-41.4,11.14-64.09,5.2-10.83,6.33-21.43,3.45-32.39h0a48.79,48.79,0,0,0-47-36.37Z"/><path class="cls-10" d="M62.43,171.91h28a0,0,0,0,1,0,0v21.25a6.71,6.71,0,0,1-6.71,6.71H69.14a6.71,6.71,0,0,1-6.71-6.71V171.91a0,0,0,0,1,0,0Z" transform="translate(-44.7 25.49) rotate(-14.71)"/><path class="cls-4" d="M71.23,204a9.22,9.22,0,0,1-8.91-6.87l-6-23,31.88-8.37,6,23A9.22,9.22,0,0,1,87.63,200l-14.07,3.69A8.94,8.94,0,0,1,71.23,204ZM62.39,177.7l4.77,18.14a4.2,4.2,0,0,0,5.13,3l14.07-3.7a4.21,4.21,0,0,0,3-5.13L84.6,171.87Z"/><path class="cls-4" d="M61.57,186.91a2.5,2.5,0,0,1-.63-4.92l15.25-4a2.5,2.5,0,0,1,1.27,4.84l-15.25,4A2.41,2.41,0,0,1,61.57,186.91Z"/><path class="cls-4" d="M65.26,196.64a2.5,2.5,0,0,1-.64-4.91L78.82,188a2.5,2.5,0,1,1,1.27,4.83l-14.2,3.73A2.27,2.27,0,0,1,65.26,196.64Z"/><path class="cls-4" d="M83.43,181.17a2.5,2.5,0,0,1-.63-4.92l3.55-.93a2.5,2.5,0,1,1,1.27,4.83l-3.55.93A2.35,2.35,0,0,1,83.43,181.17Z"/><path class="cls-4" d="M86.06,191.18a2.5,2.5,0,0,1-.63-4.92l3-.79a2.5,2.5,0,0,1,1.27,4.84l-3,.79A2.8,2.8,0,0,1,86.06,191.18Z"/><path class="cls-3" d="M17,102.55A38.35,38.35,0,0,1,55.34,64.2"/><path class="cls-2" d="M17,105.05a2.5,2.5,0,0,1-2.5-2.5A40.9,40.9,0,0,1,55.34,61.7a2.5,2.5,0,0,1,0,5,35.89,35.89,0,0,0-35.85,35.85A2.5,2.5,0,0,1,17,105.05Z"/><path class="cls-3" d="M207.62,123.89A51.2,51.2,0,0,0,119,72.7c-7.54,12.18-8.85,25.2-5.82,37.92,5.91,24.83,7.78,39.95-4.27,62.44l-1.66,3.1,22.19,11.9,1.83-3.42c12.18-22.74,26.49-28.77,50.49-38.21C192.65,142.14,201.65,135,207.62,123.89Z"/><path class="cls-4" d="M130.45,191.44l-26.6-14.25,2.84-5.31c11.54-21.53,10-35.67,4-60.68-3.41-14.33-1.35-27.73,6.13-39.82,14.3-23.12,44.65-31.89,69.1-20a53.7,53.7,0,0,1,23.86,73.66h0c-5.85,10.93-15,18.9-27.15,23.68-25.11,9.88-37.69,15.58-49.21,37.07Zm-19.83-16.3,17.79,9.53.64-1.21c12.9-24.07,28.37-30.15,51.79-39.36,11.18-4.4,19.22-11.4,24.58-21.39h0A48.7,48.7,0,0,0,183.77,55.9,49.09,49.09,0,0,0,121.11,74c-6.75,10.92-8.6,23-5.51,36,5.72,24,8.27,40.37-4.5,64.21Z"/><path class="cls-10" d="M107,163.73h28a0,0,0,0,1,0,0V185a6.71,6.71,0,0,1-6.71,6.71H113.75A6.71,6.71,0,0,1,107,185V163.73a0,0,0,0,1,0,0Z" transform="translate(98.29 -36.09) rotate(28.19)"/><path class="cls-4" d="M124,196.77a9.14,9.14,0,0,1-4.34-1.1l-12.82-6.87a9.21,9.21,0,0,1-3.76-12.47l11.22-20.93L143.34,171,132.12,191.9a9.15,9.15,0,0,1-5.45,4.47A9.56,9.56,0,0,1,124,196.77Zm-7.66-34.6-8.86,16.53a4.2,4.2,0,0,0,1.72,5.69L122,191.26a4.22,4.22,0,0,0,3.21.32,4.18,4.18,0,0,0,2.49-2L136.57,173Z"/><path class="cls-4" d="M125.06,176.47a2.41,2.41,0,0,1-1.18-.3L110,168.73a2.5,2.5,0,0,1,2.36-4.41l13.9,7.45a2.5,2.5,0,0,1-1.18,4.7Z"/><path class="cls-4" d="M120.17,185.6a2.52,2.52,0,0,1-1.18-.3l-12.94-6.93a2.5,2.5,0,1,1,2.37-4.41l12.93,6.93a2.5,2.5,0,0,1-1.18,4.71Z"/><path class="cls-4" d="M134.32,181.43a2.38,2.38,0,0,1-1.18-.3l-3.23-1.73a2.5,2.5,0,0,1,2.36-4.4l3.23,1.73a2.5,2.5,0,0,1-1.18,4.7Z"/><path class="cls-4" d="M129,190.3a2.49,2.49,0,0,1-1.18-.3L125,188.53a2.5,2.5,0,0,1,2.36-4.41l2.75,1.48a2.5,2.5,0,0,1-1.18,4.7Z"/><path class="cls-3" d="M126.73,100.82a38.35,38.35,0,0,1,38.35-38.35"/><path class="cls-2" d="M126.73,103.32a2.49,2.49,0,0,1-2.5-2.5A40.89,40.89,0,0,1,165.08,60a2.5,2.5,0,0,1,0,5,35.89,35.89,0,0,0-35.85,35.85A2.5,2.5,0,0,1,126.73,103.32Z"/><path class="cls-8" d="M112.41,380.8l-10.3-42.66a112.49,112.49,0,0,1,0-52.4l5.56-23.12A30.31,30.31,0,0,0,97.4,232.25L92.25,228a35,35,0,0,1-12.89-27.2h5a30,30,0,0,0,11.06,23.33l5.15,4.21a35.34,35.34,0,0,1,11.92,35.4l-5.56,23.12A107.35,107.35,0,0,0,107,337l10.3,42.66Z"/><path class="cls-8" d="M113.67,253.92,109,252.25l3.4-9.58a23.29,23.29,0,0,0,.26-14.69l-4.3-13.65a28.13,28.13,0,0,1,4.54-25.6l4,3.05a23.14,23.14,0,0,0-3.73,21.05l4.3,13.65a28.28,28.28,0,0,1-.32,17.86Z"/><path class="cls-8" d="M110.47,249.47,100,215.11c-.36-1.18-.78-2.36-1.23-3.49a48.22,48.22,0,0,1-.47-34.79l.59-1.6a43.16,43.16,0,0,0,2.7-15.67l-.06-4,5-.07.06,4a48.26,48.26,0,0,1-3,17.48l-.59,1.6a43.19,43.19,0,0,0,.42,31.19c.51,1.26,1,2.57,1.37,3.89L115.25,248Z"/></g></g></svg>