<svg xmlns="http://www.w3.org/2000/svg" viewBox="0 0 335.89 97.22"><title>blockhub-logotype-black</title><path d="M158.38,56.36c0,6.4-1.56,10.44-9.2,10.44H134.86c-3.5,0-5.7-1.73-5.7-5.76V34.94c0-4,2.2-5.82,5.7-5.82h13.78c6.51,0,9,3.29,9,10.44,0,3.93-1.07,7.16-5.22,7.86v.22C157.3,48.34,158.38,51.51,158.38,56.36ZM138.31,44.19h6c2.63,0,3.65-1,3.65-4,0-2.69-1-3.87-3.71-3.87h-3.55c-1.88,0-2.42.53-2.42,2.42Zm0,12.7c0,2.16.54,2.7,2.69,2.7h3.39c2.91,0,4.3-1.19,4.3-4.15s-1.39-4.25-4.09-4.25h-6.29ZM162.8,29.12h8.39V66.8H162.8Zm39.66,23.41c0,11.63-3.28,14.59-13.78,14.59s-13.77-3-13.77-14.59S178.19,38,188.68,38,202.46,41,202.46,52.53Zm-13.78,8.4c4.58,0,5.17-2.74,5.17-8.4s-.59-8.39-5.17-8.39-5.16,2.74-5.16,8.39S184.11,60.93,188.68,60.93ZM220.6,44.46c-5.49,0-6.62,3.23-6.62,8.07s1.13,8.08,6.62,8.08h6.24V66.8h-9.47c-9.68,0-12-5.65-12-14.27s2.32-14.26,12-14.26h8.83v6.19Zm9.48,22.34V29.12h8.39V66.8Zm17,0-5.65-10.07a9,9,0,0,1-1.29-4.68,9.14,9.14,0,0,1,1.29-4.57l4.63-9.21h9.21l-6.25,11.2a5,5,0,0,0-.59,2.31,6.1,6.1,0,0,0,.92,2.8l7.37,12.22Zm37,0H281.2V48.93H262.69V66.8h-2.9V29.12h2.9V46.35H281.2V29.12h2.91Zm25.73-4.52c0,2.74-.86,4.52-3.88,4.52H299c-5.92,0-8.23-3.18-8.23-8.78V38.27h2.8V58c0,3.45,1.13,6.25,5.43,6.25h6.3c1.07,0,1.72-.22,1.72-2V38.27h2.8Zm11.57,4.52c-3.5,0-5.76-.43-5.76-4.47V29.12h2.8v9.15h6.3c9.15,0,11.14,4.95,11.14,14.1s-2,14.43-11.14,14.43Zm-3-4.74c0,1.4.05,2.21,2,2.21h4.31c7.53,0,8.23-4.9,8.23-11.9s-.7-11.57-8.23-11.57h-6.3Z"/><rect x="37.13" y="37.45" width="22.34" height="22.33" transform="translate(-20.23 48.39) rotate(-45)"/><polygon points="81.11 33.49 65.52 49.09 65.52 49.09 65.52 49.09 48.97 65.64 48.97 97.22 81.11 65.08 81.11 33.49"/><polygon points="47.62 97.22 47.62 65.64 15.47 33.49 15.47 65.07 47.62 97.22"/><path d="M14.12,63.73V33.5L.7,46.92a2.4,2.4,0,0,0,0,3.38Z"/><polygon points="47.62 0 15.75 31.87 31.55 47.66 47.63 31.59 47.62 0"/><polygon points="48.97 0 48.97 31.59 65.04 47.66 80.83 31.87 48.97 0"/><path d="M82.46,33.49V63.73L95.89,50.3a2.4,2.4,0,0,0,0-3.38Z"/></svg>